<svg width="24" height="25" viewBox="0 0 24 25" fill="none" xmlns="http://www.w3.org/2000/svg">
<path d="M12.0054 6.43525C8.59829 6.43525 5.85008 9.14053 5.85008 12.4944C5.85008 15.8483 8.59829 18.5536 12.0054 18.5536C15.4126 18.5536 18.1608 15.8483 18.1608 12.4944C18.1608 9.14053 15.4126 6.43525 12.0054 6.43525ZM12.0054 16.4337C9.80365 16.4337 8.00365 14.6671 8.00365 12.4944C8.00365 10.3218 9.79829 8.55518 12.0054 8.55518C14.2126 8.55518 16.0072 10.3218 16.0072 12.4944C16.0072 14.6671 14.2072 16.4337 12.0054 16.4337ZM19.8483 6.1874C19.8483 6.97315 19.2054 7.60068 18.4126 7.60068C17.6144 7.60068 16.9769 6.96787 16.9769 6.1874C16.9769 5.40693 17.6197 4.77412 18.4126 4.77412C19.2054 4.77412 19.8483 5.40693 19.8483 6.1874ZM23.9251 7.62178C23.834 5.72861 23.3947 4.05166 21.9858 2.67002C20.5822 1.28838 18.8787 0.855957 16.9554 0.761035C14.9733 0.650293 9.03222 0.650293 7.05008 0.761035C5.13222 0.850684 3.42865 1.28311 2.01972 2.66475C0.610795 4.04639 0.176867 5.72334 0.0804382 7.6165C-0.0320618 9.56768 -0.0320618 15.4159 0.0804382 17.3671C0.17151 19.2603 0.610795 20.9372 2.01972 22.3188C3.42865 23.7005 5.12687 24.1329 7.05008 24.2278C9.03222 24.3386 14.9733 24.3386 16.9554 24.2278C18.8787 24.1382 20.5822 23.7058 21.9858 22.3188C23.3894 20.9372 23.8286 19.2603 23.9251 17.3671C24.0376 15.4159 24.0376 9.57295 23.9251 7.62178ZM21.3644 19.4606C20.9465 20.4942 20.1376 21.2905 19.0822 21.7071C17.5019 22.3241 13.7519 22.1817 12.0054 22.1817C10.259 22.1817 6.50365 22.3188 4.92865 21.7071C3.87865 21.2958 3.06972 20.4995 2.64651 19.4606C2.01972 17.905 2.16437 14.2136 2.16437 12.4944C2.16437 10.7753 2.02508 7.07861 2.64651 5.52822C3.06437 4.49463 3.87329 3.69834 4.92865 3.28174C6.50901 2.66475 10.259 2.80713 12.0054 2.80713C13.7519 2.80713 17.5072 2.67002 19.0822 3.28174C20.1322 3.69307 20.9412 4.48936 21.3644 5.52822C21.9911 7.08389 21.8465 10.7753 21.8465 12.4944C21.8465 14.2136 21.9911 17.9103 21.3644 19.4606Z" fill="#C02100"/>
</svg>
