<svg width="24" height="24" viewBox="0 0 24 24" fill="none" xmlns="http://www.w3.org/2000/svg">
<path d="M11.586 5.26588C13.4183 5.26588 15.1448 6.07813 16.41 7.34788V7.35163C16.41 6.74188 16.8203 6.28063 17.3873 6.28063H17.5313C18.426 6.28063 18.6053 7.12438 18.6053 7.39063L18.609 16.8669C18.5468 17.4879 19.2503 17.8089 19.641 17.4099C21.1598 15.8476 22.98 9.37063 18.6953 5.62063C14.6993 2.12038 9.33601 2.69863 6.48451 4.66363C3.45376 6.75763 1.51651 11.3829 3.39826 15.7299C5.45326 20.4691 11.328 21.8829 14.8245 20.4729C16.5945 19.7581 17.4105 22.1476 15.5708 22.9299C12.798 24.1126 5.07076 23.9919 1.46176 17.7421C-0.976488 13.5204 -0.847488 6.09388 5.62201 2.24638C10.5668 -0.698873 17.091 0.117127 21.024 4.22338C25.134 8.52013 24.8963 16.5594 20.8838 19.6846C19.0665 21.1059 16.368 19.7236 16.3875 17.6529L16.3673 16.9779C15.102 18.2311 13.4183 18.9661 11.586 18.9661C7.96126 18.9661 4.77001 15.7741 4.77001 12.1531C4.77001 8.49313 7.96126 5.26738 11.586 5.26738V5.26588ZM16.1453 11.8914C16.008 9.23863 14.0393 7.64113 11.6603 7.64113H11.5703C8.82826 7.64113 7.30501 9.80113 7.30501 12.2499C7.30501 14.9956 9.14476 16.7296 11.559 16.7296C14.2538 16.7296 16.023 14.7579 16.152 12.4254L16.1453 11.8914Z" fill="#C02100"/>
</svg>
