<svg width="24" height="24" viewBox="0 0 24 24" fill="none" xmlns="http://www.w3.org/2000/svg">
<path d="M3.37726 0C1.50646 0 0 1.50646 0 3.37726V20.6228C0 22.4936 1.50646 24 3.37726 24H20.6228C22.4936 24 24 22.4936 24 20.6228V3.37726C24 1.50646 22.4936 0 20.6228 0H3.37726ZM12.5378 2.45251C15.2614 2.45251 17.4758 4.66781 17.4758 7.39126C17.4758 10.1145 15.2614 12.3285 12.5378 12.3285C9.81408 12.3285 7.59826 10.1145 7.59826 7.39126C7.59826 4.66781 9.81406 2.45251 12.5378 2.45251ZM12.4853 5.34602C11.382 5.3741 10.4925 6.28164 10.4925 7.39128C10.4925 8.51806 11.4103 9.43502 12.5378 9.43502C13.665 9.43502 14.5815 8.51806 14.5815 7.39128C14.5815 6.26405 13.665 5.34602 12.5378 5.34602C12.5202 5.34602 12.5028 5.34557 12.4853 5.34602ZM8.44874 12.4965C8.71034 12.4974 8.97427 12.5694 9.21226 12.7193C11.2337 13.9904 13.8396 13.9912 15.8618 12.7193C16.5388 12.2929 17.4312 12.4976 17.8575 13.1745C18.2834 13.8504 18.0788 14.7439 17.4023 15.1695C16.5202 15.7239 15.5508 16.1253 14.535 16.3568L17.2965 19.1183C17.8618 19.6824 17.8618 20.5993 17.2965 21.1643C16.7309 21.7295 15.8159 21.7295 15.2513 21.1643L12.5363 18.4508L9.82426 21.1643C9.54185 21.4468 9.17129 21.588 8.80126 21.588C8.43084 21.588 8.06153 21.4464 7.77826 21.1643C7.21303 20.599 7.2132 19.6836 7.77826 19.1183L10.5383 16.3568C9.53318 16.1276 8.56339 15.7299 7.67026 15.1695C6.99504 14.7439 6.792 13.8513 7.218 13.1745C7.48349 12.7515 7.932 12.5125 8.39626 12.4973C8.41375 12.4967 8.43126 12.4965 8.44877 12.4965H8.44874Z" fill="#C02100"/>
</svg>
