<svg width="24" height="24" viewBox="0 0 24 24" fill="none" xmlns="http://www.w3.org/2000/svg">
<path d="M12.0157 0C5.39473 0 0.0277252 5.367 0.0277252 11.988C0.0277252 17.0662 3.18823 21.402 7.64848 23.148C7.54273 22.1985 7.44898 20.7458 7.68748 19.7108C7.90648 18.7733 9.09373 13.7535 9.09373 13.7535C9.09373 13.7535 8.73448 13.0305 8.73448 11.9722C8.73448 10.308 9.70347 9.06225 10.9027 9.06225C11.9265 9.06225 12.4222 9.828 12.4222 10.7498C12.4222 11.7773 11.7697 13.3162 11.43 14.742C11.145 15.9338 12.0277 16.9058 13.2037 16.9058C15.333 16.9058 16.9732 14.6595 16.9732 11.4172C16.9732 8.5575 14.9107 6.54975 11.9655 6.54975C8.55523 6.54975 6.55498 9.1125 6.55498 11.7487C6.55498 12.78 6.94948 13.8892 7.44598 14.487C7.54348 14.6077 7.55548 14.7135 7.52773 14.835C7.43773 15.21 7.23448 16.0343 7.19548 16.1985C7.14073 16.4212 7.02373 16.4677 6.79348 16.3627C5.30098 15.6712 4.35972 13.4835 4.35972 11.718C4.35972 7.941 7.10997 4.464 12.282 4.464C16.4385 4.464 19.6725 7.4325 19.6725 11.3857C19.6725 15.5227 17.067 18.8505 13.4422 18.8505C12.2272 18.8505 11.0865 18.2213 10.6845 17.4713L9.93448 20.319C9.66523 21.3622 8.93023 22.6702 8.43448 23.4637C9.55948 23.8072 10.743 23.9993 11.985 23.9993C18.5947 23.9993 23.9692 18.636 23.9692 12.0112C23.9692 5.39025 18.594 0.027 11.985 0.027L12.0157 0Z" fill="#C02100"/>
</svg>
