<svg width="110" height="114" viewBox="0 0 110 114" fill="none" xmlns="http://www.w3.org/2000/svg">
<path d="M96.2496 43.0989V34.5001H98.1246C98.6219 34.5001 99.0988 34.3026 99.4504 33.951C99.8021 33.5993 99.9996 33.1224 99.9996 32.6252V25.1252C99.9996 24.6279 99.8021 24.151 99.4504 23.7993C99.0988 23.4477 98.6219 23.2502 98.1246 23.2502H74.5258L60.0621 8.78453C60.4291 8.03416 60.6214 7.21044 60.6246 6.37515C60.6334 5.58894 60.4773 4.80962 60.1664 4.08746C59.8554 3.3653 59.3965 2.71635 58.8193 2.18248C58.2421 1.64862 57.5593 1.24169 56.8151 0.987969C56.0709 0.734244 55.2818 0.639355 54.4987 0.709423C53.7155 0.779491 52.9558 1.01296 52.2685 1.39477C51.5811 1.77657 50.9815 2.29824 50.5082 2.92609C50.0349 3.55395 49.6985 4.27406 49.5207 5.03995C49.3429 5.80584 49.3276 6.6005 49.4759 7.37265L33.5984 23.2502H11.8746C11.3773 23.2502 10.9004 23.4477 10.5488 23.7993C10.1971 24.151 9.9996 24.6279 9.9996 25.1252V32.6252C9.9996 33.1224 10.1971 33.5993 10.5488 33.951C10.9004 34.3026 11.3773 34.5001 11.8746 34.5001H13.7496V43.0989L1.17397 55.6745C0.822466 56.0261 0.625 56.503 0.625 57.0001C0.625 57.4973 0.822466 57.9742 1.17397 58.3258L13.7496 70.9014V79.5001H9.9996C9.50232 79.5001 9.0254 79.6977 8.67377 80.0493C8.32214 80.4009 8.1246 80.8779 8.1246 81.3751V88.8751C8.1246 89.3724 8.32214 89.8493 8.67377 90.201C9.0254 90.5526 9.50232 90.7501 9.9996 90.7501H11.8746V113.25H15.6246V90.7501H19.3746V113.25H23.1246V90.7501H26.8746V113.25H30.6246V90.7501H34.3746V113.25H38.1246V90.7501H41.8746V113.25H45.6246V90.7501H49.3746V113.25H53.1246V90.7501H56.8746V113.25H60.6246V90.7501H64.3746V113.25H68.1246V90.7501H71.8746V113.25H75.6246V90.7501H79.3746V113.25H83.1246V90.7501H86.8746V113.25H90.6246V90.7501H94.3746V113.25H98.1246V90.7501H99.9996C100.497 90.7501 100.974 90.5526 101.325 90.201C101.677 89.8493 101.875 89.3724 101.875 88.8751V81.3751C101.875 80.8779 101.677 80.4009 101.325 80.0493C100.974 79.6977 100.497 79.5001 99.9996 79.5001H96.2496V70.9014L108.825 58.3258C109.177 57.9742 109.374 57.4973 109.374 57.0001C109.374 56.503 109.177 56.0261 108.825 55.6745L96.2496 43.0989ZM92.4996 43.0989L83.1246 52.4739V45.7501H84.9996C85.4969 45.7501 85.9738 45.5526 86.3254 45.201C86.6771 44.8493 86.8746 44.3724 86.8746 43.8751V34.5001H92.4996V43.0989ZM83.1246 72.0001V79.5001H79.3746V72.0001H83.1246ZM77.4996 68.2501C77.0023 68.2501 76.5254 68.4477 76.1738 68.7993C75.8221 69.1509 75.6246 69.6279 75.6246 70.1251V79.5001H69.9996V70.9014L79.3746 61.5264V68.2501H77.4996ZM43.7496 79.5001V70.9014L53.1246 61.5264V68.2501H51.2496C50.7523 68.2501 50.2754 68.4477 49.9238 68.7993C49.5721 69.1509 49.3746 69.6279 49.3746 70.1251V79.5001H43.7496ZM30.6246 72.0001V79.5001H26.8746V72.0001H30.6246ZM32.4996 68.2501H30.6246V61.5264L39.9996 70.9014V79.5001H34.3746V70.1251C34.3746 69.6279 34.1771 69.1509 33.8254 68.7993C33.4738 68.4477 32.9969 68.2501 32.4996 68.2501ZM26.8746 42.0001V34.5001H30.6246V42.0001H26.8746ZM32.4996 45.7501C32.9969 45.7501 33.4738 45.5526 33.8254 45.201C34.1771 44.8493 34.3746 44.3724 34.3746 43.8751V34.5001H39.9996V43.0989L30.6246 52.4739V45.7501H32.4996ZM66.2496 34.5001V43.0989L56.8746 52.4739V45.7501H58.7496C59.2469 45.7501 59.7238 45.5526 60.0754 45.201C60.4271 44.8493 60.6246 44.3724 60.6246 43.8751V34.5001H66.2496ZM79.3746 42.0001V34.5001H83.1246V42.0001H79.3746ZM77.4996 45.7501H79.3746V52.4739L69.9996 43.0989V34.5001H75.6246V43.8751C75.6246 44.3724 75.8221 44.8493 76.1738 45.201C76.5254 45.5526 77.0023 45.7501 77.4996 45.7501ZM68.1246 67.4739L57.6509 57.0001L68.1246 46.5264L78.5983 57.0001L68.1246 67.4739ZM56.8746 42.0001H53.1246V34.5001H56.8746V42.0001ZM51.2496 45.7501H53.1246V52.4739L43.7496 43.0989V34.5001H49.3746V43.8751C49.3746 44.3724 49.5721 44.8493 49.9238 45.201C50.2754 45.5526 50.7523 45.7501 51.2496 45.7501ZM41.8746 67.4739L31.4008 57.0001L41.8746 46.5264L52.3484 57.0001L41.8746 67.4739ZM53.1246 72.0001H56.8746V79.5001H53.1246V72.0001ZM58.7496 68.2501H56.8746V61.5264L66.2496 70.9014V79.5001H60.6246V70.1251C60.6246 69.6279 60.4271 69.1509 60.0754 68.7993C59.7238 68.4477 59.2469 68.2501 58.7496 68.2501ZM54.9996 4.50015C55.3704 4.50015 55.7329 4.61012 56.0413 4.81615C56.3496 5.02218 56.59 5.31501 56.7319 5.65762C56.8738 6.00023 56.9109 6.37723 56.8386 6.74095C56.7662 7.10466 56.5877 7.43876 56.3254 7.70098C56.0632 7.9632 55.7291 8.14178 55.3654 8.21413C55.0017 8.28647 54.6247 8.24934 54.2821 8.10743C53.9395 7.96551 53.6466 7.72519 53.4406 7.41685C53.2346 7.10851 53.1246 6.74599 53.1246 6.37515C53.1246 5.87787 53.3221 5.40096 53.6738 5.04933C54.0254 4.6977 54.5023 4.50015 54.9996 4.50015ZM51.4484 10.7027C52.2625 11.3921 53.2603 11.8288 54.3192 11.959C55.3781 12.0893 56.452 11.9074 57.409 11.4358L69.2215 23.2483H38.9008L51.4484 10.7027ZM13.7496 27.0001H96.2496V30.7502H13.7496V27.0001ZM23.1246 34.5001V43.8751C23.1246 44.3724 23.3221 44.8493 23.6738 45.201C24.0254 45.5526 24.5023 45.7501 24.9996 45.7501H26.8746V52.4739L17.4996 43.0989V34.5001H23.1246ZM15.6246 46.5264L26.0984 57.0001L15.6246 67.4739L5.15085 57.0001L15.6246 46.5264ZM17.4996 70.9014L26.8746 61.5264V68.2501H24.9996C24.5023 68.2501 24.0254 68.4477 23.6738 68.7993C23.3221 69.1509 23.1246 69.6279 23.1246 70.1251V79.5001H17.4996V70.9014ZM98.1246 87.0001H11.8746V83.2501H98.1246V87.0001ZM86.8746 79.5001V70.1251C86.8746 69.6279 86.6771 69.1509 86.3254 68.7993C85.9738 68.4477 85.4969 68.2501 84.9996 68.2501H83.1246V61.5264L92.4996 70.9014V79.5001H86.8746ZM94.3746 67.4739L83.9008 57.0001L94.3746 46.5264L104.848 57.0001L94.3746 67.4739Z" fill="black"/>
</svg>
