<svg width="120" height="120" viewBox="0 0 120 120" fill="none" xmlns="http://www.w3.org/2000/svg">
<path d="M117.656 30.9375H91.875V19.2188C91.875 17.9245 90.8255 16.875 89.5312 16.875H62.3438V2.34375C62.3438 1.04953 61.2942 0 60 0H2.34375C1.0493 0 0 1.04953 0 2.34375V89.5312C0 90.8255 1.0493 91.875 2.34375 91.875H29.5312V103.594C29.5312 104.888 30.5805 105.938 31.875 105.938H59.0625V117.656C59.0625 118.95 60.112 120 61.4062 120H78.9844C80.2786 120 81.3281 118.95 81.3281 117.656C81.3281 116.362 80.2786 115.312 78.9844 115.312H63.75V93.7165C64.683 94.9064 65.6372 96.4713 66.4362 97.7822C68.88 101.792 71.4068 105.938 75.4688 105.938C79.5307 105.938 82.0575 101.792 84.5013 97.7822C86.0208 95.2891 88.1018 91.875 89.5312 91.875C90.9607 91.875 93.0417 95.2891 94.5612 97.7822C97.005 101.792 99.5318 105.938 103.594 105.938C107.656 105.938 110.183 101.792 112.626 97.7822C113.425 96.4713 114.379 94.9064 115.312 93.7165V115.312H100.078C98.7839 115.312 97.7344 116.362 97.7344 117.656C97.7344 118.95 98.7839 120 100.078 120H117.656C118.95 120 120 118.95 120 117.656V33.2812C120 31.987 118.95 30.9375 117.656 30.9375ZM59.0625 59.0625H34.2188V42.6562H59.0625V59.0625ZM34.2188 63.75H59.0625V80.1562H34.2188V63.75ZM63.75 51.529C64.683 52.7189 65.6372 54.2838 66.4362 55.5947C68.88 59.6044 71.4068 63.75 75.4688 63.75C79.5307 63.75 82.0575 59.6044 84.5013 55.5947C86.0208 53.1016 88.1018 49.6875 89.5312 49.6875C90.9607 49.6875 93.0417 53.1016 94.5612 55.5947C97.005 59.6044 99.5318 63.75 103.594 63.75C107.656 63.75 110.183 59.6044 112.626 55.5947C113.425 54.2838 114.379 52.7189 115.312 51.529V66.5937C112.549 67.8115 110.56 71.0719 108.624 74.2488C107.104 76.7421 105.023 80.1562 103.594 80.1562C102.164 80.1562 100.083 76.7421 98.5638 74.2491C96.12 70.2394 93.5932 66.0938 89.5312 66.0938C85.4693 66.0938 82.9425 70.2394 80.4987 74.2491C78.9792 76.7421 76.8982 80.1562 75.4688 80.1562C74.0393 80.1562 71.9583 76.7421 70.4388 74.2491C68.5024 71.0721 66.513 67.8117 63.75 66.5939V51.529ZM115.312 45.4999C112.549 46.7177 110.56 49.9781 108.624 53.1551C107.104 55.6484 105.023 59.0625 103.594 59.0625C102.164 59.0625 100.083 55.6484 98.5638 53.1553C96.12 49.1456 93.5932 45 89.5312 45C85.4693 45 82.9425 49.1456 80.4987 53.1553C78.9792 55.6484 76.8982 59.0625 75.4688 59.0625C74.0393 59.0625 71.9583 55.6484 70.4388 53.1553C68.5024 49.9784 66.513 46.718 63.75 45.5002V35.625H115.312V45.4999ZM87.1875 30.9375H61.4062C60.112 30.9375 59.0625 31.987 59.0625 33.2812V37.9688H34.2188V21.5625H87.1875V30.9375ZM4.6875 87.1875V4.6875H57.6562V16.875H31.875C30.5805 16.875 29.5312 17.9245 29.5312 19.2188V87.1875H4.6875ZM34.2188 101.25V84.8438H59.0625V101.25H34.2188ZM108.624 95.3428C107.104 97.8359 105.023 101.25 103.594 101.25C102.164 101.25 100.083 97.8359 98.5638 95.3428C96.12 91.3331 93.5932 87.1875 89.5312 87.1875C85.4693 87.1875 82.9425 91.3331 80.4987 95.3428C78.9792 97.8359 76.8982 101.25 75.4688 101.25C74.0393 101.25 71.9583 97.8359 70.4388 95.3428C68.5024 92.1659 66.513 88.9055 63.75 87.6877V72.623C64.683 73.8129 65.6372 75.3778 66.4362 76.6887C68.88 80.6981 71.4068 84.8438 75.4688 84.8438C79.5307 84.8438 82.0575 80.6981 84.5013 76.6884C86.0208 74.1954 88.1018 70.7812 89.5312 70.7812C90.9607 70.7812 93.0417 74.1954 94.5612 76.6884C97.005 80.6981 99.5318 84.8438 103.594 84.8438C107.656 84.8438 110.183 80.6981 112.626 76.6884C113.425 75.3776 114.379 73.8127 115.312 72.6227V87.6874C112.549 88.9055 110.56 92.1656 108.624 95.3428Z" fill="black"/>
</svg>
