<svg width="116" height="120" viewBox="0 0 116 120" fill="none" xmlns="http://www.w3.org/2000/svg">
<path d="M114.507 58.3545C111.293 57.147 110.352 54.8545 109.16 51.9525C108.336 49.9439 107.412 47.6993 105.576 45.7308C108.712 41.4263 110.347 36.1985 110.197 30.8297C110.18 30.2374 109.866 29.6932 109.362 29.3824C108.375 28.7747 107.326 28.2302 106.245 27.7645C105.353 27.3806 104.319 27.7924 103.935 28.6838C103.551 29.5755 103.963 30.6096 104.854 30.9935C105.481 31.2635 106.095 31.564 106.687 31.8909C106.61 36.0773 105.268 40.1234 102.844 43.5129C101.324 42.5808 99.4095 41.8024 96.9598 41.2669V39.237C96.9598 38.1741 96.3884 37.181 95.4619 36.6413L93.7036 35.6259C94.4647 33.2358 94.7473 31.188 94.7 29.4047C95.6286 29.3142 96.5642 29.2866 97.4965 29.3238C98.4624 29.3623 99.2843 28.6078 99.3232 27.6377C99.3621 26.6677 98.6072 25.8499 97.6371 25.811C96.4721 25.7644 95.3028 25.8056 94.1433 25.9291C93.3561 23.3573 91.8755 21.4359 90.549 19.7189C88.6308 17.2364 87.1161 15.2754 87.6783 11.887C87.7983 11.1645 87.4578 10.4433 86.8236 10.077C86.1898 9.71086 85.3946 9.77602 84.8286 10.2408C82.1747 12.4212 79.7187 12.0895 76.6097 11.67C74.4584 11.3796 72.0528 11.0578 69.4304 11.6634C67.2722 6.79547 63.5623 2.76539 58.8354 0.210938C58.3142 -0.0703125 57.6861 -0.0703125 57.1643 0.210938C52.4391 2.76211 48.7296 6.78984 46.5711 11.6569C45.57 11.4281 44.5325 11.3154 43.4464 11.3154C43.4391 11.3154 43.4314 11.3154 43.4236 11.3154C42.4529 11.3168 41.667 12.105 41.6684 13.0758C41.6698 14.0459 42.4564 14.831 43.4262 14.831H43.4499C44.502 14.831 45.6554 14.9449 46.9245 15.4198C46.9482 15.4296 46.9709 15.4409 46.9953 15.4498C47.0082 15.4545 47.0211 15.4573 47.0339 15.4617C48.4182 15.9994 49.94 16.9716 51.6193 18.697L42.949 23.703C41.345 23.2041 39.8532 22.7236 38.7886 22.1955C37.9686 21.7887 37.0064 21.8191 36.2161 22.2764C35.4261 22.7337 34.9212 23.5516 34.8654 24.4603C34.7902 25.6458 34.4607 27.1772 34.0911 28.815L25.4166 33.8236C24.7847 31.6059 24.6689 29.8331 24.8921 28.3212C24.9026 28.279 24.9136 28.237 24.9214 28.1937C24.9324 28.1311 24.9396 28.0685 24.9439 28.0064C25.3943 25.5457 26.757 23.778 28.2326 21.8681C29.7584 19.893 31.4358 17.7216 31.8561 14.7166C32.8744 15.1289 33.9495 15.3736 35.0956 15.457C36.0645 15.528 36.9061 14.7996 36.9762 13.8314C37.0463 12.8632 36.3188 12.0211 35.3504 11.9508C33.7568 11.835 32.468 11.3077 31.171 10.2415C30.6054 9.77648 29.8097 9.71086 29.1757 10.077C28.5413 10.4433 28.2007 11.1645 28.3207 11.887C28.883 15.2754 27.3682 17.2362 25.4501 19.7189C24.1231 21.4366 22.6418 23.3587 21.8548 25.932C16.5579 25.368 11.2121 26.5662 6.63801 29.3822C6.13316 29.693 5.8191 30.2372 5.80246 30.8299C5.65176 36.1985 7.28723 41.4265 10.4234 45.731C8.58754 47.6995 7.66293 49.9441 6.83863 51.9527C5.64754 54.8548 4.70652 57.1472 1.49207 58.3547C0.806524 58.6123 0.352539 59.2678 0.352539 60.0002C0.352539 60.7327 0.806758 61.3882 1.49207 61.6458C4.70652 62.8533 5.64731 65.1457 6.83863 68.0477C7.66316 70.0563 8.58754 72.3009 10.4236 74.2695C7.28746 78.574 5.65199 83.8017 5.80246 89.1703C5.8191 89.763 6.13316 90.3073 6.63801 90.618C10.4787 92.9822 14.8639 94.211 19.3081 94.211C20.1528 94.211 20.9996 94.1609 21.8454 94.0716C21.916 94.301 21.9919 94.5288 22.0756 94.7552C22.3376 95.4652 23.0096 95.9046 23.7246 95.9046C23.9267 95.9046 24.1325 95.8695 24.3336 95.7954C25.2441 95.4591 25.7098 94.4482 25.3735 93.5374C24.5942 91.4264 24.604 89.0527 25.4187 86.1778L34.0915 91.1855C34.4614 92.8233 34.7909 94.3542 34.8654 95.5357C34.9212 96.4486 35.4263 97.2666 36.2164 97.7238C36.6373 97.9673 37.1063 98.0899 37.5769 98.0899C37.9906 98.0899 38.405 97.9952 38.7884 97.8052C39.8534 97.2771 41.3452 96.7966 42.9493 96.2977L51.6211 101.305C50.0211 102.957 48.5475 103.943 47.1305 104.507C47.0853 104.52 47.0403 104.532 46.9955 104.549C46.9332 104.571 46.8736 104.598 46.8155 104.626C44.461 105.465 42.2501 105.169 39.8597 104.846C37.3859 104.512 34.6655 104.145 31.8514 105.285C31.545 103.099 30.5951 101.417 29.6965 100.104C29.1486 99.3023 28.055 99.0968 27.2532 99.645C26.4518 100.193 26.2465 101.287 26.7947 102.088C28.0149 103.872 28.7414 105.58 28.321 108.113C28.201 108.836 28.5415 109.557 29.1757 109.924C29.4493 110.081 29.7525 110.159 30.0546 110.159C30.4529 110.159 30.8489 110.024 31.1707 109.759C33.8248 107.579 36.2806 107.911 39.3896 108.33C41.5409 108.62 43.9465 108.942 46.5689 108.337C48.7271 113.205 52.437 117.235 57.1639 119.789C57.4245 119.93 57.7121 120 57.9994 120C58.2868 120 58.5743 119.93 58.835 119.789C63.5618 117.235 67.2718 113.205 69.4299 108.337C72.0523 108.942 74.4579 108.621 76.6093 108.33C79.7187 107.911 82.1738 107.579 84.8281 109.759C85.1499 110.024 85.546 110.159 85.9442 110.159C86.2463 110.159 86.5496 110.081 86.8231 109.924C87.4573 109.557 87.7979 108.836 87.6779 108.113C87.1156 104.725 88.6303 102.764 90.5485 100.282C91.8753 98.5641 93.3565 96.642 94.1436 94.0692C94.9939 94.1597 95.8454 94.2103 96.6954 94.2103C101.137 94.2101 105.521 92.982 109.361 90.6183C109.865 90.3075 110.179 89.7633 110.196 89.1705C110.347 83.802 108.711 78.574 105.575 74.2695C107.411 72.3009 108.336 70.0563 109.16 68.0477C110.351 65.1457 111.292 62.8533 114.507 61.6458C115.192 61.3882 115.646 60.7327 115.646 60.0002C115.646 59.2678 115.192 58.612 114.507 58.3545ZM73.6001 92.7869C67.2896 90.8309 60.1906 88.6298 59.3696 80.5713C61.9918 80.3984 64.4815 79.7334 66.7472 78.6673L70.7201 85.549C71.0457 86.1129 71.6365 86.4281 72.244 86.4281C72.5421 86.4281 72.8447 86.3522 73.1213 86.1923C73.962 85.707 74.25 84.6319 73.7646 83.7912L69.7889 76.9048C71.6665 75.5913 73.3161 73.9734 74.6656 72.1233C75.428 72.4889 76.1759 72.7849 76.9088 73.016C81.3591 77.6941 79.8933 84.1734 78.5932 89.9048C78.2487 91.4231 77.9192 92.8765 77.7401 94.192C76.5125 93.6898 75.0884 93.2482 73.6001 92.7869ZM57.9996 100.927L47.4399 94.8302C51.4041 93.3902 55.538 91.2888 58.0018 87.3588C60.4765 91.279 64.6423 93.3973 68.5632 94.8291L57.9996 100.927ZM44.0965 69.9415L48.3225 67.5023C50.2254 69.9513 53.0335 71.6618 56.2416 72.1249V77.0126C51.244 76.4998 46.8807 73.8237 44.0965 69.9415ZM22.5551 80.4645V68.2706C25.7843 70.984 29.6714 73.5136 34.3083 73.6795C32.1502 77.7841 32.3989 82.452 33.1193 86.5638L22.5551 80.4645ZM37.2715 69.8677C30.9947 71.3822 26.1176 66.8735 21.8046 62.8828C20.6616 61.8251 19.5675 60.8128 18.5178 60C19.5673 59.1879 20.6621 58.1747 21.8061 57.1162C21.8787 57.0492 22.036 56.9039 22.0416 56.8983C26.8322 52.4684 32.2296 47.6353 39.5011 50.9013C38.3911 53.149 37.6791 55.6266 37.4571 58.242H29.5114C28.5403 58.242 27.7536 59.029 27.7536 59.9998C27.7536 60.9705 28.5403 61.7576 29.5114 61.7576H37.4571C37.6554 64.0945 38.2446 66.3216 39.1599 68.3728C38.4638 68.8498 37.8371 69.3492 37.2715 69.8677ZM56.2418 42.9877V47.8753C53.1029 48.3284 50.3466 49.9755 48.4468 52.3402L44.2123 49.8961C47.0007 46.1013 51.3136 43.493 56.2418 42.9877ZM55.215 20.6803C55.2223 20.6763 55.2291 20.6721 55.2361 20.6681L57.9996 19.0725L68.5596 25.1695C64.5959 26.6093 60.4629 28.7105 57.9996 32.6398C55.5364 28.7105 51.4034 26.6093 47.4399 25.1695L55.215 20.6803ZM77.7403 25.8082C77.9192 27.1226 78.2489 28.5771 78.5935 30.0966C80.0546 36.5409 81.6989 43.7911 75.1264 48.5327C73.6986 46.4074 71.8859 44.5617 69.7892 43.0952L73.7649 36.2088C74.2503 35.3681 73.9622 34.293 73.1215 33.8077C72.2801 33.322 71.2055 33.6103 70.7204 34.451L66.7475 41.3327C64.482 40.2668 61.9925 39.6019 59.3703 39.4289C59.4378 38.757 59.5477 38.1157 59.7024 37.5129C59.7033 37.5091 59.7047 37.5054 59.7057 37.5014C61.3784 31.0031 67.8704 28.9901 73.5987 27.2142C75.087 26.7525 76.5118 26.3109 77.7403 25.8082ZM93.4442 39.5355V51.7301C90.2147 49.0167 86.3274 46.488 81.6903 46.3216C83.8491 42.2168 83.6004 37.5483 82.88 33.4359L93.4442 39.5355ZM59.7575 77.0123V72.1247C62.9656 71.6616 65.7736 69.9511 67.6765 67.5021L71.9025 69.9412C69.1186 73.8237 64.7553 76.4998 59.7575 77.0123ZM40.8971 60C40.8971 57.4788 41.45 55.0856 42.4336 52.9287L46.6592 55.3676C46.073 56.7977 45.747 58.3613 45.747 60C45.747 61.568 46.0463 63.0666 46.5854 64.4459L42.3514 66.8897C41.419 64.7803 40.8971 62.4506 40.8971 60ZM49.2629 60C49.2629 55.1822 53.1823 51.2627 57.9996 51.2627C62.817 51.2627 66.7365 55.1822 66.7365 60C66.7365 64.8178 62.8172 68.7373 57.9996 68.7373C53.1821 68.7373 49.2629 64.8178 49.2629 60ZM71.787 49.8961L67.5525 52.3402C65.6527 49.9753 62.8962 48.3284 59.7575 47.8753V42.9877C64.6857 43.493 68.9986 46.1013 71.787 49.8961ZM73.6479 66.8897L69.4137 64.4459C69.9528 63.0666 70.2521 61.568 70.2521 60C70.2521 58.3613 69.9263 56.7975 69.3399 55.3676L73.5654 52.9287C74.5493 55.0856 75.102 57.4788 75.102 60C75.1022 62.4506 74.5803 64.7803 73.6479 66.8897ZM34.3071 46.3226C29.6738 46.5052 25.7555 49.054 22.5549 51.7338V39.5353L33.1158 33.4376C32.3806 37.5916 32.134 42.2231 34.3071 46.3226ZM81.6917 73.6772C86.3253 73.4946 90.2436 70.9458 93.4444 68.2657V80.4645L82.8842 86.5612C83.6192 82.4072 83.8657 77.7757 81.6917 73.6772ZM94.1932 62.8837C94.1206 62.9508 93.9633 63.0961 93.9577 63.1017C89.1671 67.5316 83.7696 72.3647 76.4982 69.0987C77.6082 66.851 78.3202 64.3734 78.5422 61.758H86.4879C87.4589 61.758 88.2457 60.971 88.2457 60.0002C88.2457 59.0295 87.4589 58.2424 86.4879 58.2424H78.5422C78.3439 55.9055 77.7546 53.6784 76.8394 51.6272C77.5355 51.1505 78.1625 50.651 78.7278 50.1326C85.0053 48.6188 89.8817 53.1267 94.1946 57.1172C95.3377 58.1749 96.4318 59.1872 97.4815 60C96.432 60.8121 95.3372 61.8253 94.1932 62.8837ZM76.1393 15.1542C78.6122 15.488 81.3305 15.8552 84.143 14.7176C84.5635 17.722 86.2407 19.8933 87.7664 21.8681C89.2421 23.7783 90.6047 25.5459 91.0552 28.0069C91.0596 28.0704 91.0667 28.1341 91.0782 28.1984C91.0864 28.245 91.0971 28.2905 91.1089 28.3355C91.3292 29.8441 91.2122 31.613 90.5822 33.8236L81.9075 28.815C81.5377 27.1772 81.2082 25.6463 81.1336 24.4648C81.0779 23.5519 80.5728 22.7339 79.7827 22.2766C78.9919 21.8191 78.0303 21.7889 77.2107 22.1955C76.1457 22.7236 74.6541 23.2043 73.0498 23.7033L64.3779 18.6963C65.9733 17.0487 67.4431 16.0634 68.8564 15.4987C68.9056 15.4856 68.9546 15.4702 69.0033 15.4526C69.0657 15.4298 69.1254 15.4036 69.1833 15.3748C71.5383 14.5355 73.7489 14.8315 76.1393 15.1542ZM49.8619 12.9019C51.5853 9.11461 54.4151 5.93555 57.9992 3.7807C61.5886 5.94047 64.4218 9.12633 66.1442 12.9197C64.5767 13.7707 62.9457 15.0396 61.257 16.8938L59.4966 15.8773C58.5732 15.3443 57.4254 15.3445 56.502 15.8775L54.7472 16.8907C53.1521 15.1305 51.5459 13.8127 49.8619 12.9019ZM38.2587 25.808C39.4871 26.3107 40.9121 26.7525 42.4008 27.214C48.0134 28.954 54.3561 30.9241 56.1837 37.1152C56.015 37.8738 55.8987 38.6695 55.8345 39.4955C53.5036 39.7399 51.2876 40.3748 49.2521 41.3325L45.2792 34.4508C44.794 33.6101 43.7182 33.322 42.878 33.8074C42.0373 34.2928 41.7493 35.3679 42.2346 36.2086L46.2104 43.095C44.333 44.4082 42.6839 46.0256 41.3346 47.8753C40.5706 47.5088 39.8218 47.2141 39.0872 46.9828C34.6416 42.303 36.1067 35.8254 37.4063 30.0949C37.7504 28.5769 38.0799 27.1235 38.2587 25.808ZM21.2991 29.4056C21.252 31.1887 21.5346 33.236 22.2954 35.6257L20.5308 36.6445C19.6107 37.1808 19.0393 38.1738 19.0393 39.2367V41.2666C16.5896 41.8024 14.6752 42.5808 13.1546 43.5127C10.7311 40.1229 9.38863 36.0769 9.31199 31.8902C12.976 29.8627 17.1507 29.0016 21.2991 29.4056ZM5.71105 60C8.10215 58.1334 9.14371 55.5956 10.0911 53.2873C11.0147 51.0366 11.87 48.9574 13.808 47.3311C13.8439 47.3053 13.8818 47.2845 13.9161 47.2556C13.951 47.2263 13.9831 47.1949 14.0152 47.1635C15.2126 46.2162 16.805 45.4315 19.039 44.8706V54.8862C17.805 56.0257 16.6435 57.0766 15.6568 57.7329C14.8929 58.2387 14.4371 59.0862 14.4371 60C14.4371 60.9138 14.8929 61.7613 15.6537 62.2652C16.6432 62.9234 17.805 63.9748 19.0388 65.1143V75.1294C16.8047 74.5687 15.2124 73.7841 14.015 72.8365C13.9829 72.8051 13.9507 72.7737 13.9158 72.7444C13.8664 72.7027 13.8148 72.6649 13.7623 72.6295C11.8568 71.0091 11.0072 68.9454 10.0908 66.7127C9.14371 64.4041 8.10215 61.8666 5.71105 60ZM21.2834 90.5977C17.1401 90.9966 12.9706 90.1348 9.31199 88.1095C9.3884 83.9229 10.7311 79.8769 13.1546 76.4871C14.6754 77.4192 16.5896 78.1976 19.0393 78.7331V80.763C19.0393 81.8259 19.6107 82.819 20.5371 83.3587L22.2936 84.3729C21.567 86.6367 21.2309 88.6882 21.2834 90.5977ZM38.2589 94.1918C38.0801 92.8774 37.7504 91.4229 37.4058 89.9034C35.9447 83.4591 34.3004 76.2089 40.8729 71.4673C42.3007 73.5926 44.1134 75.4383 46.2101 76.9048L42.2344 83.7912C41.749 84.6319 42.0371 85.707 42.8778 86.1923C43.1548 86.3522 43.4569 86.4281 43.755 86.4281C44.3625 86.4281 44.9534 86.1127 45.2789 85.549L49.2518 78.6673C51.2869 79.6247 53.5022 80.2596 55.8324 80.5041C55.8971 81.3466 56.0164 82.1407 56.183 82.8907C54.3521 89.077 48.0118 91.0462 42.4006 92.7858C40.9123 93.2475 39.4875 93.6891 38.2589 94.1918ZM57.9996 116.219C54.4107 114.059 51.5775 110.873 49.8551 107.08C51.4226 106.229 53.0536 104.96 54.7423 103.106L56.5027 104.123C56.9644 104.389 57.4819 104.522 57.9999 104.522C58.5176 104.522 59.0356 104.389 59.4975 104.122L61.2577 103.106C62.9461 104.96 64.5774 106.229 66.1447 107.08C64.4218 110.873 61.5886 114.059 57.9996 116.219ZM87.7667 98.1319C86.2409 100.107 84.5637 102.278 84.1432 105.282C81.3307 104.145 78.6118 104.512 76.1396 104.846C73.7489 105.169 71.5381 105.464 69.1838 104.625C69.1259 104.597 69.0661 104.571 69.004 104.548C68.9593 104.532 68.9143 104.519 68.8693 104.506C67.4522 103.943 65.9787 102.956 64.3786 101.304L73.051 96.2974C74.6548 96.7964 76.1464 97.2769 77.2107 97.8042C77.5943 97.9945 78.0089 98.0892 78.4226 98.0892C78.8932 98.0892 79.3625 97.9666 79.7832 97.7231C80.5732 97.2659 81.0781 96.4479 81.1339 95.5392C81.2091 94.3535 81.5389 92.8216 81.9087 91.1831L90.5825 86.1757C91.2146 88.3938 91.3304 90.1669 91.107 91.6788C91.0964 91.7208 91.0854 91.7625 91.0779 91.8059C91.0669 91.8684 91.0596 91.931 91.0554 91.9931C90.605 94.4543 89.2423 96.2217 87.7667 98.1319ZM94.7002 90.5944C94.7473 88.8112 94.4647 86.764 93.7039 84.3741L95.4685 83.3552C96.3886 82.819 96.96 81.8259 96.96 80.763V78.7331C99.4097 78.1973 101.324 77.419 102.845 76.4871C105.268 79.8769 106.611 83.9229 106.687 88.1095C103.024 90.1373 98.8484 90.9984 94.7002 90.5944ZM105.908 66.7127C104.992 68.9454 104.142 71.0091 102.237 72.6295C102.184 72.6647 102.133 72.7027 102.083 72.7444C102.048 72.7737 102.016 72.8051 101.984 72.8365C100.786 73.7838 99.1941 74.5685 96.96 75.1294V65.1138C98.194 63.9743 99.3556 62.9234 100.342 62.2671C101.106 61.7613 101.562 60.9138 101.562 60C101.562 59.0862 101.106 58.2387 100.345 57.7348C99.3558 57.0766 98.194 56.0252 96.9603 54.8857V44.8706C99.1943 45.4312 100.787 46.2159 101.984 47.1635C102.016 47.1949 102.048 47.2263 102.083 47.2556C102.118 47.2845 102.156 47.3053 102.192 47.3311C104.13 48.9572 104.985 51.0366 105.908 53.287C106.856 55.5954 107.897 58.1332 110.288 59.9998C107.897 61.8666 106.856 64.4041 105.908 66.7127Z" fill="black"/>
</svg>
