<svg width="30" height="30" viewBox="0 0 30 30" fill="none" xmlns="http://www.w3.org/2000/svg">
<g clip-path="url(#clip0)">
<path d="M27.1875 3.74998H2.81252C1.2616 3.74998 0 5.01158 0 6.5625V23.4375C0 24.9884 1.2616 26.25 2.81252 26.25H27.1875C28.7384 26.25 30 24.9884 30 23.4375V6.5625C30 5.01158 28.7384 3.74998 27.1875 3.74998ZM27.1875 5.62497C27.3149 5.62497 27.436 5.6514 27.5468 5.69755L15 16.572L2.45313 5.69755C2.56391 5.65146 2.68508 5.62497 2.81246 5.62497H27.1875ZM27.1875 24.375H2.81252C2.29525 24.375 1.87499 23.9548 1.87499 23.4374V7.67851L14.3857 18.5211C14.5624 18.674 14.7812 18.75 15 18.75C15.2188 18.75 15.4376 18.674 15.6143 18.5211L28.125 7.67851V23.4375C28.1249 23.9548 27.7047 24.375 27.1875 24.375Z" fill="#999999"/>
</g>
<defs>
<clipPath id="clip0">
<rect width="30" height="30" fill="white"/>
</clipPath>
</defs>
</svg>
