<svg width="16" height="16" viewBox="0 0 16 16" fill="none" xmlns="http://www.w3.org/2000/svg">
<path d="M14.7566 6.30358C15.0463 6.02117 15.1486 5.6067 15.0236 5.22192C14.8986 4.83714 14.5722 4.56198 14.1718 4.50383L10.6709 3.99511C10.6022 3.98514 10.5428 3.94199 10.512 3.87967L8.94636 0.707328C8.76733 0.344516 8.40477 0.119141 8.00018 0.119141C7.59558 0.119141 7.23302 0.344516 7.05399 0.707328L5.48833 3.8797C5.45755 3.94198 5.39818 3.98514 5.32943 3.99514L1.82855 4.50383C1.42818 4.56198 1.10183 4.83714 0.97677 5.22192C0.851707 5.6067 0.95402 6.02117 1.24377 6.30358L3.77705 8.77292C3.82677 8.82142 3.84949 8.89127 3.83774 8.95974L3.23971 12.4465C3.17133 12.8453 3.33214 13.2407 3.65946 13.4785C3.98677 13.7164 4.41264 13.7471 4.77071 13.5589L7.90199 11.9126C7.96349 11.8803 8.03689 11.8803 8.09843 11.9126L11.2297 13.5589C11.3855 13.6407 11.554 13.6812 11.7217 13.6812C11.9396 13.6812 12.156 13.6129 12.3409 13.4785C12.6682 13.2406 12.8291 12.8452 12.7606 12.4465L12.1626 8.9597C12.1509 8.89124 12.1736 8.82139 12.2233 8.77289L14.7566 6.30358ZM11.3307 9.10245L11.9287 12.5893C11.9487 12.706 11.8767 12.7725 11.8448 12.7956C11.8129 12.8188 11.7273 12.8668 11.6226 12.8117L8.49124 11.1655C8.33752 11.0847 8.16889 11.0442 8.00024 11.0442C7.83158 11.0442 7.66293 11.0847 7.50924 11.1654L4.37796 12.8116C4.27314 12.8667 4.18761 12.8187 4.15571 12.7956C4.1238 12.7724 4.05174 12.7059 4.07177 12.5892L4.6698 9.10245C4.72852 8.76011 4.61511 8.41099 4.36633 8.16852L1.83305 5.69917C1.74827 5.61649 1.76746 5.52033 1.77968 5.48283C1.79183 5.4453 1.83286 5.3562 1.95002 5.3392L5.45086 4.83048C5.79458 4.78055 6.09161 4.5648 6.24536 4.25327L7.81102 1.08089C7.86343 0.974734 7.9608 0.963266 8.00027 0.963266C8.03968 0.963266 8.13705 0.974703 8.18949 1.08089V1.08092L9.75515 4.2533C9.90886 4.56483 10.2059 4.78058 10.5496 4.83052L14.0505 5.33923C14.1676 5.35623 14.2086 5.44533 14.2208 5.48286C14.233 5.52039 14.2522 5.61658 14.1674 5.6992L11.6341 8.16855C11.3854 8.41099 11.272 8.76011 11.3307 9.10245Z" fill="#F2B138"/>
<path d="M12.9307 0.707579C12.7421 0.570579 12.4782 0.612391 12.3412 0.800954L11.8931 1.41758C11.7561 1.60614 11.7979 1.87011 11.9865 2.00711C12.0615 2.06152 12.1483 2.08773 12.2343 2.08773C12.3648 2.08773 12.4935 2.02739 12.576 1.91377L13.0241 1.29714C13.1611 1.10855 13.1193 0.844579 12.9307 0.707579Z" fill="#F2B138"/>
<path d="M4.10512 1.41461L3.65709 0.79798C3.52012 0.609479 3.25618 0.567667 3.06756 0.704604C2.87899 0.841605 2.83718 1.10557 2.97418 1.29414L3.42221 1.91076C3.50481 2.02448 3.6335 2.08479 3.76406 2.08479C3.85009 2.08479 3.9369 2.05858 4.01178 2.00414C4.20034 1.86717 4.24215 1.6032 4.10512 1.41461Z" fill="#F2B138"/>
<path d="M1.54849 9.58861C1.47646 9.36696 1.23837 9.24561 1.01665 9.31764L0.291744 9.55321C0.070025 9.62524 -0.0512563 9.86339 0.0207749 10.0851C0.0787124 10.2635 0.244181 10.3768 0.422087 10.3768C0.465306 10.3768 0.509275 10.3701 0.552619 10.356L1.27752 10.1205C1.49921 10.0484 1.62052 9.81033 1.54849 9.58861Z" fill="#F2B138"/>
<path d="M15.7082 9.55319L14.9833 9.31762C14.7617 9.24565 14.5235 9.3669 14.4514 9.58862C14.3794 9.81034 14.5007 10.0484 14.7224 10.1205L15.4473 10.356C15.4907 10.3701 15.5346 10.3768 15.5778 10.3768C15.7558 10.3768 15.9212 10.2634 15.9792 10.085C16.0512 9.86331 15.9299 9.62522 15.7082 9.55319Z" fill="#F2B138"/>
</svg>
