<svg width="30" height="30" viewBox="0 0 30 30" fill="none" xmlns="http://www.w3.org/2000/svg">
<path d="M10.9314 13.7063C11.6383 13.7063 12.2113 13.1449 12.2113 12.4523C12.2113 11.7597 11.6383 11.1982 10.9314 11.1982C10.2246 11.1982 9.65161 11.7597 9.65161 12.4523C9.65161 13.1449 10.2246 13.7063 10.9314 13.7063Z" fill="#6A823D"/>
<path d="M19.062 18.7958C19.7689 18.7958 20.3419 18.2343 20.3419 17.5417C20.3419 16.8492 19.7689 16.2877 19.062 16.2877C18.3552 16.2877 17.7822 16.8492 17.7822 17.5417C17.7822 18.2343 18.3552 18.7958 19.062 18.7958Z" fill="#6A823D"/>
<path d="M29.6146 16.6567L29.1503 16.0358C28.6484 15.3596 28.6359 14.4437 29.1315 13.7552L29.5832 13.1282C30.2733 12.1692 29.9534 10.8353 28.8931 10.2759L28.203 9.91319C27.4501 9.51977 27.0361 8.69604 27.1804 7.86617L27.3121 7.11006C27.5129 5.95439 26.6283 4.88477 25.43 4.8356L24.6458 4.80486C23.7926 4.76798 23.0523 4.20243 22.8139 3.39715L22.5943 2.65949C22.2618 1.5284 20.9945 0.944415 19.8903 1.4116L19.1689 1.71282C18.3847 2.04476 17.4687 1.84805 16.8978 1.22104L16.3771 0.649349C15.5803 -0.223554 14.1813 -0.217407 13.3908 0.673938L12.8764 1.25177C12.3117 1.88494 11.402 2.09394 10.6116 1.77429L9.8838 1.47922C8.77336 1.03048 7.51862 1.63905 7.19866 2.77013L6.99163 3.51395C6.76578 4.32538 6.03803 4.90321 5.1848 4.94625L4.40059 4.98928C3.20232 5.05689 2.33655 6.1388 2.55613 7.29448L2.70042 8.05058C2.85726 8.87431 2.45575 9.70418 1.70918 10.1099L1.02534 10.4849C-0.0223625 11.0566 -0.3235 12.3967 0.385428 13.3433L0.849681 13.9642C1.35158 14.6404 1.36412 15.5563 0.868502 16.2448L0.416796 16.8718C-0.27331 17.8308 0.0466481 19.1647 1.1069 19.7241L1.79701 20.0868C2.54985 20.4802 2.96392 21.304 2.81962 22.1338L2.68787 22.8899C2.48712 24.0456 3.37171 25.1152 4.56998 25.1644L5.35419 25.1951C6.20742 25.232 6.94771 25.7976 7.18611 26.6028L7.40569 27.3405C7.7382 28.4716 9.00548 29.0556 10.1097 28.5884L10.8311 28.2872C11.6153 27.9552 12.5313 28.1519 13.1022 28.779L13.6229 29.3507C14.426 30.2236 15.825 30.2174 16.6092 29.3261L17.1236 28.7482C17.6883 28.1151 18.598 27.9061 19.3885 28.2257L20.1162 28.5208C21.2266 28.9695 22.4814 28.361 22.8013 27.2299L23.0084 26.4861C23.2342 25.6746 23.962 25.0968 24.8152 25.0538L25.5994 25.0107C26.7977 24.9431 27.6635 23.8612 27.4439 22.7055L27.2996 21.9494C27.1427 21.1257 27.5443 20.2958 28.2908 19.8901L28.9747 19.5151C30.0224 18.9496 30.3235 17.6095 29.6146 16.6567ZM7.83858 12.452C7.83858 10.7799 9.21879 9.42756 10.9252 9.42756C12.6317 9.42756 14.0119 10.7799 14.0119 12.452C14.0119 14.124 12.6317 15.4764 10.9252 15.4764C9.21879 15.4764 7.83858 14.1179 7.83858 12.452ZM11.5212 20.2528C11.2577 20.5663 10.7809 20.6093 10.461 20.3511C10.141 20.093 10.0971 19.6258 10.3606 19.3123L18.4599 9.75336C18.7234 9.43985 19.2002 9.39682 19.5202 9.65501C19.8402 9.91319 19.8841 10.3804 19.6206 10.6939L11.5212 20.2528ZM19.0622 20.5663C17.3558 20.5663 15.9756 19.2139 15.9756 17.5419C15.9756 15.8698 17.3558 14.5174 19.0622 14.5174C20.7687 14.5174 22.1489 15.8698 22.1489 17.5419C22.1489 19.2139 20.7687 20.5663 19.0622 20.5663Z" fill="#6A823D"/>
</svg>
