<svg width="36" height="36" viewBox="0 0 36 36" fill="none" xmlns="http://www.w3.org/2000/svg">
<path d="M6.57338 0C2.93202 0 0 2.93202 0 6.57338V29.4267C0 33.068 2.93202 36 6.57338 36H18.9597V21.9263H15.2382V16.8593H18.9597V12.5303C18.9597 9.12917 21.1585 6.00638 26.2238 6.00638C28.2746 6.00638 29.7911 6.20327 29.7911 6.20327L29.6719 10.935C29.6719 10.935 28.1252 10.9204 26.4375 10.9204C24.6109 10.9204 24.318 11.762 24.318 13.1592V16.8593H29.817L29.5774 21.9263H24.318V36.0001H29.4266C33.068 36.0001 36 33.0681 36 29.4267V6.57342C36 2.93206 33.068 3.6e-05 29.4266 3.6e-05H6.57335L6.57338 0Z" fill="#C02100"/>
</svg>
