<svg width="36" height="36" viewBox="0 0 36 36" fill="none" xmlns="http://www.w3.org/2000/svg">
<path d="M18.0082 9.15276C12.8975 9.15276 8.77517 13.2107 8.77517 18.2415C8.77517 23.2724 12.8975 27.3303 18.0082 27.3303C23.1189 27.3303 27.2412 23.2724 27.2412 18.2415C27.2412 13.2107 23.1189 9.15276 18.0082 9.15276ZM18.0082 24.1504C14.7055 24.1504 12.0055 21.5005 12.0055 18.2415C12.0055 14.9825 14.6975 12.3326 18.0082 12.3326C21.3189 12.3326 24.0109 14.9825 24.0109 18.2415C24.0109 21.5005 21.3109 24.1504 18.0082 24.1504ZM29.7725 8.78098C29.7725 9.9596 28.8082 10.9009 27.6189 10.9009C26.4216 10.9009 25.4653 9.95168 25.4653 8.78098C25.4653 7.61028 26.4296 6.66106 27.6189 6.66106C28.8082 6.66106 29.7725 7.61028 29.7725 8.78098ZM35.8877 10.9325C35.7511 8.0928 35.0921 5.57737 32.9787 3.50491C30.8734 1.43245 28.318 0.783814 25.4332 0.641431C22.46 0.475317 13.5484 0.475317 10.5752 0.641431C7.69838 0.775903 5.14302 1.42454 3.02963 3.497C0.916239 5.56946 0.265346 8.08489 0.120703 10.9246C-0.0480469 13.8514 -0.0480469 22.6238 0.120703 25.5505C0.25731 28.3903 0.916239 30.9057 3.02963 32.9782C5.14302 35.0506 7.69035 35.6992 10.5752 35.8416C13.5484 36.0077 22.46 36.0077 25.4332 35.8416C28.318 35.7072 30.8734 35.0585 32.9787 32.9782C35.0841 30.9057 35.743 28.3903 35.8877 25.5505C36.0564 22.6238 36.0564 13.8593 35.8877 10.9325ZM32.0466 28.6908C31.4198 30.2412 30.2064 31.4357 28.6234 32.0606C26.2528 32.9861 20.6278 32.7725 18.0082 32.7725C15.3886 32.7725 9.75552 32.9782 7.39302 32.0606C5.81802 31.4436 4.60463 30.2491 3.96981 28.6908C3.02963 26.3573 3.2466 20.8202 3.2466 18.2415C3.2466 15.6628 3.03767 10.1178 3.96981 7.79221C4.5966 6.24182 5.80999 5.04739 7.39302 4.42249C9.76356 3.497 15.3886 3.71057 18.0082 3.71057C20.6278 3.71057 26.2609 3.50491 28.6234 4.42249C30.1984 5.03948 31.4118 6.23391 32.0466 7.79221C32.9868 10.1257 32.7698 15.6628 32.7698 18.2415C32.7698 20.8202 32.9868 26.3653 32.0466 28.6908Z" fill="#C02100"/>
</svg>
