<svg width="30" height="28" viewBox="0 0 30 28" fill="none" xmlns="http://www.w3.org/2000/svg">
<path fill-rule="evenodd" clip-rule="evenodd" d="M14.9999 3.5C14.4905 2.91326 13.8967 2.40093 13.2416 1.9736C11.7939 1.02926 10.0468 0.5 8.24988 0.5C3.62988 0.5 -0.00012207 4.06076 -0.00012207 8.59264C-0.00012207 10.2029 0.383491 11.732 1.04062 13.1868C3.07878 17.7029 7.74852 21.5139 11.7681 24.7944C12.9254 25.7389 14.0287 26.6393 14.9999 27.5C15.971 26.6393 17.0744 25.7389 18.2316 24.7944C22.2512 21.514 26.9208 17.703 28.959 13.187C29.6162 11.7322 29.9999 10.203 29.9999 8.59264C29.9999 4.06076 26.3699 0.5 21.7499 0.5C19.953 0.5 18.2059 1.02926 16.7582 1.9736C16.103 2.40093 15.5092 2.91326 14.9999 3.5ZM14.9999 23.5549C15.4841 23.1536 15.979 22.749 16.4731 22.3449C16.8917 22.0027 17.3097 21.6609 17.7202 21.322C19.3635 19.9654 20.9719 18.587 22.3962 17.1425C24.1588 15.355 25.4688 13.6345 26.2317 11.9363C26.7348 10.8151 26.9999 9.70449 26.9999 8.59264C26.9999 5.77182 24.7677 3.5 21.7499 3.5C19.9672 3.5 18.3037 4.27059 17.2653 5.46667L14.9999 8.07626L12.7344 5.46667C11.6961 4.27059 10.0325 3.5 8.24988 3.5C5.23201 3.5 2.99988 5.77182 2.99988 8.59264C2.99988 9.70449 3.26499 10.8151 3.76808 11.9363C4.53092 13.6345 5.84091 15.355 7.60352 17.1425C9.02783 18.587 10.6363 19.9654 12.2795 21.322C12.69 21.6609 13.108 22.0027 13.5266 22.3449C14.0208 22.749 14.5157 23.1536 14.9999 23.5549Z" fill="#C02100"/>
</svg>
