<svg width="36" height="36" viewBox="0 0 36 36" fill="none" xmlns="http://www.w3.org/2000/svg">
<path d="M17.3789 7.89888C20.1273 7.89888 22.7171 9.11725 24.6149 11.0219V11.0275C24.6149 10.1129 25.2303 9.421 26.0808 9.421H26.2968C27.6389 9.421 27.9078 10.6866 27.9078 11.086L27.9134 25.3004C27.8201 26.2319 28.8753 26.7134 29.4614 26.1149C31.7396 23.7715 34.4699 14.056 28.0428 8.431C22.0488 3.18063 14.0039 4.048 9.72668 6.9955C5.18056 10.1365 2.27468 17.0744 5.09731 23.5949C8.17981 30.7038 16.9919 32.8244 22.2367 30.7094C24.8917 29.6373 26.1157 33.2215 23.3561 34.3949C19.1969 36.169 7.60606 35.9879 2.19256 26.6133C-1.46482 20.2806 -1.27132 9.14088 8.43293 3.36963C15.8501 -1.04825 25.6364 0.175752 31.5359 6.33513C37.7009 12.7803 37.3443 24.8391 31.3256 29.527C28.5997 31.6589 24.5519 29.5855 24.5812 26.4794L24.5508 25.4669C22.6529 27.3468 20.1273 28.4493 17.3789 28.4493C11.9418 28.4493 7.15493 23.6613 7.15493 18.2298C7.15493 12.7398 11.9418 7.90113 17.3789 7.90113V7.89888ZM24.2178 17.8371C24.0119 13.858 21.0588 11.4618 17.4903 11.4618H17.3553C13.2423 11.4618 10.9574 14.7018 10.9574 18.3749C10.9574 22.4935 13.7171 25.0945 17.3384 25.0945C21.3806 25.0945 24.0344 22.1369 24.2279 18.6381L24.2178 17.8371Z" fill="#C02100"/>
</svg>
