<svg width="24" height="16" viewBox="0 0 24 16" fill="none" xmlns="http://www.w3.org/2000/svg">
<path d="M1.11674 0.679895C0.500184 0.679895 0 1.17981 0 1.79664V14.6352C0 15.2519 0.500256 15.7519 1.11674 15.7519H22.8833C23.4998 15.7519 24 15.252 24 14.6351V1.79661C24 1.17989 23.4998 0.679871 22.8833 0.679871H1.11672L1.11674 0.679895ZM7.86974 2.49415C9.23969 2.49415 10.4979 2.97077 11.4855 3.76689C10.6546 4.51039 10.0348 5.48721 9.729 6.59441H10.2083C10.4905 5.68101 11.0032 4.8678 11.679 4.22289C12.3548 4.8678 12.8675 5.68101 13.1497 6.59441H13.6365C13.3265 5.49305 12.7058 4.52205 11.8755 3.78341C12.865 2.97717 14.1282 2.49413 15.504 2.49413C18.679 2.49413 21.2527 5.06817 21.2527 8.24364C21.2527 11.4191 18.679 13.9931 15.504 13.9931C14.1053 13.9931 12.8227 13.4939 11.826 12.6634C12.7176 11.8877 13.3749 10.8479 13.6755 9.6649H13.2067C12.9398 10.6578 12.4026 11.5409 11.679 12.2314C10.9554 11.5409 10.4189 10.6578 10.152 9.6649H9.70572C10.0081 10.8307 10.6568 11.856 11.535 12.6244C10.5401 13.4446 9.26256 13.9376 7.86972 13.9376C4.69476 13.9376 2.121 11.376 2.121 8.21589C2.121 5.05581 4.69476 2.49415 7.86974 2.49415ZM15.0727 6.53589C14.382 6.53589 13.71 7.13978 13.71 8.27364C13.71 9.02551 14.073 9.52164 14.787 9.52164C14.9889 9.52171 15.3105 9.43915 15.3105 9.43915L15.417 8.78215C15.417 8.78215 15.1235 8.93064 14.922 8.93064C14.4976 8.93064 14.3273 8.60421 14.3273 8.25341C14.3273 7.54173 14.6924 7.15013 15.099 7.15013C15.4039 7.15013 15.6487 7.32264 15.6487 7.32264L15.7463 6.68364C15.7463 6.68364 15.3838 6.53589 15.0727 6.53589H15.0727ZM20.88 6.59141L20.2793 6.5929L20.1503 7.38341C20.1503 7.38341 19.9244 7.07664 19.5713 7.07664C19.0221 7.07664 18.5647 7.72896 18.5647 8.47915C18.5647 8.9634 18.8082 9.43838 19.3073 9.43838C19.6662 9.43838 19.8653 9.19166 19.8653 9.19166L19.839 9.40238H20.4225L20.88 6.59141ZM3.67349 6.59964L3.195 9.41738H3.77174L4.13626 7.29266L4.19026 9.41738H4.60274L5.37226 7.29266L5.031 9.41738H5.64374L6.11626 6.59964H5.16826L4.578 8.32838L4.54726 6.59966H3.67351L3.67349 6.59964ZM9.699 6.78264C9.68597 6.79572 9.35026 8.73161 9.35026 8.96738C9.35026 9.31649 9.54593 9.47241 9.82126 9.46989C10.0185 9.46821 10.1713 9.41865 10.242 9.39789C10.2494 9.3959 10.2637 9.3919 10.2637 9.3919L10.338 8.88789C10.2976 8.88789 10.2382 8.90515 10.1857 8.90515C9.98018 8.90515 9.95741 8.79578 9.97049 8.71464L10.1363 7.68641H10.449L10.5247 7.12913H10.23L10.29 6.78264H9.699ZM16.6703 7.06615C16.2677 7.06615 15.9593 7.19889 15.9593 7.19889L15.8737 7.71641C15.8737 7.71641 16.1285 7.61064 16.5135 7.61064C16.7321 7.61064 16.8922 7.63565 16.8922 7.81764C16.8922 7.92818 16.8727 7.96915 16.8727 7.96915C16.8727 7.96915 16.6999 7.95415 16.62 7.95415C16.1124 7.95415 15.579 8.17663 15.579 8.84589C15.579 9.37322 15.9291 9.49389 16.146 9.49389C16.5602 9.49389 16.7388 9.21873 16.7483 9.21789L16.7287 9.44741H17.2455L17.4765 7.79141C17.4766 7.08873 16.8781 7.06613 16.6703 7.06613V7.06615ZM6.97649 7.06915C6.57247 7.06915 6.26249 7.20189 6.26249 7.20189L6.177 7.71941C6.177 7.71941 6.4326 7.61364 6.819 7.61364C7.03841 7.61364 7.19926 7.63874 7.19926 7.82064C7.19926 7.93114 7.17974 7.97215 7.17974 7.97215C7.17974 7.97215 7.00639 7.95715 6.92626 7.95715C6.41666 7.95715 5.88151 8.17927 5.88151 8.84815C5.88151 9.37519 6.23234 9.49615 6.45 9.49615C6.8657 9.49615 7.04496 9.22097 7.05451 9.22015L7.035 9.44964H7.554L7.78574 7.79441C7.78574 7.09214 7.1851 7.06913 6.97649 7.06913V7.06915ZM8.80949 7.06915C8.37564 7.06915 7.935 7.24428 7.935 7.84241C7.935 8.52012 8.66926 8.45165 8.66926 8.73713C8.66926 8.92769 8.46434 8.94341 8.30626 8.94341C8.03266 8.94341 7.78663 8.84887 7.78574 8.85341L7.707 9.37089C7.72116 9.37529 7.87351 9.44364 8.36551 9.44364C8.49761 9.44364 9.25274 9.47719 9.25274 8.69064C9.25274 7.9553 8.55374 8.10106 8.55374 7.80564C8.55374 7.65857 8.66724 7.61215 8.87549 7.61215C8.95819 7.61215 9.27677 7.63841 9.27677 7.63841L9.35026 7.11564C9.35026 7.11571 9.1447 7.06915 8.80951 7.06915H8.80949ZM11.5215 7.06915C10.9186 7.06927 10.4723 7.71756 10.4723 8.44989C10.4723 9.29515 11.0315 9.49615 11.508 9.49615C11.9478 9.49615 12.1417 9.39789 12.1417 9.39789L12.2467 8.82115C12.2467 8.82115 11.9122 8.96815 11.61 8.96815C10.9662 8.96815 11.079 8.48889 11.079 8.48889H12.2977C12.2977 8.48889 12.3765 8.10158 12.3765 7.94364C12.3765 7.54956 12.1798 7.06915 11.5215 7.06915H11.5215ZM13.7048 7.09389C13.4332 7.09389 13.2315 7.45915 13.2315 7.45915L13.2855 7.12389H12.7215L12.3428 9.43841H12.966C13.1425 8.45004 13.1748 7.6475 13.596 7.79441C13.6697 7.41185 13.7413 7.26405 13.8217 7.10215C13.8217 7.10215 13.7839 7.09389 13.7047 7.09389H13.7048ZM18.7545 7.09389C18.4829 7.09389 18.2813 7.45915 18.2813 7.45915L18.3353 7.12389H17.7713L17.3925 9.43841H18.015C18.1916 8.45004 18.2246 7.6475 18.6457 7.79441C18.7196 7.41185 18.7911 7.26405 18.8715 7.10215C18.8715 7.10215 18.8337 7.09389 18.7545 7.09389H18.7545ZM11.5185 7.59115C11.8609 7.59115 11.7983 7.97765 11.7983 8.00889H11.124C11.124 7.96901 11.1878 7.59115 11.5185 7.59115H11.5185ZM19.6658 7.63615C19.8837 7.63608 19.9958 7.7833 19.9958 8.12964C19.9958 8.44389 19.8373 8.86389 19.509 8.86389C19.2911 8.86389 19.1887 8.68397 19.1887 8.4019C19.1887 7.94066 19.3998 7.63615 19.6657 7.63615H19.6658ZM16.671 8.42364C16.7599 8.42376 16.7783 8.4324 16.7933 8.43641C16.7911 8.43605 16.7907 8.43645 16.7993 8.43789C16.8105 8.54097 16.737 9.02441 16.3815 9.02441C16.1982 9.02441 16.1513 8.87866 16.1513 8.79264C16.1513 8.62493 16.2386 8.42364 16.671 8.42364ZM6.97726 8.42589C7.07822 8.42601 7.08924 8.43729 7.10626 8.44015C7.11754 8.54318 7.04371 9.0259 6.687 9.0259C6.50299 9.0259 6.45526 8.88084 6.45526 8.7949C6.45526 8.62728 6.5431 8.42589 6.97726 8.42589Z" fill="#E8E8E8"/>
</svg>
