<svg width="36" height="36" viewBox="0 0 36 36" fill="none" xmlns="http://www.w3.org/2000/svg">
<path d="M5.06588 0C2.25968 0 0 2.25968 0 5.06588V30.9342C0 33.7403 2.25968 36 5.06588 36H30.9342C33.7403 36 36 33.7403 36 30.9342V5.06588C36 2.25968 33.7403 0 30.9342 0H5.06588ZM18.8067 3.67877C22.8921 3.67877 26.2136 7.00171 26.2136 11.0869C26.2136 15.1717 22.8921 18.4928 18.8067 18.4928C14.7211 18.4928 11.3974 15.1717 11.3974 11.0869C11.3974 7.00171 14.7211 3.67877 18.8067 3.67877ZM18.7279 8.01904C17.073 8.06116 15.7388 9.42246 15.7388 11.0869C15.7388 12.7771 17.1154 14.1525 18.8067 14.1525C20.4976 14.1525 21.8723 12.7771 21.8723 11.0869C21.8723 9.39607 20.4975 8.01904 18.8067 8.01904C18.7802 8.01904 18.7542 8.01835 18.7279 8.01904ZM12.6731 18.7448C13.0655 18.7461 13.4614 18.8541 13.8184 19.0789C16.8506 20.9855 20.7595 20.9868 23.7927 19.0789C24.8082 18.4394 26.1467 18.7464 26.7863 19.7618C27.4251 20.7755 27.1182 22.1158 26.1034 22.7543C24.7803 23.5859 23.3262 24.188 21.8025 24.5352L25.9448 28.6775C26.7927 29.5237 26.7927 30.899 25.9448 31.7465C25.0964 32.5943 23.7238 32.5943 22.8769 31.7465L18.8044 27.6762L14.7364 31.7465C14.3128 32.1702 13.7569 32.3821 13.2019 32.3821C12.6463 32.3821 12.0923 32.1697 11.6674 31.7465C10.8195 30.8984 10.8198 29.5255 11.6674 28.6775L15.8074 24.5352C14.2998 24.1915 12.8451 23.5948 11.5054 22.7543C10.4926 22.1158 10.188 20.777 10.827 19.7618C11.2252 19.1272 11.898 18.7687 12.5944 18.7459C12.6206 18.7451 12.6469 18.7447 12.6732 18.7448H12.6731Z" fill="#C02100"/>
</svg>
