<svg width="24" height="16" viewBox="0 0 24 16" fill="none" xmlns="http://www.w3.org/2000/svg">
<path d="M7.76042 8.10417C7.76042 8.36111 7.67188 8.57465 7.49479 8.74479C7.31771 8.91493 7.10069 9 6.84375 9C6.64236 9 6.4809 8.94444 6.35938 8.83333C6.23785 8.72222 6.17708 8.56944 6.17708 8.375C6.17708 8.11806 6.26389 7.90104 6.4375 7.72396C6.61111 7.54688 6.82639 7.45833 7.08333 7.45833C7.27778 7.45833 7.43924 7.51562 7.56771 7.63021C7.69618 7.74479 7.76042 7.90278 7.76042 8.10417ZM15.9375 6.55208C15.9375 6.84375 15.8611 7.04167 15.7083 7.14583C15.5556 7.25 15.3264 7.30208 15.0208 7.30208L14.6875 7.3125L14.8646 6.19792C14.8785 6.12153 14.9236 6.08333 15 6.08333H15.1875C15.3403 6.08333 15.4618 6.09028 15.5521 6.10417C15.6424 6.11806 15.7292 6.16146 15.8125 6.23438C15.8958 6.30729 15.9375 6.41319 15.9375 6.55208ZM19.5938 8.10417C19.5938 8.35417 19.5052 8.56597 19.3281 8.73958C19.151 8.91319 18.9375 9 18.6875 9C18.4861 9 18.3229 8.94444 18.1979 8.83333C18.0729 8.72222 18.0104 8.56944 18.0104 8.375C18.0104 8.11806 18.0972 7.90104 18.2708 7.72396C18.4444 7.54688 18.6597 7.45833 18.9167 7.45833C19.1111 7.45833 19.2726 7.51562 19.401 7.63021C19.5295 7.74479 19.5938 7.90278 19.5938 8.10417ZM5.34375 6.32292C5.34375 5.91319 5.21007 5.61632 4.94271 5.43229C4.67535 5.24826 4.32639 5.15625 3.89583 5.15625H2.22917C2.09722 5.15625 2.02431 5.22222 2.01042 5.35417L1.33333 9.60417C1.32639 9.64583 1.33681 9.68403 1.36458 9.71875C1.39236 9.75347 1.42708 9.77083 1.46875 9.77083H2.26042C2.39931 9.77083 2.47569 9.70486 2.48958 9.57292L2.67708 8.42708C2.68403 8.37153 2.70833 8.32639 2.75 8.29167C2.79167 8.25694 2.84375 8.23438 2.90625 8.22396C2.96875 8.21354 3.02778 8.20833 3.08333 8.20833C3.13889 8.20833 3.20486 8.21181 3.28125 8.21875C3.35764 8.22569 3.40625 8.22917 3.42708 8.22917C4.02431 8.22917 4.49306 8.06076 4.83333 7.72396C5.17361 7.38715 5.34375 6.92014 5.34375 6.32292ZM8.5625 9.57292L8.98958 6.85417C8.99653 6.8125 8.98611 6.77431 8.95833 6.73958C8.93056 6.70486 8.89583 6.6875 8.85417 6.6875H8.0625C7.96528 6.6875 7.90625 6.80208 7.88542 7.03125C7.69792 6.75347 7.36806 6.61458 6.89583 6.61458C6.39583 6.61458 5.97049 6.80208 5.61979 7.17708C5.2691 7.55208 5.09375 7.99306 5.09375 8.5C5.09375 8.90972 5.21354 9.23611 5.45312 9.47917C5.69271 9.72222 6.01389 9.84375 6.41667 9.84375C6.61111 9.84375 6.8125 9.80208 7.02083 9.71875C7.22917 9.63542 7.39583 9.52431 7.52083 9.38542C7.49306 9.46875 7.47917 9.54167 7.47917 9.60417C7.47917 9.71528 7.52431 9.77083 7.61458 9.77083H8.33333C8.46528 9.77083 8.54167 9.70486 8.5625 9.57292ZM13.2188 6.83333C13.2188 6.79861 13.2049 6.76562 13.1771 6.73438C13.1493 6.70312 13.1181 6.6875 13.0833 6.6875H12.2812C12.2049 6.6875 12.1424 6.72222 12.0938 6.79167L10.9896 8.41667L10.5312 6.85417C10.4965 6.74306 10.4201 6.6875 10.3021 6.6875H9.52083C9.48611 6.6875 9.45486 6.70312 9.42708 6.73438C9.39931 6.76562 9.38542 6.79861 9.38542 6.83333C9.38542 6.84722 9.45312 7.05208 9.58854 7.44792C9.72396 7.84375 9.86979 8.27083 10.026 8.72917C10.1823 9.1875 10.2639 9.43056 10.2708 9.45833C9.70139 10.2361 9.41667 10.6528 9.41667 10.7083C9.41667 10.7986 9.46181 10.8438 9.55208 10.8438H10.3542C10.4306 10.8438 10.4931 10.809 10.5417 10.7396L13.1979 6.90625C13.2118 6.89236 13.2188 6.86806 13.2188 6.83333ZM17.1771 6.32292C17.1771 5.91319 17.0434 5.61632 16.776 5.43229C16.5087 5.24826 16.1597 5.15625 15.7292 5.15625H14.0729C13.934 5.15625 13.8576 5.22222 13.8438 5.35417L13.1667 9.60417C13.1597 9.64583 13.1701 9.68403 13.1979 9.71875C13.2257 9.75347 13.2604 9.77083 13.3021 9.77083H14.1562C14.2396 9.77083 14.2951 9.72569 14.3229 9.63542L14.5104 8.42708C14.5174 8.37153 14.5417 8.32639 14.5833 8.29167C14.625 8.25694 14.6771 8.23438 14.7396 8.22396C14.8021 8.21354 14.8611 8.20833 14.9167 8.20833C14.9722 8.20833 15.0382 8.21181 15.1146 8.21875C15.191 8.22569 15.2396 8.22917 15.2604 8.22917C15.8576 8.22917 16.3264 8.06076 16.6667 7.72396C17.0069 7.38715 17.1771 6.92014 17.1771 6.32292ZM20.3958 9.57292L20.8229 6.85417C20.8299 6.8125 20.8194 6.77431 20.7917 6.73958C20.7639 6.70486 20.7292 6.6875 20.6875 6.6875H19.8958C19.7986 6.6875 19.7396 6.80208 19.7188 7.03125C19.5382 6.75347 19.2083 6.61458 18.7292 6.61458C18.2292 6.61458 17.8038 6.80208 17.4531 7.17708C17.1024 7.55208 16.9271 7.99306 16.9271 8.5C16.9271 8.90972 17.0469 9.23611 17.2865 9.47917C17.526 9.72222 17.8472 9.84375 18.25 9.84375C18.4514 9.84375 18.6562 9.80208 18.8646 9.71875C19.0729 9.63542 19.2361 9.52431 19.3542 9.38542C19.3542 9.39236 19.3472 9.42361 19.3333 9.47917C19.3194 9.53472 19.3125 9.57639 19.3125 9.60417C19.3125 9.71528 19.3576 9.77083 19.4479 9.77083H20.1667C20.2986 9.77083 20.375 9.70486 20.3958 9.57292ZM22.6667 5.3125V5.30208C22.6667 5.20486 22.6215 5.15625 22.5312 5.15625H21.7604C21.684 5.15625 21.6389 5.19444 21.625 5.27083L20.9479 9.60417L20.9375 9.625C20.9375 9.65972 20.9514 9.69271 20.9792 9.72396C21.0069 9.75521 21.0417 9.77083 21.0833 9.77083H21.7708C21.9028 9.77083 21.9757 9.70486 21.9896 9.57292L22.6667 5.3125ZM4.08333 6.70833C4.04861 6.95139 3.95833 7.11111 3.8125 7.1875C3.66667 7.26389 3.45833 7.30208 3.1875 7.30208L2.84375 7.3125L3.02083 6.19792C3.03472 6.12153 3.07986 6.08333 3.15625 6.08333H3.35417C3.63194 6.08333 3.83333 6.12326 3.95833 6.20312C4.08333 6.28299 4.125 6.45139 4.08333 6.70833ZM24 1.33333V14.6667C24 15.0278 23.8681 15.3403 23.6042 15.6042C23.3403 15.8681 23.0278 16 22.6667 16H1.33333C0.972222 16 0.659722 15.8681 0.395833 15.6042C0.131944 15.3403 0 15.0278 0 14.6667V1.33333C0 0.972222 0.131944 0.659722 0.395833 0.395833C0.659722 0.131944 0.972222 0 1.33333 0H22.6667C23.0278 0 23.3403 0.131944 23.6042 0.395833C23.8681 0.659722 24 0.972222 24 1.33333Z" fill="#E8E8E8"/>
</svg>
