<svg width="36" height="36" viewBox="0 0 36 36" fill="none" xmlns="http://www.w3.org/2000/svg">
<path d="M18.0235 0C8.092 0 0.0415039 8.0505 0.0415039 17.982C0.0415039 25.5994 4.78225 32.103 11.4726 34.722C11.314 33.2977 11.1734 31.1186 11.5311 29.5661C11.8596 28.1599 13.6405 20.6302 13.6405 20.6302C13.6405 20.6302 13.1016 19.5457 13.1016 17.9584C13.1016 15.462 14.5551 13.5934 16.354 13.5934C17.8896 13.5934 18.6333 14.742 18.6333 16.1246C18.6333 17.6659 17.6545 19.9744 17.1449 22.113C16.7174 23.9006 18.0415 25.3586 19.8055 25.3586C22.9994 25.3586 25.4598 21.9893 25.4598 17.1259C25.4598 12.8362 22.366 9.82463 17.9481 9.82463C12.8328 9.82463 9.83238 13.6687 9.83238 17.6231C9.83238 19.17 10.4241 20.8339 11.1689 21.7305C11.3151 21.9116 11.3331 22.0703 11.2915 22.2525C11.1565 22.815 10.8516 24.0514 10.7931 24.2977C10.711 24.6319 10.5355 24.7016 10.1901 24.5441C7.95138 23.5069 6.5395 20.2253 6.5395 17.577C6.5395 11.9115 10.6649 6.696 18.4229 6.696C24.6576 6.696 29.5086 11.1488 29.5086 17.0786C29.5086 23.2841 25.6004 28.2758 20.1633 28.2758C18.3408 28.2758 16.6296 27.3319 16.0266 26.2069L14.9016 30.4785C14.4978 32.0434 13.3953 34.0054 12.6516 35.1956C14.3391 35.7109 16.1144 35.9989 17.9774 35.9989C27.892 35.9989 35.9538 27.954 35.9538 18.0169C35.9538 8.08537 27.8909 0.0405 17.9774 0.0405L18.0235 0Z" fill="#C02100"/>
</svg>
