<svg width="16" height="16" viewBox="0 0 16 16" fill="none" xmlns="http://www.w3.org/2000/svg">
<path d="M8.51827 0.321356L10.6774 4.69524L15.5054 5.39784C15.7229 5.42921 15.9038 5.58147 15.9717 5.7905C16.0397 5.99953 15.983 6.22901 15.8254 6.38232L12.3312 9.78423L13.156 14.5927C13.1931 14.8094 13.104 15.0283 12.9262 15.1575C12.7484 15.2868 12.5126 15.3038 12.318 15.2016L8.00035 12.9348L3.682 15.2037C3.48725 15.3055 3.25165 15.2881 3.07395 15.1588C2.89625 15.0295 2.80716 14.8107 2.84402 14.5941L3.66881 9.78839L0.174558 6.38648C0.0170467 6.23318 -0.0396726 6.00369 0.0282842 5.79466C0.096241 5.58564 0.277066 5.43338 0.494615 5.40201L5.32256 4.69594L7.48173 0.32205C7.57916 0.124952 7.77992 0.000147393 7.99978 1.3046e-07C8.21965 -0.000147132 8.42058 0.124389 8.51827 0.321356Z" fill="#F2B138"/>
</svg>
