<svg width="25" height="23" viewBox="0 0 25 23" fill="none" xmlns="http://www.w3.org/2000/svg">
<path d="M12.9203 0.482034L16.159 7.04287L23.401 8.09677C23.7273 8.14382 23.9985 8.3722 24.1005 8.68575C24.2024 8.99929 24.1173 9.34352 23.881 9.57347L18.6397 14.6763L19.8769 21.8891C19.9325 22.2141 19.7989 22.5425 19.5322 22.7363C19.2654 22.9301 18.9118 22.9557 18.6199 22.8024L12.1434 19.4022L5.66588 22.8055C5.37376 22.9582 5.02035 22.9321 4.75381 22.7382C4.48726 22.5443 4.35362 22.2161 4.40891 21.8912L5.6461 14.6826L0.40472 9.57972C0.168453 9.34977 0.0833744 9.00554 0.18531 8.692C0.287245 8.37845 0.558483 8.15007 0.884806 8.10301L8.12672 7.04391L11.3655 0.483075C11.5116 0.187428 11.8128 0.00022109 12.1426 1.95689e-07C12.4724 -0.000220699 12.7738 0.186583 12.9203 0.482034Z" fill="#FBE8C3"/>
</svg>
