<svg width="24" height="23" viewBox="0 0 24 23" fill="none" xmlns="http://www.w3.org/2000/svg">
<path d="M12.7774 0.482034L16.0162 7.04287L23.2581 8.09677C23.5844 8.14382 23.8556 8.3722 23.9576 8.68575C24.0595 8.99929 23.9744 9.34352 23.7382 9.57347L18.4968 14.6763L19.734 21.8891C19.7896 22.2141 19.656 22.5425 19.3893 22.7363C19.1225 22.9301 18.7689 22.9557 18.477 22.8024L12.0005 19.4022L5.523 22.8055C5.23087 22.9582 4.87747 22.9321 4.61092 22.7382C4.34438 22.5443 4.21074 22.2161 4.26603 21.8912L5.50321 14.6826L0.261837 9.57972C0.02557 9.34977 -0.0595089 9.00554 0.0424263 8.692C0.144361 8.37845 0.4156 8.15007 0.741923 8.10301L7.98383 7.04391L11.2226 0.483075C11.3687 0.187428 11.6699 0.00022109 11.9997 1.95689e-07C12.3295 -0.000220699 12.6309 0.186583 12.7774 0.482034Z" fill="#F2B138"/>
</svg>
