<svg width="24" height="16" viewBox="0 0 24 16" fill="none" xmlns="http://www.w3.org/2000/svg">
<path d="M20.5729 8.97917H19.1354C19.2326 8.72222 19.4618 8.10069 19.8229 7.11458L19.8542 7.02083C19.8819 6.95139 19.9167 6.86111 19.9583 6.75C20 6.63889 20.0312 6.54861 20.0521 6.47917L20.1771 7.05208L20.5729 8.97917ZM5.53125 8.30208L4.92708 5.22917C4.85069 4.85417 4.59028 4.66667 4.14583 4.66667H1.35417L1.33333 4.80208C3.49306 5.35069 4.89236 6.51736 5.53125 8.30208ZM7.39583 4.66667L5.70833 9.22917L5.53125 8.30208C5.35069 7.81597 5.05556 7.36632 4.64583 6.95312C4.23611 6.53993 3.78125 6.23264 3.28125 6.03125L4.6875 11.3438H6.51042L9.22917 4.66667H7.39583ZM8.84375 11.3542H10.5729L11.6562 4.66667H9.92708L8.84375 11.3542ZM16.8438 4.83333C16.3646 4.64583 15.8472 4.55208 15.2917 4.55208C14.4375 4.55208 13.7396 4.75694 13.1979 5.16667C12.6562 5.57639 12.3819 6.10764 12.375 6.76042C12.3681 7.46875 12.8715 8.07292 13.8854 8.57292C14.2188 8.73264 14.4514 8.875 14.5833 9C14.7153 9.125 14.7812 9.26042 14.7812 9.40625C14.7812 9.61458 14.6771 9.77431 14.4688 9.88542C14.2604 9.99653 14.0208 10.0521 13.75 10.0521C13.1528 10.0521 12.6111 9.9375 12.125 9.70833L11.8958 9.59375L11.6562 11.0938C12.1701 11.3299 12.8125 11.4479 13.5833 11.4479C14.4861 11.4549 15.2101 11.25 15.7552 10.8333C16.3003 10.4167 16.5799 9.86111 16.5938 9.16667C16.5938 8.43056 16.1076 7.82639 15.1354 7.35417C14.7951 7.18056 14.5486 7.03472 14.3958 6.91667C14.2431 6.79861 14.1667 6.66667 14.1667 6.52083C14.1667 6.36806 14.2517 6.23438 14.4219 6.11979C14.592 6.00521 14.8368 5.94792 15.1562 5.94792C15.6424 5.94097 16.0729 6.02431 16.4479 6.19792L16.6042 6.28125L16.8438 4.83333ZM21.2708 4.66667H19.9375C19.4861 4.66667 19.184 4.85417 19.0312 5.22917L16.4688 11.3542H18.2812L18.6458 10.3542H20.8542C20.8889 10.5069 20.9583 10.8403 21.0625 11.3542H22.6667L21.2708 4.66667ZM24 1.33333V14.6667C24 15.0278 23.8681 15.3403 23.6042 15.6042C23.3403 15.8681 23.0278 16 22.6667 16H1.33333C0.972222 16 0.659722 15.8681 0.395833 15.6042C0.131944 15.3403 0 15.0278 0 14.6667V1.33333C0 0.972222 0.131944 0.659722 0.395833 0.395833C0.659722 0.131944 0.972222 0 1.33333 0H22.6667C23.0278 0 23.3403 0.131944 23.6042 0.395833C23.8681 0.659722 24 0.972222 24 1.33333Z" fill="#E8E8E8"/>
</svg>
