<svg width="36" height="36" viewBox="0 0 36 36" fill="none" xmlns="http://www.w3.org/2000/svg">
<path d="M23.525 0H12.4741C2.38965 0 -0.000976562 2.39062 -0.000976562 12.4751V23.526C-0.000976562 33.6105 2.38965 36.0011 12.4741 36.0011H23.525C33.6095 36.0011 36.0001 33.6105 36.0001 23.526V12.4751C36.0001 2.39062 33.5859 0 23.525 0ZM29.0623 25.6815H26.4489C25.4589 25.6815 25.154 24.8962 23.3731 23.0917C21.8263 21.5921 21.1411 21.393 20.7598 21.393C20.2209 21.393 20.0679 21.5449 20.0679 22.284V24.6454C20.0679 25.2787 19.8688 25.659 18.1925 25.659C15.4205 25.659 12.3448 23.9827 10.1881 20.8597C6.93577 16.2833 6.0459 12.8554 6.0459 12.1466C6.0459 11.7653 6.19777 11.4086 6.93015 11.4086H9.54915C10.2118 11.4086 10.4638 11.7135 10.7214 12.4222C12.0163 16.1606 14.1729 19.4355 15.0628 19.4355C15.3913 19.4355 15.5431 19.2836 15.5431 18.4455V14.5845C15.443 12.8036 14.5059 12.6506 14.5059 12.0184C14.5059 11.7135 14.7579 11.4086 15.1618 11.4086H19.2804C19.8373 11.4086 20.042 11.7135 20.042 12.3694V17.5781C20.042 18.1406 20.294 18.3398 20.4459 18.3398C20.7744 18.3398 21.0556 18.1406 21.6643 17.5309C23.5453 15.4215 24.893 12.1691 24.893 12.1691C25.0685 11.7878 25.3734 11.4311 26.036 11.4311H28.655C29.4403 11.4311 29.6158 11.835 29.4403 12.3975C29.1118 13.9208 25.9066 18.4444 25.9066 18.4444C25.631 18.9011 25.5253 19.1003 25.9066 19.6099C26.1879 19.9912 27.1025 20.7821 27.7111 21.4909C28.8305 22.7621 29.6911 23.8286 29.9206 24.5666C30.1783 25.299 29.798 25.6804 29.0589 25.6804L29.0623 25.6815Z" fill="#C02100"/>
</svg>
