<svg width="16" height="16" viewBox="0 0 16 16" fill="none" xmlns="http://www.w3.org/2000/svg">
<path d="M14.221 5.76918L15.9084 4.0818C15.978 4.01234 16.0107 3.91408 15.9968 3.81679C15.983 3.7195 15.924 3.63429 15.8379 3.58693L13.8093 2.47304C13.6581 2.39003 13.4681 2.44533 13.385 2.59657C13.302 2.74794 13.3572 2.93788 13.5085 3.02089L15.1721 3.93434L13.724 5.38234L8.5156 2.52235L9.9636 1.07435L11.4273 1.87819C11.5786 1.96119 11.7687 1.90602 11.8517 1.75465C11.9348 1.60341 11.8795 1.41334 11.7281 1.33034L10.0588 0.413587C9.93699 0.346692 9.78562 0.368299 9.68747 0.466566L7.99997 2.15407L6.31247 0.466566C6.21421 0.368299 6.06284 0.346815 5.94114 0.413587L0.162083 3.58693C0.0759019 3.63429 0.0169419 3.71937 0.00314793 3.81679C-0.0107681 3.91408 0.0219468 4.01234 0.0915269 4.0818L1.7789 5.76918L0.0915269 7.45643C0.0219468 7.52601 -0.0107681 7.62416 0.00314793 7.72157C0.0169419 7.81886 0.0759019 7.90407 0.162083 7.95131L1.90842 8.91029V12.1156C1.90842 12.2297 1.97055 12.3347 2.07053 12.3897L7.84958 15.5629C7.89646 15.5886 7.94822 15.6015 7.99997 15.6015C8.05173 15.6015 8.10349 15.5886 8.15036 15.5629L13.9294 12.3897C14.0294 12.3347 14.0915 12.2297 14.0915 12.1156V8.91029L15.8379 7.95143C15.924 7.90407 15.983 7.81886 15.9968 7.72157C16.0107 7.62428 15.978 7.52601 15.9084 7.45656L14.221 5.76918ZM7.99997 8.58583L2.87021 5.76906L7.99997 2.95216L13.1297 5.76906L7.99997 8.58583ZM6.03647 1.07435L7.48435 2.52235L2.27597 5.38234L0.827977 3.93434L6.03647 1.07435ZM2.27622 6.1559L7.48459 9.01588L6.03647 10.464L0.827977 7.60402L2.27622 6.1559ZM13.4665 11.9308L8.31247 14.7609V11.5664C8.31247 11.3938 8.17258 11.2539 7.99997 11.2539C7.82737 11.2539 7.68747 11.3938 7.68747 11.5664V14.7609L2.53342 11.9308V9.25355L5.94114 11.1248C5.98838 11.1506 6.04013 11.1633 6.0914 11.1633C6.17234 11.1633 6.25242 11.1318 6.31247 11.0718L7.99997 9.38429L9.68747 11.0718C9.74753 11.132 9.82761 11.1633 9.90854 11.1633C9.95981 11.1633 10.0116 11.1506 10.0588 11.1248L13.4665 9.25355V11.9308ZM9.9636 10.464L8.51548 9.01576L13.7239 6.1559L15.1721 7.60389L9.9636 10.464Z" fill="white"/>
<path d="M12.6504 2.50537C12.7325 2.50537 12.8129 2.47192 12.8713 2.4137C12.9294 2.35559 12.9629 2.27502 12.9629 2.19287C12.9629 2.1106 12.9294 2.03003 12.8713 1.97192C12.8132 1.9137 12.7325 1.88037 12.6504 1.88037C12.5679 1.88037 12.4875 1.9137 12.4294 1.97192C12.371 2.03003 12.3379 2.1106 12.3379 2.19287C12.3379 2.27502 12.371 2.35559 12.4294 2.4137C12.4875 2.47192 12.5682 2.50537 12.6504 2.50537Z" fill="white"/>
<path d="M8 10.2163C7.91785 10.2163 7.83716 10.2496 7.77905 10.3079C7.72095 10.3662 7.6875 10.4465 7.6875 10.5288C7.6875 10.6112 7.72095 10.6915 7.77905 10.75C7.83716 10.8081 7.91785 10.8413 8 10.8413C8.08215 10.8413 8.16284 10.8081 8.22095 10.75C8.27905 10.6915 8.3125 10.6112 8.3125 10.5288C8.3125 10.4465 8.27905 10.3662 8.22095 10.3079C8.16284 10.2496 8.08215 10.2163 8 10.2163Z" fill="white"/>
</svg>
