<svg width="22" height="20" viewBox="0 0 22 20" fill="none" xmlns="http://www.w3.org/2000/svg">
<path fill-rule="evenodd" clip-rule="evenodd" d="M11 2.22222C10.6265 1.7876 10.191 1.4081 9.7106 1.09156C8.64894 0.392041 7.36772 0 6.05 0C2.662 0 0 2.6376 0 5.99455C0 7.18734 0.281317 8.32002 0.763212 9.3976C2.25786 12.7429 5.68234 15.5659 8.63005 17.9959C9.47869 18.6955 10.2878 19.3625 11 20C11.7122 19.3625 12.5213 18.6955 13.37 17.9959C16.3176 15.5659 19.742 12.743 21.2367 9.39778C21.7187 8.32014 22 7.1874 22 5.99455C22 2.6376 19.338 0 15.95 0C14.6323 0 13.3511 0.392041 12.2894 1.09156C11.809 1.4081 11.3735 1.7876 11 2.22222ZM11 17.0777C11.3551 16.7805 11.718 16.4807 12.0804 16.1814C12.3873 15.9279 12.6939 15.6748 12.9949 15.4237C14.2 14.4188 15.3795 13.3978 16.424 12.3278C17.7166 11.0037 18.6772 9.72925 19.2367 8.47132C19.6056 7.64078 19.8 6.81814 19.8 5.99455C19.8 3.90505 18.1631 2.22222 15.95 2.22222C14.6427 2.22222 13.4228 2.79303 12.6613 3.67902L11 5.61204L9.33868 3.67902C8.57723 2.79303 7.35727 2.22222 6.05 2.22222C3.83689 2.22222 2.2 3.90505 2.2 5.99455C2.2 6.81814 2.39441 7.64078 2.76335 8.47132C3.32276 9.72925 4.28343 11.0037 5.576 12.3278C6.6205 13.3978 7.80004 14.4188 9.00507 15.4237C9.3061 15.6748 9.61265 15.9279 9.91961 16.1814C10.282 16.4807 10.6449 16.7805 11 17.0777Z" fill="#C02100"/>
</svg>
