<svg width="9" height="8" viewBox="0 0 9 8" fill="none" xmlns="http://www.w3.org/2000/svg">
<path fill-rule="evenodd" clip-rule="evenodd" d="M4.50012 0C4.08591 0 3.75012 0.306209 3.75012 0.683938V3.25H1.18394C0.806209 3.25 0.5 3.58579 0.5 4C0.5 4.41421 0.806209 4.75 1.18394 4.75H3.75012V7.31606C3.75012 7.69379 4.08591 8 4.50012 8C4.91434 8 5.25012 7.69379 5.25012 7.31606V4.75H7.81606C8.19379 4.75 8.5 4.41421 8.5 4C8.5 3.58579 8.19379 3.25 7.81606 3.25H5.25012V0.683938C5.25012 0.306209 4.91434 0 4.50012 0Z" fill="#999999"/>
</svg>
