<svg width="20" height="24" viewBox="0 0 20 24" fill="none" xmlns="http://www.w3.org/2000/svg">
<path d="M12.3705 0H6.94196C6.19359 0 5.58482 0.630798 5.58482 1.40625V2.8125H1.51339C0.76502 2.8125 0.15625 3.4433 0.15625 4.21875V6.09375C0.15625 6.35266 0.358761 6.5625 0.608631 6.5625H1.10696L2.78377 22.7492C2.86046 23.4622 3.44043 24 4.13261 24H15.1799C15.8721 24 16.452 23.4624 16.5291 22.7474L18.2055 6.5625H18.7039C18.9537 6.5625 19.1562 6.35266 19.1562 6.09375V4.21875C19.1562 3.4433 18.5475 2.8125 17.7991 2.8125H13.7277V1.40625C13.7277 0.630798 13.1189 0 12.3705 0V0ZM6.48958 1.40625C6.48958 1.14771 6.69245 0.9375 6.94196 0.9375H12.3705C12.6201 0.9375 12.8229 1.14771 12.8229 1.40625V2.8125H6.48958V1.40625ZM15.6296 22.6454C15.604 22.8832 15.4105 23.0625 15.1799 23.0625H4.13261C3.90182 23.0625 3.7085 22.8832 3.68323 22.6474L2.01702 6.5625H17.2955L15.6296 22.6454ZM18.2515 4.21875V5.625C16.2974 5.625 3.10185 5.625 1.06101 5.625V4.21875C1.06101 3.96021 1.26388 3.75 1.51339 3.75H17.7991C18.0486 3.75 18.2515 3.96021 18.2515 4.21875Z" fill="#333333"/>
</svg>
