<svg width="13" height="16" viewBox="0 0 13 16" fill="none" xmlns="http://www.w3.org/2000/svg">
<path d="M12.4871 9.98519C12.4871 13.3018 9.78868 16 6.4723 16H4.34316C3.99033 16 3.70441 15.7141 3.70441 15.3613V15.1484C3.70441 14.7955 3.9903 14.5096 4.34316 14.5096H6.4723C8.96697 14.5096 10.9967 12.4799 10.9967 9.98519C10.9967 7.49052 8.96697 5.46075 6.4723 5.46075H2.54416L5.24947 8.16606C5.54004 8.45652 5.54004 8.92938 5.24947 9.21984C4.96753 9.50157 4.47684 9.50115 4.19552 9.21984L0.21831 5.24252C0.077566 5.10177 0 4.91463 0 4.71552C0 4.51656 0.077566 4.32931 0.21831 4.18864L4.19574 0.211143C4.47705 -0.070381 4.96816 -0.070381 5.24951 0.211143C5.54007 0.501531 5.54007 0.974455 5.24951 1.26481L2.5442 3.97033H6.4723C9.78868 3.97033 12.4871 6.66867 12.4871 9.98519Z" fill="#6A823D"/>
</svg>
