<svg width="24" height="24" viewBox="0 0 24 24" fill="none" xmlns="http://www.w3.org/2000/svg">
<g clip-path="url(#clip0)">
<path d="M21.0011 3.74868H6.00634C5.17821 3.74868 4.50687 4.47652 4.50687 5.37434C4.50687 6.27216 5.17821 7 6.00634 7H21.0011C21.8292 7 22.5005 6.27216 22.5005 5.37434C22.5005 4.47652 21.8292 3.74868 21.0011 3.74868Z" fill="#C02100"/>
<path d="M3.00738 5.24816C3.00569 4.85112 2.8466 4.47096 2.56503 4.19103C1.98019 3.60965 1.03562 3.60965 0.450774 4.19103C0.169155 4.47096 0.01007 4.85112 0.00842991 5.24816C-0.00276928 5.34529 -0.00276928 5.44342 0.00842991 5.54055C0.0253927 5.63825 0.0530392 5.7338 0.0909009 5.82545C0.131152 5.91425 0.178807 5.99953 0.233351 6.08036C0.287191 6.16443 0.350029 6.24235 0.420785 6.31278C0.489011 6.38073 0.564406 6.44108 0.645706 6.49272C0.724662 6.55021 0.810273 6.59806 0.900616 6.63517C1 6.68671 1.10595 6.72457 1.21551 6.74763C1.31264 6.7585 1.41076 6.7585 1.5079 6.74763C1.90386 6.74796 2.28388 6.59164 2.56503 6.31278C2.63579 6.24235 2.69862 6.16443 2.75247 6.08036C2.80701 5.99953 2.85466 5.91425 2.89491 5.82545C2.94276 5.73492 2.98048 5.63938 3.00738 5.54055C3.01857 5.44342 3.01857 5.34529 3.00738 5.24816Z" fill="#C02100"/>
<path d="M3.0074 11.9958C3.01855 11.8986 3.01855 11.8005 3.0074 11.7034C2.98149 11.6066 2.94372 11.5135 2.89494 11.426C2.85633 11.334 2.80858 11.2461 2.75249 11.1636C2.70052 11.0804 2.63745 11.0048 2.56505 10.9387C1.98021 10.3573 1.03564 10.3573 0.450798 10.9387C0.169178 11.2186 0.0100934 11.5987 0.00845337 11.9958C0.0113586 12.1934 0.0494546 12.3888 0.120914 12.5731C0.158494 12.6618 0.203666 12.7471 0.255866 12.828C0.312893 12.9095 0.378214 12.9849 0.450798 13.0529C0.517056 13.1252 0.592685 13.1882 0.675719 13.2403C0.754675 13.2979 0.840239 13.3457 0.930629 13.3828C1.02205 13.4213 1.11769 13.4489 1.21553 13.4653C1.31145 13.4868 1.40962 13.4968 1.50793 13.4952C1.60506 13.5064 1.70319 13.5064 1.80032 13.4952C1.89573 13.4789 1.98888 13.4512 2.07773 13.4128C2.17055 13.3759 2.25865 13.3281 2.34013 13.2703C2.42317 13.2182 2.4988 13.1551 2.56505 13.0829C2.63731 13.0166 2.70038 12.941 2.75249 12.858C2.81012 12.7791 2.85797 12.6935 2.89494 12.6031C2.94615 12.5035 2.98397 12.3976 3.0074 12.2882C3.01893 12.191 3.01893 12.0929 3.0074 11.9958Z" fill="#C02100"/>
<path d="M3.00737 18.7434C3.01847 18.6463 3.01847 18.5482 3.00737 18.451C2.98146 18.3519 2.94369 18.2562 2.89491 18.1661C2.85466 18.0773 2.807 17.992 2.75246 17.9112C2.70035 17.8282 2.63728 17.7525 2.56502 17.6863C1.98018 17.1049 1.03561 17.1049 0.450768 17.6863C0.378512 17.7525 0.31544 17.8282 0.263334 17.9112C0.20879 17.992 0.161135 18.0773 0.120884 18.1661C0.0819911 18.2574 0.0542977 18.3531 0.0384127 18.451C0.0172795 18.547 0.00725175 18.6451 0.00842322 18.7434C0.0101101 19.1404 0.169195 19.5206 0.450768 19.8005C0.517026 19.8728 0.592655 19.9359 0.675689 19.988C0.754645 20.0455 0.840209 20.0934 0.930599 20.1304C1.02202 20.1689 1.11766 20.1966 1.2155 20.2129C1.31142 20.2344 1.40959 20.2445 1.5079 20.2429C1.60503 20.2541 1.70316 20.2541 1.80029 20.2429C1.8957 20.2265 1.98885 20.1988 2.0777 20.1604C2.17052 20.1236 2.25862 20.0757 2.3401 20.018C2.42314 19.9659 2.49877 19.9028 2.56502 19.8305C2.63728 19.7643 2.70035 19.6886 2.75246 19.6056C2.81014 19.5267 2.85798 19.4411 2.89491 19.3507C2.94608 19.2511 2.98389 19.1453 3.00737 19.0358C3.0189 18.9387 3.0189 18.8405 3.00737 18.7434Z" fill="#C02100"/>
<path d="M22.5005 10.4963H6.00634C5.17821 10.4963 4.50687 11.1676 4.50687 11.9958C4.50687 12.8239 5.17821 13.4953 6.00634 13.4953H22.5005C23.3287 13.4953 24 12.8239 24 11.9958C24 11.1676 23.3287 10.4963 22.5005 10.4963Z" fill="#C02100"/>
<path d="M15.7529 17.2439H6.00634C5.17821 17.2439 4.50687 17.9153 4.50687 18.7434C4.50687 19.5715 5.17821 20.2429 6.00634 20.2429H15.7529C16.581 20.2429 17.2524 19.5715 17.2524 18.7434C17.2524 17.9153 16.581 17.2439 15.7529 17.2439Z" fill="#C02100"/>
</g>
<defs>
<clipPath id="clip0">
<rect width="24" height="24" fill="white"/>
</clipPath>
</defs>
</svg>
