<svg width="24" height="24" viewBox="0 0 24 24" fill="none" xmlns="http://www.w3.org/2000/svg">
<rect width="24" height="24" fill="#E5E5E5"/>
<rect x="-795" y="-2279" width="1680" height="4371" fill="#FCFCFC"/>
<path d="M12 24C18.6274 24 24 18.6274 24 12C24 5.37258 18.6274 0 12 0C5.37258 0 0 5.37258 0 12C0 18.6274 5.37258 24 12 24Z" fill="#6A823D"/>
<path d="M15.4937 8.75844C15.8383 8.41385 16.397 8.41385 16.7416 8.75844C17.0861 9.10302 17.0861 9.66169 16.7416 10.0063L11.4474 15.3004C11.1029 15.645 10.5442 15.645 10.1996 15.3004L7.25844 12.3592C6.91385 12.0146 6.91385 11.456 7.25844 11.1114C7.60302 10.7668 8.16169 10.7668 8.50627 11.1114L10.8235 13.4286L15.4937 8.75844Z" fill="white"/>
</svg>
