<svg width="20" height="20" viewBox="0 0 20 20" fill="none" xmlns="http://www.w3.org/2000/svg">
<path d="M16.7874 1.34814H3.19302C1.77166 1.34814 0.615234 2.50434 0.615234 3.92593V12.2454C0.615234 13.6638 1.76662 14.8182 3.18386 14.8232V18.5985L8.60939 14.8232H16.7874C18.2088 14.8232 19.3652 13.6668 19.3652 12.2454V3.92593C19.3652 2.50434 18.2088 1.34814 16.7874 1.34814ZM18.2666 12.2454C18.2666 13.0609 17.6031 13.7246 16.7874 13.7246H8.26469L4.28249 16.4957V13.7246H3.19302C2.3774 13.7246 1.71387 13.0609 1.71387 12.2454V3.92593C1.71387 3.11019 2.3774 2.44678 3.19302 2.44678H16.7874C17.6031 2.44678 18.2666 3.11019 18.2666 3.92593V12.2454Z" fill="#999999"/>
<path d="M5.63281 5.22949H14.3461V6.32812H5.63281V5.22949Z" fill="#999999"/>
<path d="M5.63281 7.57324H14.3461V8.67187H5.63281V7.57324Z" fill="#999999"/>
<path d="M5.63281 9.91699H14.3461V11.0156H5.63281V9.91699Z" fill="#999999"/>
</svg>
