<svg width="24" height="24" viewBox="0 0 24 24" fill="none" xmlns="http://www.w3.org/2000/svg">
<path d="M8.74506 10.9649C9.31053 10.9649 9.76893 10.5158 9.76893 9.96172C9.76893 9.40766 9.31053 8.9585 8.74506 8.9585C8.17959 8.9585 7.72119 9.40766 7.72119 9.96172C7.72119 10.5158 8.17959 10.9649 8.74506 10.9649Z" fill="#6A823D"/>
<path d="M15.2497 15.0368C15.8152 15.0368 16.2736 14.5876 16.2736 14.0336C16.2736 13.4795 15.8152 13.0303 15.2497 13.0303C14.6842 13.0303 14.2258 13.4795 14.2258 14.0336C14.2258 14.5876 14.6842 15.0368 15.2497 15.0368Z" fill="#6A823D"/>
<path d="M23.6917 13.3253L23.3203 12.8286C22.9187 12.2877 22.9087 11.5549 23.3052 11.0042L23.6666 10.5025C24.2186 9.73537 23.9627 8.66821 23.1145 8.2207L22.5624 7.93055C21.9601 7.61581 21.6289 6.95683 21.7443 6.29293L21.8497 5.68805C22.0103 4.76351 21.3026 3.90782 20.344 3.86848L19.7166 3.84389C19.0341 3.81438 18.4418 3.36195 18.2511 2.71772L18.0754 2.12759C17.8094 1.22272 16.7956 0.755532 15.9123 1.12928L15.3351 1.37025C14.7077 1.63581 13.975 1.47844 13.5182 0.976831L13.1017 0.519479C12.4643 -0.178844 11.345 -0.173926 10.7126 0.53915L10.3011 1.00142C9.84938 1.50795 9.12163 1.67515 8.48924 1.41943L7.90704 1.18338C7.01869 0.82438 6.01489 1.31124 5.75893 2.21611L5.5933 2.81116C5.41262 3.4603 4.83042 3.92257 4.14784 3.957L3.52047 3.99142C2.56185 4.04552 1.86924 4.91104 2.0449 5.83558L2.16034 6.44047C2.28581 7.09945 1.9646 7.76335 1.36734 8.08792L0.820276 8.3879C-0.01789 8.84525 -0.2588 9.91733 0.308342 10.6747L0.679745 11.1714C1.08126 11.7123 1.0913 12.4451 0.694802 12.9958L0.333437 13.4975C-0.218648 14.2646 0.0373185 15.3318 0.885522 15.7793L1.43761 16.0694C2.03988 16.3842 2.37113 17.0432 2.2557 17.7071L2.1503 18.312C1.98969 19.2365 2.69737 20.0922 3.65599 20.1315L4.28336 20.1561C4.96593 20.1856 5.55817 20.6381 5.74889 21.2823L5.92455 21.8724C6.19056 22.7773 7.20439 23.2445 8.08772 22.8707L8.6649 22.6297C9.29227 22.3642 10.025 22.5216 10.4818 23.0232L10.8983 23.4805C11.5408 24.1788 12.66 24.1739 13.2874 23.4608L13.6989 22.9986C14.1506 22.492 14.8784 22.3248 15.5108 22.5806L16.093 22.8166C16.9813 23.1756 17.9851 22.6888 18.2411 21.7839L18.4067 21.1888C18.5874 20.5397 19.1696 20.0774 19.8522 20.043L20.4795 20.0086C21.4381 19.9545 22.1308 19.089 21.9551 18.1644L21.8397 17.5595C21.7142 16.9006 22.0354 16.2367 22.6327 15.9121L23.1797 15.6121C24.0179 15.1597 24.2588 14.0876 23.6917 13.3253ZM6.27086 9.96159C6.27086 8.62395 7.37503 7.54205 8.74019 7.54205C10.1053 7.54205 11.2095 8.62395 11.2095 9.96159C11.2095 11.2992 10.1053 12.3811 8.74019 12.3811C7.37503 12.3811 6.27086 11.2943 6.27086 9.96159ZM9.21699 16.2022C9.00619 16.453 8.62475 16.4875 8.36878 16.2809C8.11282 16.0744 8.07769 15.7006 8.28848 15.4498L14.768 7.80269C14.9788 7.55188 15.3602 7.51746 15.6162 7.724C15.8721 7.93055 15.9073 8.3043 15.6965 8.55511L9.21699 16.2022ZM15.2498 16.453C13.8846 16.453 12.7804 15.3711 12.7804 14.0335C12.7804 12.6959 13.8846 11.614 15.2498 11.614C16.6149 11.614 17.7191 12.6959 17.7191 14.0335C17.7191 15.3711 16.6149 16.453 15.2498 16.453Z" fill="#6A823D"/>
</svg>
