<svg width="12" height="12" viewBox="0 0 12 12" fill="none" xmlns="http://www.w3.org/2000/svg">
<path fill-rule="evenodd" clip-rule="evenodd" d="M11.6477 0.352252C11.4281 0.132583 11.0719 0.132583 10.8523 0.352252L6 5.20451L1.14775 0.352252C0.928078 0.132583 0.571922 0.132583 0.352252 0.352252C0.132583 0.571922 0.132583 0.928078 0.352252 1.14775L5.20451 6L0.352252 10.8523C0.132583 11.0719 0.132583 11.4281 0.352252 11.6477C0.571922 11.8674 0.928078 11.8674 1.14775 11.6477L6 6.79549L10.8523 11.6477C11.0719 11.8674 11.4281 11.8674 11.6477 11.6477C11.8674 11.4281 11.8674 11.0719 11.6477 10.8523L6.79549 6L11.6477 1.14775C11.8674 0.928078 11.8674 0.571922 11.6477 0.352252Z" fill="#999999"/>
</svg>
