<svg width="22" height="20" viewBox="0 0 22 20" fill="none" xmlns="http://www.w3.org/2000/svg">
<path fill-rule="evenodd" clip-rule="evenodd" d="M11 2.2C10.6265 1.76972 10.191 1.39402 9.7106 1.08064C8.64894 0.388121 7.36772 0 6.05 0C2.662 0 0 2.61123 0 5.9346C0 7.11547 0.281317 8.23681 0.763212 9.30363C2.25786 12.6154 5.68234 15.4102 8.63005 17.8159C9.47869 18.5085 10.2878 19.1688 11 19.8C11.7122 19.1688 12.5213 18.5085 13.37 17.8159C16.3176 15.4103 19.742 12.6155 21.2367 9.3038C21.7187 8.23694 22 7.11553 22 5.9346C22 2.61123 19.338 0 15.95 0C14.6323 0 13.3511 0.388121 12.2894 1.08064C11.809 1.39402 11.3735 1.76972 11 2.2ZM11 16.9069C11.3551 16.6127 11.718 16.3159 12.0804 16.0196C12.3873 15.7686 12.6939 15.518 12.9949 15.2695C14.2 14.2746 15.3795 13.2638 16.424 12.2045C17.7166 10.8937 18.6772 9.63196 19.2367 8.38661C19.6056 7.56437 19.8 6.74996 19.8 5.9346C19.8 3.866 18.1631 2.2 15.95 2.2C14.6427 2.2 13.4228 2.7651 12.6613 3.64223L11 5.55592L9.33868 3.64223C8.57723 2.7651 7.35727 2.2 6.05 2.2C3.83689 2.2 2.2 3.866 2.2 5.9346C2.2 6.74996 2.39441 7.56437 2.76335 8.38661C3.32276 9.63196 4.28343 10.8937 5.576 12.2045C6.6205 13.2638 7.80004 14.2746 9.00507 15.2695C9.3061 15.518 9.61265 15.7686 9.91961 16.0196C10.282 16.3159 10.6449 16.6127 11 16.9069Z" fill="#333333"/>
</svg>
