<svg width="10" height="12" viewBox="0 0 10 12" fill="none" xmlns="http://www.w3.org/2000/svg">
<path fill-rule="evenodd" clip-rule="evenodd" d="M0 4.69565C0 1.77391 2.4 0 4.69565 0C6.9913 0 9.3913 1.77391 9.3913 4.69565C9.3913 7.46087 5.21739 11.687 5.06087 11.8435C4.95652 11.9478 4.85217 12 4.69565 12C4.53913 12 4.43478 11.9478 4.33043 11.8435C4.17391 11.687 0 7.46087 0 4.69565ZM3.13043 4.69565C3.13043 5.58261 3.80869 6.26087 4.69564 6.26087C5.5826 6.26087 6.26086 5.58261 6.26086 4.69565C6.26086 3.8087 5.5826 3.13043 4.69564 3.13043C3.80869 3.13043 3.13043 3.8087 3.13043 4.69565Z" fill="#333333"/>
</svg>
