<svg width="24" height="18" viewBox="0 0 24 18" fill="none" xmlns="http://www.w3.org/2000/svg">
<path d="M21.75 0H2.25002C1.00928 0 0 1.00928 0 2.25002V15.75C0 16.9908 1.00928 18 2.25002 18H21.75C22.9907 18 24 16.9908 24 15.75V2.25002C24 1.00928 22.9907 0 21.75 0ZM21.75 1.49999C21.8519 1.49999 21.9488 1.52114 22.0374 1.55806L12 10.2576L1.9625 1.55806C2.05113 1.52119 2.14807 1.49999 2.24997 1.49999H21.75ZM21.75 16.5H2.25002C1.8362 16.5 1.49999 16.1638 1.49999 15.75V3.14282L11.5085 11.8169C11.6499 11.9392 11.825 12 12 12C12.175 12 12.3501 11.9392 12.4915 11.8169L22.5 3.14282V15.75C22.5 16.1638 22.1638 16.5 21.75 16.5Z" fill="black"/>
</svg>
