<svg width="24" height="18" viewBox="0 0 24 18" fill="none" xmlns="http://www.w3.org/2000/svg">
<path d="M23.671 4.06814C23.3875 3.82613 22.9874 3.77513 22.6521 3.93834L17.5219 6.43584L12.7082 0.88575C12.5302 0.680438 12.2718 0.5625 12 0.5625C11.7282 0.5625 11.4699 0.680438 11.2918 0.88575L6.47809 6.4358L1.3479 3.9383C1.0126 3.77513 0.612573 3.82608 0.328979 4.06809C0.0453853 4.31011 -0.0678647 4.6972 0.0405572 5.05392L3.60306 16.7727C3.7231 17.1676 4.08728 17.4375 4.50001 17.4375H19.5C19.9127 17.4375 20.2769 17.1676 20.3969 16.7727L23.9594 5.05397C24.0679 4.69725 23.9546 4.31016 23.671 4.06814ZM18.8051 15.5625H5.19484L2.45964 6.56494L6.30442 8.4367C6.68617 8.62252 7.14488 8.52867 7.42299 8.20805L12 2.93086L16.5771 8.20805C16.8551 8.52872 17.314 8.62247 17.6956 8.4367L21.5404 6.56494L18.8051 15.5625Z" fill="black"/>
</svg>
