<svg width="14" height="14" viewBox="0 0 14 14" fill="none" xmlns="http://www.w3.org/2000/svg">
<path fill-rule="evenodd" clip-rule="evenodd" d="M5.74359 11.4872C2.57149 11.4872 0 8.91569 0 5.74359C0 2.57149 2.57149 0 5.74359 0C8.91569 0 11.4872 2.57149 11.4872 5.74359C11.4872 8.91569 8.91569 11.4872 5.74359 11.4872ZM5.74359 10.0513C8.12266 10.0513 10.0513 8.12266 10.0513 5.74359C10.0513 3.36452 8.12266 1.4359 5.74359 1.4359C3.36452 1.4359 1.4359 3.36452 1.4359 5.74359C1.4359 8.12266 3.36452 10.0513 5.74359 10.0513ZM13.7897 13.7897C14.0701 13.5093 14.0701 13.0548 13.7897 12.7744L11.2769 10.2616C10.9965 9.98119 10.5419 9.98119 10.2616 10.2616C9.98119 10.5419 9.98119 10.9965 10.2616 11.2769L12.7744 13.7897C13.0548 14.0701 13.5093 14.0701 13.7897 13.7897Z" fill="#D0D0D0"/>
</svg>
