<svg width="266" height="129" viewBox="0 0 266 129" fill="none" xmlns="http://www.w3.org/2000/svg">
<path fill-rule="evenodd" clip-rule="evenodd" d="M44.2844 48.4004C38.7625 51.0961 31.9152 55.8612 25.7858 60.5174C19.6565 65.1735 11.3597 74.6765 11.3597 74.6765C9.95162 76.3375 3.64278 84.0433 2.71785 85.7315C2.2761 86.5484 2.16566 86.6165 2 87.3653L3.24244 88.1141C3.57376 87.9915 4.23639 87.6376 4.58152 87.4742C9.30279 85.2278 19.3528 84.0569 25.0266 84.9691C26.269 85.1597 27.2354 85.3231 28.464 85.5545C30.8937 82.2598 32.0257 81.1434 31.8324 80.6261C31.0869 80.5852 30.5485 80.3674 29.8307 80.2312C27.5805 79.7683 26.2276 79.3735 23.6737 79.1421C22.1275 79.0059 20.6228 79.0059 18.911 79.0059C17.075 79.0059 15.9844 79.1965 14.5348 79.5097C14.5348 79.5097 21.7962 71.3818 27.1525 66.8345C32.5226 62.2873 42.614 56.2288 44.4363 54.9082C49.2128 51.4909 60.6846 47.1615 62.2584 50.0205C63.8736 52.9477 58.1997 56.4058 54.4448 59.4418C53.3128 60.354 47.9979 63.8665 47.8323 64.0708C49.7235 64.0571 54.3482 65.6228 55.7563 66.5078C60.1462 63.4853 61.858 62.192 64.4534 59.9319C70.638 54.527 69.8787 49.3534 68.4706 47.0526C66.3032 43.5128 62.714 43.0499 60.5742 43.0907C55.4112 42.587 44.2844 48.4004 44.2844 48.4004Z" fill="#EF0E03"/>
<path fill-rule="evenodd" clip-rule="evenodd" d="M36.6779 73.3151C37.1197 73.07 36.9402 73.3831 37.2163 72.9066C37.3129 72.7433 37.3958 72.5254 37.5062 72.3076C37.7133 71.94 38.6106 70.7283 38.155 70.8644C37.0506 71.1912 36.4432 71.2865 36.457 71.1367C36.526 70.6058 38.3483 70.3062 38.8453 70.2382C42.5036 69.857 43.9393 70.2109 45.0851 70.279C48.3154 70.4696 52.2636 71.6541 54.8452 73.9277C57.2472 76.0244 58.0893 77.8215 56.4603 80.7486C56.0876 81.443 55.6044 82.0965 54.9418 82.573C54.3206 83.0222 53.4647 83.6077 52.733 83.8527C49.1575 85.0372 41.3578 83.6213 37.6304 82.3551C36.816 82.0828 35.8358 81.7289 34.828 81.5655C34.69 81.688 34.7452 81.6199 34.621 81.7833C34.5519 81.865 34.4553 82.0284 34.4139 82.1101C34.3311 82.3007 34.2344 82.5321 34.1378 82.7227C33.9445 83.1448 33.6822 83.4715 33.4338 83.9208C33.1853 84.3837 32.357 86.0174 32.3017 86.4803L36.2776 87.4878C41.0955 88.9446 48.1498 91.1365 53.0919 89.7887C56.557 88.8493 59.8425 86.4395 61.7476 83.7166C63.8321 80.735 63.4042 75.684 62.7001 73.9277C61.4715 70.8508 58.6967 68.7814 56.4189 67.4744C52.4155 65.1599 47.142 64.4111 45.7063 64.3295L42.048 64.1525C42.048 64.1525 35.9739 64.6154 33.1438 67.7195C31.7634 68.8359 31.363 70.5377 32.3017 71.8038C33.4199 73.2878 35.3664 73.1381 36.6779 73.3151Z" fill="#EF0E03"/>
<path fill-rule="evenodd" clip-rule="evenodd" d="M38.5002 70.279C31.6805 81.0072 31.9981 80.3946 31.8324 80.626C30.5071 82.5321 30.2448 82.9133 28.464 85.5545L22.7764 93.941C21.6582 95.6565 20.5952 96.8954 19.3942 98.8695C18.3588 100.599 18.2898 100.694 18.1517 100.939C17.7652 101.674 16.8679 103.158 17.2682 103.349C17.6824 103.553 18.5521 102.382 19.2285 101.606C27.1801 91.082 28.6435 88.5905 28.9886 88.3455L24.1569 98.6108C23.7979 99.4822 22.8868 101.837 23.2457 101.987C23.6047 102.123 24.571 100.585 25.4545 98.9512L32.3018 86.4803C34.7452 81.6199 34.69 81.688 34.8281 81.5654L37.6995 75.8609C39.0524 73.5192 39.8945 72.7976 41.1645 70.6738C41.1645 70.6738 41.3164 70.5104 41.5511 70.0611C41.1231 70.0339 39.5631 70.0747 38.5002 70.279Z" fill="#101010"/>
<path fill-rule="evenodd" clip-rule="evenodd" d="M59.2489 27.3114C57.5371 26.6307 59.8564 22.9003 61.2507 23.5947C61.5268 24.112 61.016 24.3571 60.3257 25.3782C59.0419 27.257 59.6631 27.0528 59.2489 27.3114ZM51.3111 45.2418C51.3111 45.2418 52.664 44.6564 53.9341 44.2888C54.1549 43.785 54.3344 43.4719 54.5277 43.0907L59.1523 34.1187C59.4974 33.4788 59.7597 33.0023 60.0772 32.3624C60.2843 31.9132 60.8503 30.9465 60.9746 30.47C63.4042 30.47 64.5086 30.0616 65.4197 28.6457C66.9659 26.2087 66.11 24.1392 64.7295 23.0773C62.8796 21.6478 60.1877 21.6069 58.6553 23.159C57.1092 24.7383 57.0402 26.6715 57.3715 27.6246C57.6476 28.4551 58.5725 29.4217 59.2489 29.8437L54.0031 39.8641C53.6304 40.5992 53.3543 41.171 52.9677 41.879C52.5812 42.6142 52.3051 43.1724 51.9462 43.9076C51.6562 44.5066 51.3111 45.2418 51.3111 45.2418Z" fill="#060606"/>
<path fill-rule="evenodd" clip-rule="evenodd" d="M65.5302 36.2153C64.6328 36.651 64.1082 35.8478 64.412 35.5482C64.7571 35.2079 64.9227 35.5346 65.0884 35.698C65.2955 35.8886 65.5163 36.0247 65.5302 36.2153ZM63.5561 34.4863C62.7001 32.131 66.248 30.293 67.5181 31.3277C67.4766 32.0493 66.2066 32.4577 65.544 32.8934C64.9227 33.3018 64.0392 34.1459 63.5561 34.4863ZM58.0893 43.2132L60.5742 43.0907C63.1971 39.2922 64.0392 38.2439 64.55 37.3181C65.0194 37.427 67.4214 38.3665 69.1194 36.3651C70.7346 34.4591 70.707 32.2943 69.2299 31.0554C66.4689 28.7001 64.4534 30.2249 63.4318 31.1507C61.7614 32.6756 62.1894 35.167 62.8382 36.0656L58.0893 43.2132Z" fill="#060606"/>
<path fill-rule="evenodd" clip-rule="evenodd" d="M52.8573 50.6876C52.4155 51.3003 45.4578 61.4295 45.0437 61.7154L49.8616 51.9129C48.6606 52.4303 47.9289 52.8387 47.0454 53.3016C43.8565 59.6868 41.6339 63.8393 41.5925 64.4111L45.7063 64.3294C49.3646 59.0742 53.4923 52.9476 55.5078 49.8163C54.2239 50.2111 53.934 50.2928 52.8573 50.6876Z" fill="#0F0F0F"/>
<path fill-rule="evenodd" clip-rule="evenodd" d="M59.2489 27.3114C59.6631 27.0528 59.318 27.4204 59.5941 26.9302L60.3257 25.3782C60.6294 24.8744 61.5267 24.112 61.2506 23.5947C60.0082 23.1862 57.5371 26.6307 59.2489 27.3114Z" fill="#FEFEFE"/>
<path fill-rule="evenodd" clip-rule="evenodd" d="M39.6736 72.9202C40.2534 72.8793 41.6339 72.1169 42.1308 71.9127C42.8487 71.6132 43.8565 71.2592 43.9807 70.7963C43.042 70.7963 42.2827 70.6738 41.1645 70.6738C40.6123 71.6132 40.1982 72.2122 39.6736 72.9202Z" fill="#EF0E03"/>
<path fill-rule="evenodd" clip-rule="evenodd" d="M64.412 35.5482C64.1082 35.8477 64.6328 36.651 65.5302 36.2153C65.5164 36.0247 65.2955 35.8886 65.0884 35.698C64.9227 35.5346 64.7571 35.2079 64.412 35.5482Z" fill="#FCFCFC"/>
<path fill-rule="evenodd" clip-rule="evenodd" d="M85.8234 108.604C83.0486 107.76 85.3264 100.776 87.5766 97.1133C91.0416 91.4904 102.9 83.8935 102.9 83.8935C105.33 84.547 99.8491 94.4856 98.3168 97.0316C92.5602 106.684 88.3497 109.38 85.8234 108.604ZM234.516 78.4341C234.516 79.5233 235.455 82.5321 235.634 83.2264C234.24 83.2264 233.481 84.2203 233.384 82.9813C233.287 81.7288 234.088 78.72 234.516 78.4341ZM237.263 76.4055C237.774 76.6506 240.452 80.9528 240.963 81.0753C240.604 81.5246 240.273 81.5246 239.9 81.1978C238.878 80.3401 237.374 76.814 237.263 76.4055ZM235.234 76.0788C235.248 75.575 235.096 76.1741 235.648 76.0379C235.648 77.4402 237.677 80.626 238.782 82.0556C239.03 82.3687 238.147 82.8452 237.774 82.7907C237.001 82.6818 236.117 79.9045 235.786 79.0059C235.524 78.2979 235.22 77.3449 235.234 76.0788ZM225.819 76.882C225.971 76.9773 224.715 78.6519 224.715 78.6519C224.715 78.6519 221.512 73.9549 225.819 76.882ZM236.697 73.9685L238.588 74.9896C239.141 75.3572 239.693 75.5886 240.273 75.9154C240.977 76.3102 242.923 77.1271 243.807 77.1952C243.613 77.5628 243.724 77.6581 243.489 77.9848C242.758 77.9303 240.259 76.7595 239.61 76.3511C238.271 75.5342 236.697 75.0441 236.697 73.9685ZM223.182 71.586L225.336 73.2333C225.805 73.5056 226.854 74.1727 227.034 74.622C226.509 74.8535 225.584 74.5131 225.073 74.445C222.023 73.9821 223.306 72.008 223.182 71.586ZM238.354 72.2803C238.809 71.7085 239.789 72.784 240.645 73.2606C241.115 73.5328 242.468 74.4586 242.937 74.6356C245.491 75.575 244.469 75.8337 244.207 76.2966L239.113 74.0366C238.492 73.7098 238.299 73.6145 237.498 73.2197C237.07 73.0019 237.995 72.7568 238.354 72.2803ZM224.038 69.4076C224.922 69.6391 225.902 71.5723 228.041 72.6343L227.71 73.2061C227.213 72.8793 224.273 70.3062 223.79 70.1837C223.914 69.9386 223.955 69.7072 224.038 69.4076ZM229.822 82.3278C229.132 82.1917 231.438 77.6581 232.68 75.7384C233.094 75.0713 234.198 73.3967 234.668 72.7977C236.435 70.9597 237.733 70.8916 237.733 70.8916C237.733 70.8916 234.24 74.7718 233.135 76.7867L230.941 82.7635C230.941 82.7771 229.85 82.3415 229.822 82.3278ZM240.01 70.9733C240.632 71.7766 244.759 72.9066 245.615 73.3422C245.491 73.5601 245.38 74.2544 245.27 74.4722L240.507 72.2258C240.135 72.0352 239.707 71.6404 239.348 71.477C239.555 71.2048 239.734 71.1503 240.01 70.9733ZM227.862 81.4837C225.874 82.0147 230.954 73.9685 231.576 73.1108C232.901 71.2864 233.853 69.5982 234.861 70.4696C233.246 72.6887 229.146 79.0467 227.862 81.4837ZM227.945 71.0958C227.503 70.9869 224.853 68.441 224.853 68.4274L226.095 66.6303C225.819 67.9236 226.592 68.9311 226.923 69.4621L227.945 71.0958ZM228.276 64.4519L229.008 64.9284C229.008 65.2824 229.298 67.2838 229.381 67.5833C229.56 68.2232 229.588 68.6316 229.933 69.3532C230.098 69.7072 229.684 70.2109 229.422 69.925C228.953 69.4212 228.152 66.5894 228.276 64.4519ZM226.399 80.1631C224.645 79.673 232.901 66.6983 233.784 68.9584C232.777 70.1292 229.16 74.1183 226.399 80.1631ZM119.645 78.8834C118.072 79.251 120.156 74.2408 122.876 69.9658C124.27 67.7739 129.198 62.5867 130.537 66.6711C130.648 67.0115 129.281 69.5438 128.26 71.0958C125.913 74.6629 121.758 78.3796 119.645 78.8834ZM238.091 68.6452C240.921 66.3307 240.397 67.2293 242.454 65.9359C242.647 66.2763 242.896 66.8753 242.937 67.3655C240.811 68.4955 240.121 68.5908 238.091 68.6452ZM74.7656 74.4859C71.839 73.669 75.4007 68.5363 77.6094 66.1538C80.0943 63.4717 82.5792 63.7712 83.5456 65.9495C83.9873 66.957 82.1375 69.571 80.8812 71.0142C79.5835 72.5118 76.9192 75.0849 74.7656 74.4859ZM235.165 64.1388C234.447 63.8121 235.165 62.1511 235.165 61.5929C235.634 61.8788 238.105 61.8243 238.354 62.2872C238.091 62.7773 236.38 63.213 235.165 64.1388ZM236.255 67.8828C235.372 67.3655 238.202 66.0721 239.389 65.3369C239.858 65.0374 241.598 63.7848 241.805 64.6153C241.86 64.8468 238.768 66.6711 237.774 67.3791C236.545 68.2368 236.587 68.0734 236.255 67.8828ZM232.859 62.3961C232.79 63.4989 232.611 65.2824 232.818 66.0176C232.335 66.6847 231.879 67.4471 231.438 67.5561C231.203 67.0932 230.733 65.3097 230.775 64.8876C230.968 62.9952 231.41 62.859 231.921 62.6004C232.376 62.3689 232.887 61.9741 232.859 62.3961ZM235.082 66.8889C235.234 66.4941 235.11 65.7317 235.11 65.7317C236.311 64.7242 237.47 64.3975 238.878 63.6759C239.32 63.4445 239.431 63.4308 239.886 63.6351C239.624 63.9618 238.119 64.8468 237.194 65.4322C236.255 66.0176 235.192 67.0387 235.082 66.8889ZM228.428 61.9469C223.997 64.2205 221.636 70.5104 221.636 70.5104C219.51 75.1666 215.01 81.0617 213.022 80.8302C211.489 80.6805 215.479 72.6615 216.183 70.9869C219.289 64.7651 219.841 62.9952 219.275 63.1177L213.546 62.9952C213.105 63.2539 211.089 67.6514 210.33 69.1762C208.756 72.3484 201.785 74.8807 202.074 74.2544C204.973 67.9373 207.555 63.1177 207.017 63.1722C204.559 63.1449 202.185 63.0905 200.418 63.1177C199.949 63.4853 197.988 67.488 197.201 68.7405C193.874 74.091 188.96 80.6669 186.696 80.4763C185.191 80.3401 191.5 67.7194 191.5 67.7194C191.817 67.0115 194.081 63.1313 192.756 63.1313C190.437 63.1449 188.049 63.1586 186.682 63.1858L183.742 68.6724C182.389 70.9869 176.384 80.7486 174.534 80.2448C172.877 79.7955 175.859 72.7296 176.742 70.5649C177.847 67.9373 180.401 63.3219 179.158 63.2811C178.302 63.2675 174.962 62.8863 173.912 63.2402C172.78 63.6078 171.055 67.0523 170.406 68.3321C169.398 70.3607 162.565 80.7758 159.652 80.6396C157.995 80.5716 166.485 63.989 166.237 63.4036C166.057 62.9816 160.08 63.1177 159.845 63.4308L157.057 69.0537C155.856 70.6329 147.904 75.8201 148.663 74.1319C151.272 68.3729 151.99 67.2565 153.122 64.6017C153.454 63.8121 153.371 63.1177 152.846 63.0769L147.407 63.2402C146.385 63.1994 145.695 66.0993 143.97 68.9039C142.589 70.5104 134.058 81.4974 132.512 80.8847C130.772 80.204 140.228 63.4989 139.773 63.4445C138.986 63.3355 135.355 63.5398 134.223 63.6078C132.898 63.567 132.829 64.6425 131.946 65.5139C131.918 64.1796 129.613 63.0496 127.901 62.8454C123.179 62.26 120.253 64.5336 118.431 66.78C117.091 68.441 115.407 70.8235 114.372 73.2742C110.576 76.4327 107.028 79.142 105.468 80.2448C104.101 79.8636 101.63 80.027 102.293 79.7139C104.35 78.2163 105.274 77.2088 106.172 76.0515C108.063 73.5465 108.781 72.1714 110.092 68.7541C110.672 67.2429 110.796 65.1463 109.471 63.9482C108.022 62.6548 103.756 62.0013 99.2555 67.1068C95.7629 71.055 87.5076 80.7077 84.7328 80.6941C82.8139 80.6941 87.6594 72.716 88.6672 70.6874C89.7025 68.6588 91.1383 65.6772 91.1383 65.6772C87.6456 60.8577 85.5335 65.0237 85.5335 65.0237C85.5335 65.0237 84.4981 63.3083 82.7311 62.2872C81.6957 61.7018 78.8795 61.1844 76.3946 62.1647C74.3653 62.968 73.0124 63.4717 70.776 66.1946C68.581 68.8903 67.5319 72.185 68.1255 74.9351C68.7191 77.6853 72.2669 77.3177 73.4266 77.3177C66.3446 84.0433 62.0099 83.3353 62.0099 83.3353L58.3792 87.2699C61.789 87.8281 63.0177 87.0113 65.5854 86.3305C71.77 84.0297 77.996 77.3858 78.7829 76.5008C79.059 76.1741 79.059 76.1741 79.5283 76.0652C78.7276 77.7534 78.6034 78.2571 78.1754 79.6866C77.2643 82.6682 79.3765 84.6423 81.8475 84.6832C86.9968 84.7512 93.8716 76.2285 95.8733 73.9413C99.1313 70.2245 103.3 65.1463 104.57 65.7862C105.702 66.358 101.119 72.7704 100.18 73.8324C100.18 73.8324 98.3582 76.3919 96.4393 78.3932C94.5205 80.3946 92.6844 82.0147 92.6844 82.0147C92.643 83.2536 94.2444 83.4579 95.1417 83.771C96.1218 84.1114 98.0269 82.7091 98.5791 82.4912C98.9794 82.3415 102.348 81.933 101.906 82.2462C95.97 86.5211 90.8483 89.2985 85.7543 95.9969C77.2919 107.12 83.2556 111.136 85.3678 111.654C93.9821 113.723 100.981 106.031 103.811 101.565C106.034 98.0527 108.96 91.5585 109.195 88.1821C109.416 84.8193 107.387 81.4293 107.166 81.1162C109.098 79.85 112.605 76.7731 113.571 76.0379C112.274 78.8698 111.859 82.7227 113.033 83.8799C114.979 85.7996 116.677 85.2822 118.831 83.6485C121.302 81.7833 126.217 76.882 127.114 75.8065C126.065 78.2707 125.899 79.7275 125.968 81.0072C126.106 84.0024 127.79 84.8057 130.054 84.9827C133.588 85.255 140.049 76.0379 141.54 74.3633C140.008 77.5083 136.722 84.9827 139.096 85.0644C142.12 85.1733 143.597 85.0371 143.79 84.724L147.131 77.6717C151.507 76.2285 153.26 75.1257 154.834 73.8051C153.688 76.2285 152.984 78.7336 152.957 80.3401C152.901 83.4306 154.641 85.078 157.015 85.0371C160.687 84.9691 167.107 76.2421 168.004 74.3633C168.128 74.1183 166.927 77.9712 166.969 79.9317C167.01 83.1992 168.57 84.724 170.296 84.9146C175.321 85.4728 180.235 76.2421 181.809 73.846C180.773 76.7459 179.78 78.9378 179.641 80.5443C179.407 83.3217 181.063 85.2822 183.962 85.0508C188.062 84.724 193.805 75.9018 195.062 74.1455L192.59 79.7683C191.5 81.9058 190.658 84.8602 191.817 84.8329C193.184 84.8193 196.773 85.3231 197.243 84.4926C197.905 83.1992 198.996 80.5035 200.57 77.3177C202.986 77.3177 205.843 75.6567 208.383 73.8732C206.602 78.0529 206.299 79.2373 206.492 80.8983C206.754 83.1447 208.397 84.9146 210.772 84.724C216.363 84.302 220.877 74.9624 220.973 75.3164C223.182 83.3217 227.655 85.4728 233.95 85.7043C241.902 86.0174 245.574 80.449 246.581 77.4811C248.445 71.8991 247.327 67.7058 247.313 67.488C248.349 67.2293 248.266 65.9087 250.985 64.0843C252.269 63.213 255.596 61.1981 257.266 62.3689C260.235 64.4519 258.343 66.6983 256.714 67.0795C255.472 67.3655 254.064 66.9162 252.2 65.5956C251.717 68.1551 254.257 69.6799 255.334 70.3062C256.411 70.9189 258.412 71.0278 260.718 69.6255C262.595 68.1415 262.885 66.7664 262.996 64.7787C263.175 61.2934 257.929 58.6113 254.271 59.823C252.228 60.4901 249.301 62.0966 248.017 63.5398C247.575 64.0435 246.733 65.6228 246.25 65.1191C242.33 61.1436 241.377 61.0619 239.003 60.4765C235.33 59.5507 232.224 60 228.428 61.9469Z" fill="black"/>
<path fill-rule="evenodd" clip-rule="evenodd" d="M85.8234 108.604C83.0486 107.76 85.3264 100.776 87.5766 97.1133C91.0416 91.4904 102.9 83.8935 102.9 83.8935C105.33 84.547 99.8491 94.4856 98.3168 97.0316C92.5602 106.684 88.3497 109.38 85.8234 108.604ZM234.516 78.4341C234.516 79.5233 235.455 82.5321 235.634 83.2264C234.24 83.2264 233.481 84.2203 233.384 82.9813C233.287 81.7288 234.088 78.72 234.516 78.4341ZM237.263 76.4055C237.774 76.6506 240.452 80.9528 240.963 81.0753C240.604 81.5246 240.273 81.5246 239.9 81.1978C238.878 80.3401 237.374 76.814 237.263 76.4055ZM235.234 76.0788C235.248 75.575 235.096 76.1741 235.648 76.0379C235.648 77.4402 237.677 80.626 238.782 82.0556C239.03 82.3687 238.147 82.8452 237.774 82.7907C237.001 82.6818 236.117 79.9045 235.786 79.0059C235.524 78.2979 235.22 77.3449 235.234 76.0788ZM225.819 76.882C225.971 76.9773 224.715 78.6519 224.715 78.6519C224.715 78.6519 221.512 73.9549 225.819 76.882ZM236.697 73.9685L238.588 74.9896C239.141 75.3572 239.693 75.5886 240.273 75.9154C240.977 76.3102 242.923 77.1271 243.807 77.1952C243.613 77.5628 243.724 77.6581 243.489 77.9848C242.758 77.9303 240.259 76.7595 239.61 76.3511C238.271 75.5342 236.697 75.0441 236.697 73.9685ZM223.182 71.586L225.336 73.2333C225.805 73.5056 226.854 74.1727 227.034 74.622C226.509 74.8535 225.584 74.5131 225.073 74.445C222.023 73.9821 223.306 72.008 223.182 71.586ZM238.354 72.2803C238.809 71.7085 239.789 72.784 240.645 73.2606C241.115 73.5328 242.468 74.4586 242.937 74.6356C245.491 75.575 244.469 75.8337 244.207 76.2966L239.113 74.0366C238.492 73.7098 238.299 73.6145 237.498 73.2197C237.07 73.0019 237.995 72.7568 238.354 72.2803ZM224.038 69.4076C224.922 69.6391 225.902 71.5723 228.041 72.6343L227.71 73.2061C227.213 72.8793 224.273 70.3062 223.79 70.1837C223.914 69.9386 223.955 69.7072 224.038 69.4076ZM229.822 82.3278C229.132 82.1917 231.438 77.6581 232.68 75.7384C233.094 75.0713 234.198 73.3967 234.668 72.7977C236.435 70.9597 237.733 70.8916 237.733 70.8916C237.733 70.8916 234.24 74.7718 233.136 76.7867L230.941 82.7635C230.941 82.7771 229.85 82.3415 229.822 82.3278ZM240.01 70.9733C240.632 71.7766 244.759 72.9066 245.615 73.3422C245.491 73.5601 245.38 74.2544 245.27 74.4723L240.507 72.2258C240.135 72.0352 239.707 71.6404 239.348 71.477C239.555 71.2048 239.734 71.1503 240.01 70.9733ZM227.862 81.4837C225.874 82.0147 230.954 73.9685 231.576 73.1108C232.901 71.2864 233.853 69.5982 234.861 70.4696C233.246 72.6887 229.146 79.0467 227.862 81.4837ZM227.945 71.0958C227.503 70.9869 224.853 68.441 224.853 68.4274L226.095 66.6303C225.819 67.9236 226.592 68.9311 226.923 69.4621L227.945 71.0958ZM228.276 64.4519L229.008 64.9284C229.008 65.2824 229.298 67.2838 229.381 67.5833C229.56 68.2232 229.588 68.6316 229.933 69.3532C230.098 69.7072 229.684 70.2109 229.422 69.925C228.953 69.4212 228.152 66.5894 228.276 64.4519ZM226.399 80.1631C224.645 79.673 232.901 66.6983 233.784 68.9584C232.777 70.1292 229.16 74.1183 226.399 80.1631ZM119.645 78.8834C118.072 79.251 120.156 74.2408 122.876 69.9658C124.27 67.7739 129.198 62.5867 130.537 66.6711C130.648 67.0115 129.281 69.5438 128.26 71.0958C125.913 74.6629 121.758 78.3796 119.645 78.8834ZM238.091 68.6452C240.921 66.3307 240.397 67.2293 242.454 65.9359C242.647 66.2763 242.896 66.8753 242.937 67.3655C240.811 68.4955 240.121 68.5908 238.091 68.6452ZM74.7656 74.4859C71.839 73.669 75.4007 68.5363 77.6094 66.1538C80.0943 63.4717 82.5792 63.7712 83.5456 65.9495C83.9873 66.957 82.1375 69.571 80.8812 71.0142C79.5835 72.5118 76.9192 75.0849 74.7656 74.4859ZM235.165 64.1388C234.447 63.8121 235.165 62.1511 235.165 61.5929C235.634 61.8788 238.105 61.8243 238.354 62.2872C238.091 62.7773 236.38 63.213 235.165 64.1388ZM236.255 67.8828C235.372 67.3655 238.202 66.0721 239.389 65.3369C239.858 65.0374 241.598 63.7848 241.805 64.6153C241.86 64.8468 238.768 66.6711 237.774 67.3791C236.545 68.2368 236.587 68.0734 236.255 67.8828ZM232.859 62.3961C232.79 63.4989 232.611 65.2824 232.818 66.0176C232.335 66.6847 231.879 67.4471 231.438 67.5561C231.203 67.0932 230.733 65.3097 230.775 64.8876C230.968 62.9952 231.41 62.859 231.921 62.6004C232.376 62.3689 232.887 61.9741 232.859 62.3961ZM235.082 66.8889C235.234 66.4941 235.11 65.7317 235.11 65.7317C236.311 64.7242 237.47 64.3975 238.878 63.6759C239.32 63.4445 239.431 63.4308 239.886 63.6351C239.624 63.9618 238.119 64.8468 237.194 65.4322C236.255 66.0176 235.192 67.0387 235.082 66.8889ZM228.428 61.9469C223.997 64.2205 221.636 70.5104 221.636 70.5104C219.51 75.1666 215.01 81.0617 213.022 80.8302C211.489 80.6805 215.479 72.6615 216.183 70.9869C219.289 64.7651 219.841 62.9952 219.275 63.1177L213.546 62.9952C213.105 63.2539 211.089 67.6514 210.33 69.1762C208.756 72.3484 201.785 74.8807 202.074 74.2544C204.973 67.9373 207.555 63.1177 207.017 63.1722C204.559 63.1449 202.185 63.0905 200.418 63.1177C199.949 63.4853 197.988 67.488 197.201 68.7405C193.874 74.091 188.96 80.6669 186.696 80.4763C185.191 80.3401 191.5 67.7194 191.5 67.7194C191.817 67.0115 194.081 63.1313 192.756 63.1313C190.437 63.1449 188.049 63.1586 186.682 63.1858L183.742 68.6724C182.389 70.9869 176.384 80.7486 174.534 80.2448C172.877 79.7955 175.859 72.7296 176.742 70.5649C177.847 67.9373 180.401 63.3219 179.158 63.2811C178.302 63.2675 174.962 62.8863 173.912 63.2402C172.78 63.6078 171.055 67.0523 170.406 68.3321C169.398 70.3607 162.565 80.7758 159.652 80.6396C157.995 80.5716 166.485 63.989 166.237 63.4036C166.057 62.9816 160.08 63.1177 159.845 63.4308L157.057 69.0537C155.856 70.6329 147.904 75.8201 148.663 74.1319C151.272 68.3729 151.99 67.2565 153.122 64.6017C153.454 63.8121 153.371 63.1177 152.846 63.0769L147.407 63.2402C146.385 63.1994 145.695 66.0993 143.97 68.9039C142.589 70.5104 134.058 81.4974 132.512 80.8847C130.772 80.204 140.228 63.4989 139.773 63.4445C138.986 63.3355 135.355 63.5398 134.223 63.6078C132.898 63.567 132.829 64.6425 131.946 65.5139C131.918 64.1796 129.613 63.0496 127.901 62.8454C123.179 62.26 120.253 64.5336 118.431 66.78C117.091 68.441 115.407 70.8235 114.372 73.2742C110.576 76.4327 107.028 79.142 105.468 80.2448C104.101 79.8636 101.63 80.027 102.293 79.7139C104.35 78.2163 105.274 77.2088 106.172 76.0515C108.063 73.5465 108.781 72.1714 110.092 68.7541C110.672 67.2429 110.796 65.1463 109.471 63.9482C108.022 62.6548 103.756 62.0013 99.2555 67.1068C95.7629 71.055 87.5076 80.7077 84.7328 80.6941C82.8139 80.6941 87.6594 72.716 88.6672 70.6874C89.7025 68.6588 91.1383 65.6772 91.1383 65.6772C87.6456 60.8577 85.5335 65.0237 85.5335 65.0237C85.5335 65.0237 84.4981 63.3083 82.7311 62.2872C81.6957 61.7018 78.8795 61.1844 76.3946 62.1647C74.3653 62.968 73.0124 63.4717 70.776 66.1946C68.581 68.8903 67.5319 72.185 68.1255 74.9351C68.7191 77.6853 72.2669 77.3177 73.4266 77.3177C66.3446 84.0433 62.0099 83.3353 62.0099 83.3353L58.3792 87.2699C61.789 87.8281 63.0177 87.0113 65.5854 86.3305C71.77 84.0297 77.996 77.3858 78.7829 76.5008C79.059 76.1741 79.059 76.1741 79.5283 76.0652C78.7276 77.7534 78.6034 78.2571 78.1754 79.6866C77.2643 82.6682 79.3765 84.6423 81.8476 84.6832C86.9968 84.7512 93.8716 76.2285 95.8733 73.9413C99.1313 70.2245 103.3 65.1463 104.57 65.7862C105.702 66.358 101.119 72.7704 100.18 73.8324C100.18 73.8324 98.3582 76.3919 96.4393 78.3932C94.5205 80.3946 92.6844 82.0147 92.6844 82.0147C92.643 83.2536 94.2444 83.4579 95.1417 83.771C96.1218 84.1114 98.0269 82.7091 98.5791 82.4912C98.9794 82.3415 102.348 81.933 101.906 82.2462C95.97 86.5211 90.8483 89.2985 85.7543 95.9969C77.2919 107.12 83.2557 111.136 85.3678 111.654C93.9821 113.723 100.981 106.031 103.811 101.565C106.034 98.0527 108.96 91.5585 109.195 88.1821C109.416 84.8193 107.387 81.4293 107.166 81.1162C109.098 79.85 112.605 76.7731 113.571 76.0379C112.274 78.8698 111.859 82.7227 113.033 83.8799C114.979 85.7996 116.677 85.2822 118.831 83.6485C121.302 81.7833 126.217 76.882 127.114 75.8065C126.065 78.2707 125.899 79.7275 125.968 81.0072C126.106 84.0024 127.79 84.8057 130.054 84.9827C133.588 85.255 140.049 76.0379 141.54 74.3633C140.008 77.5083 136.722 84.9827 139.096 85.0644C142.12 85.1733 143.597 85.0371 143.79 84.724L147.131 77.6717C151.507 76.2285 153.26 75.1257 154.834 73.8051C153.688 76.2285 152.984 78.7336 152.957 80.3401C152.901 83.4306 154.641 85.078 157.015 85.0371C160.687 84.9691 167.107 76.2421 168.004 74.3633C168.128 74.1183 166.927 77.9712 166.969 79.9317C167.01 83.1992 168.57 84.724 170.296 84.9146C175.321 85.4728 180.235 76.2421 181.809 73.846C180.774 76.7459 179.78 78.9378 179.641 80.5443C179.407 83.3217 181.063 85.2822 183.962 85.0508C188.062 84.724 193.805 75.9018 195.062 74.1455L192.59 79.7683C191.5 81.9058 190.658 84.8602 191.817 84.8329C193.184 84.8193 196.773 85.3231 197.243 84.4926C197.905 83.1992 198.996 80.5035 200.57 77.3177C202.986 77.3177 205.843 75.6567 208.383 73.8732C206.602 78.0529 206.299 79.2373 206.492 80.8983C206.754 83.1447 208.397 84.9146 210.772 84.724C216.363 84.302 220.877 74.9624 220.973 75.3164C223.182 83.3217 227.655 85.4728 233.95 85.7043C241.902 86.0174 245.574 80.449 246.581 77.4811C248.445 71.8991 247.327 67.7058 247.313 67.488C248.349 67.2293 248.266 65.9087 250.985 64.0843C252.269 63.213 255.596 61.1981 257.266 62.3689C260.235 64.4519 258.343 66.6983 256.714 67.0795C255.472 67.3655 254.064 66.9162 252.2 65.5956C251.717 68.1551 254.257 69.6799 255.334 70.3062C256.411 70.9189 258.412 71.0278 260.718 69.6255C262.595 68.1415 262.885 66.7664 262.996 64.7787C263.175 61.2934 257.929 58.6113 254.271 59.823C252.228 60.4901 249.301 62.0966 248.017 63.5398C247.575 64.0435 246.733 65.6228 246.25 65.1191C242.33 61.1436 241.377 61.0619 239.003 60.4765C235.33 59.5507 232.224 60 228.428 61.9469Z" stroke="black" stroke-width="0.0572"/>
<path fill-rule="evenodd" clip-rule="evenodd" d="M53.1748 76.1332C50.1791 79.7274 51.8219 84.0841 52.0704 84.0569C52.733 83.9616 53.0091 83.9616 54.293 83.2536C55.8943 82.3823 56.9435 80.9664 58.0617 79.5505C59.0695 78.2707 60.7399 76.6369 63.1143 75.9834C64.3982 75.7384 65.4059 75.221 66.4551 75.5478C65.7234 73.3831 63.4594 72.4845 61.8719 72.3347C59.0004 72.0761 55.2455 73.6281 53.1748 76.1332Z" fill="black"/>
<path fill-rule="evenodd" clip-rule="evenodd" d="M53.1748 76.1332C50.1791 79.7274 51.8219 84.0841 52.0704 84.0569C52.733 83.9616 53.0091 83.9616 54.293 83.2536C55.8943 82.3823 56.9435 80.9664 58.0617 79.5505C59.0695 78.2707 60.7399 76.6369 63.1143 75.9834C64.3982 75.7384 65.4059 75.221 66.4551 75.5478C65.7234 73.3831 63.4594 72.4845 61.8719 72.3347C59.0004 72.0761 55.2455 73.6281 53.1748 76.1332Z" stroke="black" stroke-width="0.0572"/>
<path fill-rule="evenodd" clip-rule="evenodd" d="M58.959 28.1147C58.89 28.9179 60.6018 29.3808 61.3473 29.4898C60.8365 29.0405 60.4361 28.7682 60.519 27.7879C59.8978 28.2917 59.4008 28.2372 58.959 28.1147Z" fill="white"/>
<path fill-rule="evenodd" clip-rule="evenodd" d="M258.992 72.8391C258.992 73.1535 259.202 72.8801 259.076 72.8391C259.076 72.8391 258.992 72.4838 258.992 72.8391Z" fill="black"/>
<path fill-rule="evenodd" clip-rule="evenodd" d="M175.21 61.5928L175.238 61.5656C175.238 61.5656 175.196 61.5792 175.21 61.5928Z" fill="black"/>
<path fill-rule="evenodd" clip-rule="evenodd" d="M175.21 61.8521L175.239 61.8107C175.239 61.8107 175.196 61.8383 175.21 61.8521Z" fill="black"/>
<path d="M101.922 21.625H103.352V33H101.922V24.2344L97.4922 33H96.0547V21.625H97.4922V30.3906L101.922 21.625ZM111.641 33H110.266V29.3906H107.219V33H105.828V24.5469H107.219V28.2109H110.266V24.5469H111.641V33ZM119.188 25.7188H116.883V33H115.508V25.7188H113.234V24.5469H119.188V25.7188ZM123.039 33.1562C121.987 33.1562 121.18 32.8438 120.617 32.2188C120.055 31.5885 119.768 30.6667 119.758 29.4531V28.4297C119.758 27.1693 120.031 26.1823 120.578 25.4688C121.13 24.75 121.898 24.3906 122.883 24.3906C123.872 24.3906 124.612 24.7057 125.102 25.3359C125.591 25.9661 125.841 26.9479 125.852 28.2812V29.1875H121.133V29.3828C121.133 30.2891 121.302 30.9479 121.641 31.3594C121.984 31.7708 122.477 31.9766 123.117 31.9766C123.523 31.9766 123.88 31.901 124.188 31.75C124.5 31.5938 124.792 31.349 125.062 31.0156L125.781 31.8906C125.182 32.7344 124.268 33.1562 123.039 33.1562ZM122.883 25.5781C122.31 25.5781 121.885 25.776 121.609 26.1719C121.333 26.5625 121.177 27.1719 121.141 28H124.469V27.8125C124.432 27.0104 124.286 26.4375 124.031 26.0938C123.781 25.75 123.398 25.5781 122.883 25.5781ZM133.625 29.1797C133.625 30.5182 133.383 31.5156 132.898 32.1719C132.419 32.8281 131.74 33.1562 130.859 33.1562C130.01 33.1562 129.357 32.8359 128.898 32.1953V36.25H127.523V24.5469H128.773L128.844 25.4844C129.307 24.7552 129.971 24.3906 130.836 24.3906C131.763 24.3906 132.456 24.7135 132.914 25.3594C133.372 26.0052 133.609 26.9714 133.625 28.2578V29.1797ZM132.25 28.3906C132.25 27.4427 132.104 26.7448 131.812 26.2969C131.521 25.8438 131.052 25.6172 130.406 25.6172C129.745 25.6172 129.242 25.9479 128.898 26.6094V31.0078C129.237 31.6536 129.745 31.9766 130.422 31.9766C131.047 31.9766 131.505 31.7526 131.797 31.3047C132.094 30.8516 132.245 30.1615 132.25 29.2344V28.3906ZM141.344 33H139.969V29.3906H136.922V33H135.531V24.5469H136.922V28.2109H139.969V24.5469H141.344V33ZM146.57 33.1562C145.518 33.1562 144.711 32.8438 144.148 32.2188C143.586 31.5885 143.299 30.6667 143.289 29.4531V28.4297C143.289 27.1693 143.562 26.1823 144.109 25.4688C144.661 24.75 145.43 24.3906 146.414 24.3906C147.404 24.3906 148.143 24.7057 148.633 25.3359C149.122 25.9661 149.372 26.9479 149.383 28.2812V29.1875H144.664V29.3828C144.664 30.2891 144.833 30.9479 145.172 31.3594C145.516 31.7708 146.008 31.9766 146.648 31.9766C147.055 31.9766 147.411 31.901 147.719 31.75C148.031 31.5938 148.323 31.349 148.594 31.0156L149.312 31.8906C148.714 32.7344 147.799 33.1562 146.57 33.1562ZM146.414 25.5781C145.841 25.5781 145.417 25.776 145.141 26.1719C144.865 26.5625 144.708 27.1719 144.672 28H148V27.8125C147.964 27.0104 147.818 26.4375 147.562 26.0938C147.312 25.75 146.93 25.5781 146.414 25.5781ZM156.297 25.7188H153.992V33H152.617V25.7188H150.344V24.5469H156.297V25.7188ZM160.312 28.7578H157.086V27.5781H160.312V28.7578ZM166.367 25.7422H163.219V33H161.828V24.5469H166.367V25.7422ZM172.227 24.5469H173.602V33H172.227V26.8359L169.164 33H167.781V24.5469H169.164V30.7188L172.227 24.5469ZM181.758 33H180.383V25.7422H177.328V33H175.938V24.5469H181.758V33ZM186.992 33.1562C185.94 33.1562 185.133 32.8438 184.57 32.2188C184.008 31.5885 183.721 30.6667 183.711 29.4531V28.4297C183.711 27.1693 183.984 26.1823 184.531 25.4688C185.083 24.75 185.852 24.3906 186.836 24.3906C187.826 24.3906 188.565 24.7057 189.055 25.3359C189.544 25.9661 189.794 26.9479 189.805 28.2812V29.1875H185.086V29.3828C185.086 30.2891 185.255 30.9479 185.594 31.3594C185.938 31.7708 186.43 31.9766 187.07 31.9766C187.477 31.9766 187.833 31.901 188.141 31.75C188.453 31.5938 188.745 31.349 189.016 31.0156L189.734 31.8906C189.135 32.7344 188.221 33.1562 186.992 33.1562ZM186.836 25.5781C186.263 25.5781 185.839 25.776 185.562 26.1719C185.286 26.5625 185.13 27.1719 185.094 28H188.422V27.8125C188.385 27.0104 188.24 26.4375 187.984 26.0938C187.734 25.75 187.352 25.5781 186.836 25.5781ZM197.578 29.1797C197.578 30.5182 197.336 31.5156 196.852 32.1719C196.372 32.8281 195.693 33.1562 194.812 33.1562C193.964 33.1562 193.31 32.8359 192.852 32.1953V36.25H191.477V24.5469H192.727L192.797 25.4844C193.26 24.7552 193.924 24.3906 194.789 24.3906C195.716 24.3906 196.409 24.7135 196.867 25.3594C197.326 26.0052 197.562 26.9714 197.578 28.2578V29.1797ZM196.203 28.3906C196.203 27.4427 196.057 26.7448 195.766 26.2969C195.474 25.8438 195.005 25.6172 194.359 25.6172C193.698 25.6172 193.195 25.9479 192.852 26.6094V31.0078C193.19 31.6536 193.698 31.9766 194.375 31.9766C195 31.9766 195.458 31.7526 195.75 31.3047C196.047 30.8516 196.198 30.1615 196.203 29.2344V28.3906ZM203.508 31.0859L205.773 24.5469H207.492V33H206.117V27.1719L203.984 33H203.039L200.859 27.0312V33H199.484V24.5469H201.266L203.508 31.0859ZM214.055 33C213.971 32.8177 213.911 32.5104 213.875 32.0781C213.385 32.7969 212.76 33.1562 212 33.1562C211.234 33.1562 210.635 32.9427 210.203 32.5156C209.776 32.0833 209.562 31.4766 209.562 30.6953C209.562 29.8359 209.854 29.1536 210.438 28.6484C211.021 28.1432 211.82 27.8854 212.836 27.875H213.852V26.9766C213.852 26.4714 213.74 26.112 213.516 25.8984C213.292 25.6849 212.951 25.5781 212.492 25.5781C212.076 25.5781 211.737 25.7031 211.477 25.9531C211.216 26.1979 211.086 26.5104 211.086 26.8906H209.703C209.703 26.4583 209.831 26.0469 210.086 25.6562C210.341 25.2604 210.685 24.9505 211.117 24.7266C211.549 24.5026 212.031 24.3906 212.562 24.3906C213.427 24.3906 214.083 24.6068 214.531 25.0391C214.984 25.4661 215.216 26.0911 215.227 26.9141V31.1797C215.232 31.8307 215.32 32.3958 215.492 32.875V33H214.055ZM212.211 31.8984C212.549 31.8984 212.872 31.8047 213.18 31.6172C213.487 31.4297 213.711 31.1953 213.852 30.9141V28.8984H213.07C212.414 28.9089 211.896 29.0573 211.516 29.3438C211.135 29.625 210.945 30.0208 210.945 30.5312C210.945 31.0104 211.042 31.3594 211.234 31.5781C211.427 31.7917 211.753 31.8984 212.211 31.8984ZM223.484 29.1797C223.484 30.5182 223.242 31.5156 222.758 32.1719C222.279 32.8281 221.599 33.1562 220.719 33.1562C219.87 33.1562 219.216 32.8359 218.758 32.1953V36.25H217.383V24.5469H218.633L218.703 25.4844C219.167 24.7552 219.831 24.3906 220.695 24.3906C221.622 24.3906 222.315 24.7135 222.773 25.3594C223.232 26.0052 223.469 26.9714 223.484 28.2578V29.1797ZM222.109 28.3906C222.109 27.4427 221.964 26.7448 221.672 26.2969C221.38 25.8438 220.911 25.6172 220.266 25.6172C219.604 25.6172 219.102 25.9479 218.758 26.6094V31.0078C219.096 31.6536 219.604 31.9766 220.281 31.9766C220.906 31.9766 221.365 31.7526 221.656 31.3047C221.953 30.8516 222.104 30.1615 222.109 29.2344V28.3906ZM227.562 29.3984H226.781V33H225.398V24.5469H226.781V28.125H227.469L229.773 24.5469H231.422L228.602 28.5703L231.625 33H229.891L227.562 29.3984ZM235.852 33.1562C234.799 33.1562 233.992 32.8438 233.43 32.2188C232.867 31.5885 232.581 30.6667 232.57 29.4531V28.4297C232.57 27.1693 232.844 26.1823 233.391 25.4688C233.943 24.75 234.711 24.3906 235.695 24.3906C236.685 24.3906 237.424 24.7057 237.914 25.3359C238.404 25.9661 238.654 26.9479 238.664 28.2812V29.1875H233.945V29.3828C233.945 30.2891 234.115 30.9479 234.453 31.3594C234.797 31.7708 235.289 31.9766 235.93 31.9766C236.336 31.9766 236.693 31.901 237 31.75C237.312 31.5938 237.604 31.349 237.875 31.0156L238.594 31.8906C237.995 32.7344 237.081 33.1562 235.852 33.1562ZM235.695 25.5781C235.122 25.5781 234.698 25.776 234.422 26.1719C234.146 26.5625 233.99 27.1719 233.953 28H237.281V27.8125C237.245 27.0104 237.099 26.4375 236.844 26.0938C236.594 25.75 236.211 25.5781 235.695 25.5781ZM245.578 25.7188H243.273V33H241.898V25.7188H239.625V24.5469H245.578V25.7188Z" fill="black"/>
<path d="M143.969 51V42.5469H146.805C147.773 42.5469 148.513 42.7448 149.023 43.1406C149.534 43.5365 149.789 44.112 149.789 44.8672C149.789 45.2578 149.688 45.6094 149.484 45.9219C149.281 46.2344 148.984 46.474 148.594 46.6406C149.026 46.7552 149.372 46.987 149.633 47.3359C149.898 47.6849 150.031 48.1068 150.031 48.6016C150.031 49.3828 149.786 49.9792 149.297 50.3906C148.812 50.7969 148.125 51 147.234 51H143.969ZM145.344 47.2891V49.8359H147.25C148.182 49.8359 148.648 49.4089 148.648 48.5547C148.648 47.7109 148.177 47.2891 147.234 47.2891H145.344ZM145.344 46.1328H146.789C147.867 46.1328 148.406 45.737 148.406 44.9453C148.406 44.1484 147.898 43.7396 146.883 43.7188H145.344V46.1328ZM157.43 42.5469V51H156.047V47.7109H154.414L152.711 51H151.227L153.055 47.4688C152.596 47.2708 152.247 46.9661 152.008 46.5547C151.768 46.1432 151.648 45.6667 151.648 45.125C151.648 44.349 151.898 43.7266 152.398 43.2578C152.898 42.7839 153.57 42.5469 154.414 42.5469H157.43ZM153.031 45.1406C153.031 45.5573 153.143 45.8932 153.367 46.1484C153.591 46.3984 153.893 46.5234 154.273 46.5234H156.047V43.7188H154.398C153.987 43.7188 153.656 43.8516 153.406 44.1172C153.156 44.3776 153.031 44.7188 153.031 45.1406ZM164.812 44.8516C164.812 45.2318 164.716 45.5807 164.523 45.8984C164.331 46.2161 164.057 46.4688 163.703 46.6562C164.531 46.9948 164.945 47.651 164.945 48.625C164.945 49.4115 164.688 50.0286 164.172 50.4766C163.661 50.9245 162.987 51.1484 162.148 51.1484C161.32 51.1484 160.638 50.9115 160.102 50.4375C159.57 49.9583 159.305 49.3125 159.305 48.5H160.672C160.672 48.9167 160.812 49.2708 161.094 49.5625C161.375 49.8542 161.727 50 162.148 50C162.576 50 162.917 49.8724 163.172 49.6172C163.432 49.362 163.562 49.0312 163.562 48.625C163.562 48.151 163.456 47.8125 163.242 47.6094C163.034 47.401 162.703 47.2969 162.25 47.2969H160.984V46.0781H162.344C163.073 46.0521 163.438 45.6458 163.438 44.8594C163.438 44.4635 163.323 44.151 163.094 43.9219C162.87 43.6875 162.557 43.5703 162.156 43.5703C161.766 43.5703 161.438 43.7005 161.172 43.9609C160.911 44.2214 160.781 44.5365 160.781 44.9062H159.414C159.414 44.1719 159.674 43.5703 160.195 43.1016C160.716 42.6328 161.37 42.3984 162.156 42.3984C162.995 42.3984 163.646 42.612 164.109 43.0391C164.578 43.4661 164.812 44.0703 164.812 44.8516ZM171.117 51C171.034 50.8177 170.974 50.5104 170.938 50.0781C170.448 50.7969 169.823 51.1562 169.062 51.1562C168.297 51.1562 167.698 50.9427 167.266 50.5156C166.839 50.0833 166.625 49.4766 166.625 48.6953C166.625 47.8359 166.917 47.1536 167.5 46.6484C168.083 46.1432 168.883 45.8854 169.898 45.875H170.914V44.9766C170.914 44.4714 170.802 44.112 170.578 43.8984C170.354 43.6849 170.013 43.5781 169.555 43.5781C169.138 43.5781 168.799 43.7031 168.539 43.9531C168.279 44.1979 168.148 44.5104 168.148 44.8906H166.766C166.766 44.4583 166.893 44.0469 167.148 43.6562C167.404 43.2604 167.747 42.9505 168.18 42.7266C168.612 42.5026 169.094 42.3906 169.625 42.3906C170.49 42.3906 171.146 42.6068 171.594 43.0391C172.047 43.4661 172.279 44.0911 172.289 44.9141V49.1797C172.294 49.8307 172.383 50.3958 172.555 50.875V51H171.117ZM169.273 49.8984C169.612 49.8984 169.935 49.8047 170.242 49.6172C170.549 49.4297 170.773 49.1953 170.914 48.9141V46.8984H170.133C169.477 46.9089 168.958 47.0573 168.578 47.3438C168.198 47.625 168.008 48.0208 168.008 48.5312C168.008 49.0104 168.104 49.3594 168.297 49.5781C168.49 49.7917 168.815 49.8984 169.273 49.8984ZM180.375 51H179V47.3906H175.953V51H174.562V42.5469H175.953V46.2109H179V42.5469H180.375V51ZM184.078 45.4609H185.82C186.628 45.4661 187.271 45.7135 187.75 46.2031C188.229 46.6927 188.469 47.3594 188.469 48.2031C188.469 49.0469 188.227 49.724 187.742 50.2344C187.258 50.7396 186.617 50.9948 185.82 51H182.703V42.5469H184.078V45.4609ZM191.047 51H189.664V42.5469H191.047V51ZM184.078 46.6406V49.8203H185.797C186.203 49.8203 186.518 49.6823 186.742 49.4062C186.971 49.1302 187.086 48.7474 187.086 48.2578C187.086 47.7786 186.974 47.3906 186.75 47.0938C186.526 46.7969 186.219 46.6458 185.828 46.6406H184.078ZM195.898 45.6328L197.344 42.5469H198.945L196.648 46.7266L199 51H197.414L195.922 47.8359L194.422 51H192.828L195.18 46.7266L192.891 42.5469H194.477L195.898 45.6328ZM204.281 51V42.5469H207.117C208.086 42.5469 208.826 42.7448 209.336 43.1406C209.846 43.5365 210.102 44.112 210.102 44.8672C210.102 45.2578 210 45.6094 209.797 45.9219C209.594 46.2344 209.297 46.474 208.906 46.6406C209.339 46.7552 209.685 46.987 209.945 47.3359C210.211 47.6849 210.344 48.1068 210.344 48.6016C210.344 49.3828 210.099 49.9792 209.609 50.3906C209.125 50.7969 208.438 51 207.547 51H204.281ZM205.656 47.2891V49.8359H207.562C208.495 49.8359 208.961 49.4089 208.961 48.5547C208.961 47.7109 208.49 47.2891 207.547 47.2891H205.656ZM205.656 46.1328H207.102C208.18 46.1328 208.719 45.737 208.719 44.9453C208.719 44.1484 208.211 43.7396 207.195 43.7188H205.656V46.1328ZM215.242 51.1562C214.19 51.1562 213.383 50.8438 212.82 50.2188C212.258 49.5885 211.971 48.6667 211.961 47.4531V46.4297C211.961 45.1693 212.234 44.1823 212.781 43.4688C213.333 42.75 214.102 42.3906 215.086 42.3906C216.076 42.3906 216.815 42.7057 217.305 43.3359C217.794 43.9661 218.044 44.9479 218.055 46.2812V47.1875H213.336V47.3828C213.336 48.2891 213.505 48.9479 213.844 49.3594C214.188 49.7708 214.68 49.9766 215.32 49.9766C215.727 49.9766 216.083 49.901 216.391 49.75C216.703 49.5938 216.995 49.349 217.266 49.0156L217.984 49.8906C217.385 50.7344 216.471 51.1562 215.242 51.1562ZM215.086 43.5781C214.513 43.5781 214.089 43.776 213.812 44.1719C213.536 44.5625 213.38 45.1719 213.344 46H216.672V45.8125C216.635 45.0104 216.49 44.4375 216.234 44.0938C215.984 43.75 215.602 43.5781 215.086 43.5781ZM221.148 42.5469V49.8203H223.531V42.5469H224.906V49.8203H227.297V42.5469H228.68V49.8203H229.734L229.594 53.5078H228.367V51H219.758V42.5469H221.148ZM234.398 51.1562C233.346 51.1562 232.539 50.8438 231.977 50.2188C231.414 49.5885 231.128 48.6667 231.117 47.4531V46.4297C231.117 45.1693 231.391 44.1823 231.938 43.4688C232.49 42.75 233.258 42.3906 234.242 42.3906C235.232 42.3906 235.971 42.7057 236.461 43.3359C236.951 43.9661 237.201 44.9479 237.211 46.2812V47.1875H232.492V47.3828C232.492 48.2891 232.661 48.9479 233 49.3594C233.344 49.7708 233.836 49.9766 234.477 49.9766C234.883 49.9766 235.24 49.901 235.547 49.75C235.859 49.5938 236.151 49.349 236.422 49.0156L237.141 49.8906C236.542 50.7344 235.628 51.1562 234.398 51.1562ZM234.242 43.5781C233.669 43.5781 233.245 43.776 232.969 44.1719C232.693 44.5625 232.536 45.1719 232.5 46H235.828V45.8125C235.792 45.0104 235.646 44.4375 235.391 44.0938C235.141 43.75 234.758 43.5781 234.242 43.5781ZM243.445 42.5469H244.82V51H243.445V44.8359L240.383 51H239V42.5469H240.383V48.7188L243.445 42.5469ZM244.258 39.4688C244.258 40.099 244.042 40.6068 243.609 40.9922C243.182 41.3724 242.62 41.5625 241.922 41.5625C241.224 41.5625 240.659 41.3698 240.227 40.9844C239.794 40.599 239.578 40.0938 239.578 39.4688H240.758C240.758 39.8333 240.857 40.1198 241.055 40.3281C241.253 40.5312 241.542 40.6328 241.922 40.6328C242.286 40.6328 242.57 40.5312 242.773 40.3281C242.982 40.125 243.086 39.8385 243.086 39.4688H244.258Z" fill="#EF0E03"/>
</svg>
