<svg width="172" height="60" viewBox="0 0 172 60" fill="none" xmlns="http://www.w3.org/2000/svg">
<path fill-rule="evenodd" clip-rule="evenodd" d="M27.8009 17.6002C24.1704 19.3974 19.6685 22.5741 15.6386 25.6782C11.6087 28.7823 6.15378 35.1176 6.15378 35.1176C5.22799 36.225 1.08009 41.3622 0.471971 42.4876C0.181527 43.0322 0.108916 43.0776 0 43.5768L0.816873 44.076C1.03471 43.9943 1.47037 43.7583 1.69728 43.6494C4.8014 42.1518 11.409 41.3713 15.1394 41.9794C15.9563 42.1064 16.5916 42.2154 17.3994 42.3697C18.9968 40.1732 19.7411 39.4289 19.614 39.084C19.1239 39.0568 18.7699 38.9116 18.298 38.8208C16.8185 38.5122 15.929 38.249 14.2499 38.0947C13.2333 38.0039 12.244 38.0039 11.1186 38.0039C9.9114 38.0039 9.19436 38.131 8.24134 38.3397C8.24134 38.3397 13.0155 32.9212 16.5371 29.8896C20.0679 26.8581 26.7027 22.8192 27.9008 21.9387C31.0412 19.6606 38.5836 16.7743 39.6184 18.6803C40.6803 20.6318 36.9499 22.9371 34.4811 24.9612C33.7369 25.5693 30.2425 27.911 30.1335 28.0471C31.377 28.0381 34.4176 29.0819 35.3434 29.6718C38.2297 27.6569 39.3551 26.7946 41.0615 25.2879C45.1277 21.6846 44.6285 18.2356 43.7027 16.7017C42.2777 14.3418 39.9179 14.0332 38.511 14.0605C35.1165 13.7246 27.8009 17.6002 27.8009 17.6002Z" fill="#EF0E03"/>
<path fill-rule="evenodd" clip-rule="evenodd" d="M22.7998 34.21C23.0903 34.0466 22.9723 34.2554 23.1538 33.9377C23.2173 33.8288 23.2718 33.6836 23.3444 33.5384C23.4806 33.2933 24.0705 32.4855 23.771 32.5763C23.0449 32.7941 22.6455 32.8576 22.6546 32.7578C22.7 32.4038 23.8981 32.2041 24.2248 32.1588C26.6301 31.9046 27.574 32.1406 28.3273 32.186C30.4512 32.3131 33.047 33.1027 34.7443 34.6185C36.3236 36.0162 36.8773 37.2143 35.8063 39.1657C35.5612 39.6286 35.2435 40.0643 34.8079 40.3819C34.3994 40.6815 33.8367 41.0717 33.3556 41.2351C31.0049 42.0248 25.8767 41.0808 23.4261 40.2367C22.8906 40.0552 22.2462 39.8192 21.5836 39.7103C21.4928 39.792 21.5291 39.7466 21.4474 39.8555C21.4021 39.91 21.3385 40.0189 21.3113 40.0733C21.2568 40.2004 21.1933 40.3547 21.1298 40.4818C21.0027 40.7632 20.8303 40.981 20.6669 41.2805C20.5035 41.5891 19.9589 42.6783 19.9226 42.9869L22.5366 43.6585C25.7043 44.6297 30.3423 46.091 33.5916 45.1924C35.8698 44.5662 38.03 42.9596 39.2825 41.1444C40.653 39.1566 40.3717 35.7893 39.9088 34.6185C39.101 32.5672 37.2766 31.1876 35.779 30.3163C33.1469 28.7733 29.6797 28.2741 28.7358 28.2196L26.3305 28.1016C26.3305 28.1016 22.3369 28.4102 20.4763 30.4796C19.5686 31.2239 19.3054 32.3584 19.9226 33.2025C20.6578 34.1919 21.9376 34.092 22.7998 34.21Z" fill="#EF0E03"/>
<path fill-rule="evenodd" clip-rule="evenodd" d="M23.9979 32.186C19.5142 39.3382 19.723 38.9297 19.614 39.084C18.7427 40.3547 18.5703 40.6088 17.3994 42.3697L13.6599 47.9607C12.9248 49.1043 12.2259 49.9303 11.4362 51.2463C10.7555 52.399 10.7101 52.4626 10.6194 52.626C10.3652 53.1161 9.77525 54.1054 10.0385 54.2325C10.3108 54.3686 10.8826 53.5881 11.3273 53.0707C16.5553 46.0547 17.5174 44.3937 17.7443 44.2303L14.5676 51.0739C14.3316 51.6548 13.7325 53.225 13.9685 53.3248C14.2045 53.4156 14.8399 52.39 15.4208 51.3008L19.9226 42.9869C21.5292 39.7466 21.4928 39.792 21.5836 39.7103L23.4715 35.9073C24.361 34.3461 24.9146 33.8651 25.7497 32.4492C25.7497 32.4492 25.8495 32.3403 26.0038 32.0408C25.7224 32.0226 24.6968 32.0498 23.9979 32.186Z" fill="#101010"/>
<path fill-rule="evenodd" clip-rule="evenodd" d="M37.6397 3.54095C36.5142 3.08714 38.039 0.60021 38.9558 1.0631C39.1373 1.40801 38.8015 1.57138 38.3476 2.25211C37.5035 3.50465 37.912 3.3685 37.6397 3.54095ZM32.4208 15.4945C32.4208 15.4945 33.3103 15.1043 34.1453 14.8592C34.2905 14.5234 34.4085 14.3146 34.5356 14.0605L37.5762 8.07914C37.8031 7.65255 37.9755 7.33488 38.1843 6.90829C38.3204 6.60877 38.6925 5.96434 38.7742 5.64667C40.3717 5.64667 41.0978 5.37438 41.6968 4.43044C42.7134 2.80577 42.1506 1.42616 41.243 0.718203C40.0268 -0.234816 38.2569 -0.262045 37.2494 0.772661C36.2329 1.82552 36.1875 3.11436 36.4053 3.74971C36.5868 4.30337 37.1949 4.94779 37.6397 5.22916L34.1907 11.9094C33.9456 12.3995 33.7641 12.7807 33.5099 13.2527C33.2558 13.7428 33.0743 14.1149 32.8383 14.6051C32.6477 15.0044 32.4208 15.4945 32.4208 15.4945Z" fill="#060606"/>
<path fill-rule="evenodd" clip-rule="evenodd" d="M41.7695 9.47689C41.1795 9.76733 40.8346 9.23183 41.0343 9.03215C41.2612 8.80524 41.3701 9.02307 41.479 9.13199C41.6152 9.25905 41.7604 9.34982 41.7695 9.47689ZM40.4716 8.32419C39.9088 6.75398 42.2415 5.52867 43.0765 6.21847C43.0493 6.69952 42.2142 6.97181 41.7786 7.26225C41.3701 7.53454 40.7892 8.09728 40.4716 8.32419ZM36.8773 14.1421L38.5111 14.0605C40.2356 11.5281 40.7892 10.8293 41.1251 10.2121C41.4337 10.2847 43.0129 10.911 44.1293 9.57673C45.1913 8.30604 45.1731 6.86289 44.202 6.03694C42.3867 4.46673 41.0615 5.48328 40.3899 6.10048C39.2916 7.11703 39.573 8.77801 39.9996 9.37705L36.8773 14.1421Z" fill="#060606"/>
<path fill-rule="evenodd" clip-rule="evenodd" d="M33.4373 19.1251C33.1469 19.5335 28.5724 26.2863 28.3001 26.4769L31.4678 19.9419C30.6781 20.2869 30.1971 20.5591 29.6162 20.8677C27.5195 25.1246 26.0582 27.8928 26.031 28.2741L28.7358 28.2196C31.141 24.7161 33.8548 20.6318 35.18 18.5442C34.3359 18.8074 34.1453 18.8619 33.4373 19.1251Z" fill="#0F0F0F"/>
<path fill-rule="evenodd" clip-rule="evenodd" d="M37.6397 3.54098C37.912 3.36852 37.6851 3.61359 37.8666 3.28684L38.3477 2.25213C38.5473 1.91631 39.1373 1.40803 38.9558 1.06313C38.1389 0.790835 36.5142 3.08716 37.6397 3.54098Z" fill="#FEFEFE"/>
<path fill-rule="evenodd" clip-rule="evenodd" d="M24.7694 33.9468C25.1506 33.9196 26.0583 33.4113 26.385 33.2751C26.857 33.0755 27.5195 32.8395 27.6012 32.5309C26.984 32.5309 26.4848 32.4492 25.7497 32.4492C25.3866 33.0755 25.1143 33.4748 24.7694 33.9468Z" fill="#EF0E03"/>
<path fill-rule="evenodd" clip-rule="evenodd" d="M41.0342 9.03215C40.8345 9.23183 41.1794 9.76734 41.7694 9.47689C41.7603 9.34983 41.6151 9.25906 41.479 9.13199C41.37 9.02308 41.2611 8.80524 41.0342 9.03215Z" fill="#FCFCFC"/>
<path fill-rule="evenodd" clip-rule="evenodd" d="M55.1118 57.736C53.2875 57.1732 54.7851 52.5171 56.2645 50.0755C58.5427 46.327 66.3393 41.2624 66.3393 41.2624C67.9367 41.698 64.3334 48.3238 63.3259 50.021C59.5411 56.4562 56.7728 58.2533 55.1118 57.736ZM152.873 37.6227C152.873 38.3488 153.491 40.3547 153.609 40.8176C152.692 40.8176 152.193 41.4802 152.129 40.6542C152.066 39.8192 152.592 37.8133 152.873 37.6227ZM154.68 36.2703C155.015 36.4337 156.776 39.3019 157.112 39.3835C156.876 39.6831 156.658 39.6831 156.413 39.4652C155.742 38.8934 154.752 36.5426 154.68 36.2703ZM153.345 36.0525C153.354 35.7167 153.255 36.116 153.618 36.0253C153.618 36.9602 154.952 39.084 155.678 40.037C155.841 40.2458 155.26 40.5635 155.015 40.5272C154.507 40.4546 153.926 38.603 153.708 38.0039C153.536 37.532 153.336 36.8966 153.345 36.0525ZM147.155 36.588C147.255 36.6516 146.429 37.768 146.429 37.768C146.429 37.768 144.323 34.6366 147.155 36.588ZM154.307 34.6457L155.551 35.3264C155.914 35.5715 156.277 35.7258 156.658 35.9436C157.121 36.2068 158.401 36.7514 158.982 36.7968C158.855 37.0418 158.927 37.1054 158.773 37.3232C158.292 37.2869 156.649 36.5063 156.223 36.234C155.342 35.6895 154.307 35.3627 154.307 34.6457ZM145.422 33.0573L146.838 34.1556C147.146 34.3371 147.836 34.7818 147.954 35.0813C147.609 35.2356 147.001 35.0087 146.665 34.9634C144.659 34.6548 145.503 33.3387 145.422 33.0573ZM155.397 33.5202C155.696 33.139 156.341 33.856 156.903 34.1737C157.212 34.3552 158.101 34.9724 158.41 35.0904C160.089 35.7167 159.417 35.8891 159.245 36.1977L155.896 34.6911C155.487 34.4732 155.36 34.4097 154.834 34.1465C154.553 34.0013 155.161 33.8379 155.397 33.5202ZM145.984 31.6051C146.565 31.7594 147.21 33.0482 148.617 33.7562L148.399 34.1374C148.072 33.9196 146.139 32.2041 145.821 32.1224C145.903 31.9591 145.93 31.8048 145.984 31.6051ZM149.787 40.2186C149.334 40.1278 150.849 37.1054 151.666 35.8256C151.939 35.3809 152.665 34.2645 152.973 33.8651C154.135 32.6398 154.988 32.5944 154.988 32.5944C154.988 32.5944 152.692 35.1812 151.966 36.5245L150.523 40.509C150.523 40.5181 149.806 40.2276 149.787 40.2186ZM156.486 32.6489C156.894 33.1844 159.608 33.9377 160.171 34.2282C160.089 34.3734 160.017 34.8363 159.944 34.9815L156.813 33.4839C156.567 33.3568 156.286 33.0936 156.05 32.9847C156.186 32.8032 156.304 32.7669 156.486 32.6489ZM148.499 39.6558C147.192 40.0098 150.532 34.6457 150.94 34.0739C151.811 32.8576 152.438 31.7322 153.1 32.3131C152.038 33.7925 149.343 38.0312 148.499 39.6558ZM148.553 32.7306C148.263 32.658 146.52 30.9607 146.52 30.9516L147.337 29.7535C147.155 30.6158 147.664 31.2874 147.881 31.6414L148.553 32.7306ZM148.771 28.3013L149.252 28.619C149.252 28.855 149.443 30.1892 149.497 30.3889C149.615 30.8154 149.633 31.0877 149.86 31.5688C149.969 31.8048 149.697 32.1406 149.524 31.95C149.216 31.6142 148.689 29.7263 148.771 28.3013ZM147.536 38.7754C146.384 38.4487 151.811 29.7989 152.392 31.3056C151.73 32.0861 149.352 34.7455 147.536 38.7754ZM77.3489 37.9222C76.3142 38.1673 77.6847 34.8272 79.4728 31.9772C80.3895 30.5159 83.6298 27.0578 84.5102 29.7807C84.5828 30.0077 83.6842 31.6959 83.0126 32.7306C81.4696 35.1086 78.7376 37.5864 77.3489 37.9222ZM155.224 31.0968C157.085 29.5538 156.74 30.1529 158.092 29.2906C158.219 29.5175 158.383 29.9169 158.41 30.2436C157.012 30.997 156.558 31.0605 155.224 31.0968ZM47.8416 34.9906C45.9175 34.446 48.2592 31.0242 49.7114 29.4358C51.3451 27.6478 52.9789 27.8475 53.6142 29.2997C53.9047 29.9713 52.6884 31.714 51.8625 32.6761C51.0093 33.6745 49.2576 35.3899 47.8416 34.9906ZM153.3 28.0925C152.828 27.8747 153.3 26.7674 153.3 26.3953C153.609 26.5859 155.233 26.5496 155.397 26.8582C155.224 27.1849 154.099 27.4753 153.3 28.0925ZM154.017 30.5885C153.436 30.2436 155.297 29.3814 156.077 28.8913C156.386 28.6916 157.53 27.8566 157.666 28.4102C157.702 28.5645 155.669 29.7807 155.015 30.2527C154.208 30.8245 154.235 30.7156 154.017 30.5885ZM151.784 26.9308C151.739 27.6659 151.621 28.855 151.757 29.3451C151.439 29.7898 151.14 30.2981 150.849 30.3707C150.695 30.0621 150.386 28.8731 150.414 28.5917C150.541 27.3301 150.831 27.2394 151.167 27.0669C151.467 26.9126 151.802 26.6494 151.784 26.9308ZM153.246 29.926C153.345 29.6627 153.264 29.1545 153.264 29.1545C154.053 28.4828 154.816 28.265 155.742 27.7839C156.032 27.6296 156.105 27.6206 156.404 27.7567C156.232 27.9745 155.242 28.5645 154.634 28.9548C154.017 29.3451 153.318 30.0258 153.246 29.926ZM148.871 26.6312C145.957 28.147 144.405 32.3403 144.405 32.3403C143.007 35.4444 140.048 39.3745 138.741 39.2202C137.734 39.1203 140.357 33.7743 140.82 32.658C142.862 28.5101 143.225 27.3301 142.853 27.4118L139.086 27.3301C138.796 27.5026 137.471 30.4342 136.972 31.4508C135.937 33.5656 131.353 35.2538 131.544 34.8363C133.45 30.6248 135.147 27.4118 134.793 27.4481C133.178 27.43 131.617 27.3937 130.455 27.4118C130.146 27.6569 128.857 30.3253 128.34 31.1604C126.153 34.7274 122.921 39.1113 121.433 38.9842C120.444 38.8934 124.591 30.4796 124.591 30.4796C124.8 30.0077 126.289 27.4209 125.417 27.4209C123.893 27.43 122.322 27.439 121.424 27.4572L119.491 31.115C118.601 32.658 114.653 39.1657 113.437 38.8299C112.347 38.5304 114.308 33.8197 114.889 32.3766C115.615 30.6248 117.294 27.548 116.477 27.5207C115.914 27.5117 113.718 27.2575 113.028 27.4935C112.284 27.7386 111.149 30.0349 110.723 30.8881C110.06 32.2404 105.567 39.1839 103.652 39.0931C102.563 39.0477 108.145 27.9927 107.982 27.6024C107.864 27.321 103.934 27.4118 103.779 27.6206L101.946 31.3691C101.156 32.422 95.9283 35.8801 96.4275 34.7546C98.1429 30.9153 98.6149 30.171 99.3591 28.4011C99.577 27.8747 99.5225 27.4118 99.1776 27.3846L95.6015 27.4935C94.9299 27.4663 94.476 29.3995 93.3415 31.2693C92.4338 32.3403 86.8247 39.6649 85.8081 39.2565C84.6645 38.8027 90.8818 27.6659 90.5823 27.6296C90.0649 27.557 87.6778 27.6932 86.9336 27.7386C86.0622 27.7113 86.0169 28.4284 85.436 29.0093C85.4178 28.1198 83.9021 27.3664 82.7766 27.2303C79.6725 26.84 77.7483 28.3558 76.5502 29.8534C75.6698 30.9607 74.5625 32.549 73.8817 34.1828C71.3857 36.2885 69.0531 38.0947 68.0275 38.8299C67.1289 38.5757 65.5043 38.6847 65.9399 38.4759C67.2923 37.4775 67.9004 36.8059 68.4904 36.0344C69.7338 34.3643 70.2058 33.4476 71.0681 31.1694C71.4493 30.162 71.531 28.7642 70.6596 27.9655C69.7066 27.1032 66.902 26.6675 63.9431 30.0712C61.6468 32.7033 56.2191 39.1385 54.3948 39.1294C53.1332 39.1294 56.319 33.8107 56.9815 32.4583C57.6623 31.1059 58.6062 29.1182 58.6062 29.1182C56.3099 25.9051 54.9212 28.6825 54.9212 28.6825C54.9212 28.6825 54.2405 27.5389 53.0787 26.8582C52.398 26.4679 50.5464 26.123 48.9127 26.7765C47.5784 27.312 46.6889 27.6478 45.2186 29.4631C43.7754 31.2602 43.0856 33.4567 43.4759 35.2901C43.8662 37.1235 46.1988 36.8785 46.9612 36.8785C42.3051 41.3622 39.4551 40.8902 39.4551 40.8902L37.068 43.5133C39.3099 43.8854 40.1177 43.3408 41.8059 42.887C45.8721 41.3531 49.9655 36.9238 50.4829 36.3339C50.6644 36.116 50.6644 36.116 50.973 36.0434C50.4466 37.1689 50.3649 37.5047 50.0835 38.4578C49.4845 40.4455 50.8732 41.7616 52.4978 41.7888C55.8833 41.8342 60.4033 36.1524 61.7194 34.6275C63.8614 32.1497 66.6025 28.7642 67.4375 29.1908C68.1818 29.572 65.1684 33.847 64.5512 34.5549C64.5512 34.5549 63.3532 36.2613 62.0915 37.5955C60.8299 38.9297 59.6228 40.0098 59.6228 40.0098C59.5955 40.8358 60.6484 40.9719 61.2384 41.1807C61.8828 41.4076 63.1353 40.4727 63.4984 40.3275C63.7616 40.2276 65.9762 39.9554 65.6858 40.1641C61.7829 43.0141 58.4156 44.8657 55.0664 49.3312C49.5026 56.7466 53.4236 59.4242 54.8123 59.7691C60.476 61.1487 65.0777 56.0205 66.9383 53.0435C68.3996 50.7018 70.3238 46.3723 70.4781 44.1214C70.6233 41.8795 69.2891 39.6195 69.1439 39.4108C70.4146 38.5667 72.72 36.5154 73.3553 36.0253C72.5021 37.9132 72.2299 40.4818 73.0013 41.2533C74.2811 42.533 75.3975 42.1881 76.8134 41.099C78.4381 39.8555 81.6693 36.588 82.2592 35.871C81.5694 37.5138 81.4605 38.485 81.5059 39.3382C81.5967 41.335 82.704 41.8705 84.1925 41.9885C86.5161 42.17 90.7638 36.0253 91.744 34.9089C90.7366 37.0055 88.5764 41.9885 90.1375 42.0429C92.1253 42.1155 93.0964 42.0248 93.2235 41.816L95.42 37.1145C98.2972 36.1524 99.4499 35.4172 100.485 34.5368C99.7313 36.1524 99.2684 37.8224 99.2502 38.8934C99.2139 40.9538 100.358 42.052 101.919 42.0248C104.333 41.9794 108.553 36.1614 109.143 34.9089C109.225 34.7455 108.435 37.3141 108.463 38.6211C108.49 40.7995 109.516 41.816 110.65 41.9431C113.954 42.3152 117.185 36.1614 118.22 34.564C117.539 36.4973 116.886 37.9586 116.795 39.0296C116.641 40.8811 117.73 42.1881 119.636 42.0338C122.331 41.816 126.107 35.9345 126.933 34.7637L125.308 38.5122C124.591 39.9372 124.038 41.9068 124.8 41.8886C125.699 41.8795 128.059 42.2154 128.367 41.6617C128.803 40.7995 129.52 39.0023 130.555 36.8785C132.143 36.8785 134.022 35.7711 135.692 34.5821C134.521 37.3686 134.321 38.1582 134.448 39.2656C134.621 40.7632 135.701 41.9431 137.262 41.816C140.938 41.5346 143.906 35.3083 143.969 35.5442C145.422 40.8811 148.362 42.3152 152.501 42.4695C157.729 42.6783 160.144 38.966 160.806 36.9874C162.031 33.2661 161.296 30.4705 161.287 30.3253C161.968 30.1529 161.913 29.2725 163.702 28.0562C164.546 27.4753 166.733 26.132 167.831 26.9126C169.783 28.3013 168.539 29.7989 167.468 30.053C166.651 30.2436 165.726 29.9441 164.5 29.0637C164.183 30.7701 165.853 31.7866 166.561 32.2041C167.269 32.6126 168.585 32.6852 170.1 31.7503C171.335 30.761 171.525 29.8443 171.598 28.5191C171.716 26.1956 168.267 24.4075 165.862 25.2153C164.518 25.6601 162.594 26.7311 161.75 27.6932C161.46 28.029 160.906 29.0819 160.588 28.746C158.011 26.0957 157.384 26.0413 155.823 25.651C153.409 25.0338 151.367 25.3333 148.871 26.6312Z" fill="black"/>
<path fill-rule="evenodd" clip-rule="evenodd" d="M55.1118 57.736C53.2875 57.1732 54.7851 52.5171 56.2645 50.0755C58.5427 46.327 66.3393 41.2624 66.3393 41.2624C67.9367 41.698 64.3334 48.3238 63.3259 50.021C59.5411 56.4562 56.7728 58.2533 55.1118 57.736ZM152.873 37.6227C152.873 38.3488 153.491 40.3547 153.609 40.8176C152.692 40.8176 152.193 41.4802 152.129 40.6542C152.066 39.8192 152.592 37.8133 152.873 37.6227ZM154.68 36.2703C155.015 36.4337 156.776 39.3019 157.112 39.3835C156.876 39.6831 156.658 39.6831 156.413 39.4652C155.742 38.8934 154.752 36.5426 154.68 36.2703ZM153.345 36.0525C153.354 35.7167 153.255 36.1161 153.618 36.0253C153.618 36.9602 154.952 39.084 155.678 40.037C155.841 40.2458 155.26 40.5635 155.015 40.5272C154.507 40.4546 153.926 38.603 153.708 38.0039C153.536 37.532 153.336 36.8966 153.345 36.0525ZM147.155 36.588C147.255 36.6516 146.429 37.7679 146.429 37.7679C146.429 37.7679 144.323 34.6366 147.155 36.588ZM154.307 34.6457L155.551 35.3264C155.914 35.5715 156.277 35.7258 156.658 35.9436C157.121 36.2068 158.401 36.7514 158.982 36.7968C158.855 37.0418 158.927 37.1054 158.773 37.3232C158.292 37.2869 156.649 36.5063 156.223 36.234C155.342 35.6895 154.307 35.3627 154.307 34.6457ZM145.422 33.0573L146.838 34.1556C147.146 34.3371 147.836 34.7818 147.954 35.0813C147.609 35.2356 147.001 35.0087 146.665 34.9634C144.659 34.6548 145.503 33.3387 145.422 33.0573ZM155.397 33.5202C155.696 33.139 156.341 33.856 156.903 34.1737C157.212 34.3552 158.101 34.9724 158.41 35.0904C160.089 35.7167 159.417 35.8891 159.245 36.1977L155.896 34.6911C155.487 34.4732 155.36 34.4097 154.834 34.1465C154.553 34.0013 155.161 33.8379 155.397 33.5202ZM145.984 31.6051C146.565 31.7594 147.21 33.0482 148.617 33.7562L148.399 34.1374C148.072 33.9196 146.139 32.2041 145.821 32.1224C145.903 31.9591 145.93 31.8048 145.984 31.6051ZM149.787 40.2186C149.334 40.1278 150.849 37.1054 151.666 35.8256C151.939 35.3809 152.665 34.2645 152.973 33.8651C154.135 32.6398 154.988 32.5944 154.988 32.5944C154.988 32.5944 152.692 35.1812 151.966 36.5245L150.523 40.509C150.523 40.5181 149.806 40.2276 149.787 40.2186ZM156.486 32.6489C156.894 33.1844 159.608 33.9377 160.171 34.2282C160.089 34.3734 160.017 34.8363 159.944 34.9815L156.813 33.4839C156.567 33.3568 156.286 33.0936 156.05 32.9847C156.186 32.8032 156.304 32.7669 156.486 32.6489ZM148.499 39.6558C147.192 40.0098 150.532 34.6457 150.94 34.0739C151.811 32.8576 152.438 31.7322 153.1 32.3131C152.038 33.7925 149.343 38.0312 148.499 39.6558ZM148.553 32.7306C148.263 32.658 146.52 30.9607 146.52 30.9516L147.337 29.7535C147.155 30.6158 147.664 31.2874 147.881 31.6414L148.553 32.7306ZM148.771 28.3013L149.252 28.619C149.252 28.855 149.443 30.1892 149.497 30.3889C149.615 30.8154 149.633 31.0877 149.86 31.5688C149.969 31.8048 149.697 32.1406 149.524 31.95C149.216 31.6142 148.689 29.7263 148.771 28.3013ZM147.536 38.7754C146.384 38.4487 151.811 29.7989 152.392 31.3056C151.73 32.0861 149.352 34.7455 147.536 38.7754ZM77.3489 37.9222C76.3142 38.1673 77.6847 34.8272 79.4728 31.9772C80.3895 30.5159 83.6298 27.0578 84.5102 29.7807C84.5828 30.0077 83.6842 31.6959 83.0126 32.7306C81.4696 35.1086 78.7376 37.5864 77.3489 37.9222ZM155.224 31.0968C157.085 29.5538 156.74 30.1529 158.092 29.2906C158.219 29.5175 158.383 29.9169 158.41 30.2436C157.012 30.997 156.558 31.0605 155.224 31.0968ZM47.8416 34.9906C45.9175 34.446 48.2592 31.0242 49.7114 29.4358C51.3451 27.6478 52.9789 27.8475 53.6142 29.2997C53.9047 29.9713 52.6884 31.714 51.8625 32.6761C51.0093 33.6745 49.2576 35.3899 47.8416 34.9906ZM153.3 28.0925C152.828 27.8747 153.3 26.7674 153.3 26.3953C153.609 26.5859 155.233 26.5496 155.397 26.8582C155.224 27.1849 154.099 27.4753 153.3 28.0925ZM154.017 30.5885C153.436 30.2436 155.297 29.3814 156.077 28.8913C156.386 28.6916 157.53 27.8566 157.666 28.4102C157.702 28.5645 155.669 29.7807 155.015 30.2527C154.208 30.8245 154.235 30.7156 154.017 30.5885ZM151.784 26.9308C151.739 27.6659 151.621 28.855 151.757 29.3451C151.439 29.7898 151.14 30.2981 150.849 30.3707C150.695 30.0621 150.386 28.8731 150.414 28.5917C150.541 27.3301 150.831 27.2394 151.167 27.0669C151.467 26.9126 151.802 26.6494 151.784 26.9308ZM153.246 29.926C153.345 29.6627 153.264 29.1545 153.264 29.1545C154.053 28.4828 154.816 28.265 155.742 27.7839C156.032 27.6296 156.105 27.6206 156.404 27.7567C156.232 27.9745 155.242 28.5645 154.634 28.9548C154.017 29.3451 153.318 30.0258 153.246 29.926ZM148.871 26.6312C145.957 28.147 144.405 32.3403 144.405 32.3403C143.007 35.4444 140.048 39.3745 138.741 39.2202C137.734 39.1203 140.357 33.7743 140.82 32.658C142.862 28.5101 143.225 27.3301 142.853 27.4118L139.086 27.3301C138.796 27.5026 137.471 30.4342 136.972 31.4508C135.937 33.5656 131.353 35.2538 131.544 34.8363C133.45 30.6248 135.147 27.4118 134.793 27.4481C133.178 27.43 131.617 27.3937 130.455 27.4118C130.146 27.6569 128.857 30.3253 128.34 31.1604C126.153 34.7274 122.921 39.1113 121.433 38.9842C120.444 38.8934 124.591 30.4796 124.591 30.4796C124.8 30.0077 126.289 27.4209 125.417 27.4209C123.893 27.43 122.322 27.439 121.424 27.4572L119.491 31.115C118.601 32.658 114.653 39.1657 113.437 38.8299C112.347 38.5304 114.308 33.8197 114.889 32.3766C115.615 30.6248 117.294 27.548 116.477 27.5207C115.914 27.5117 113.718 27.2575 113.028 27.4935C112.284 27.7386 111.149 30.0349 110.723 30.8881C110.06 32.2404 105.567 39.1839 103.652 39.0931C102.563 39.0477 108.145 27.9927 107.982 27.6024C107.864 27.321 103.934 27.4118 103.779 27.6206L101.946 31.3691C101.156 32.422 95.9283 35.8801 96.4275 34.7546C98.1429 30.9153 98.6149 30.171 99.3591 28.4011C99.577 27.8747 99.5225 27.4118 99.1776 27.3846L95.6015 27.4935C94.9299 27.4663 94.476 29.3995 93.3415 31.2693C92.4338 32.3403 86.8247 39.6649 85.8081 39.2565C84.6645 38.8027 90.8818 27.6659 90.5823 27.6296C90.0649 27.557 87.6778 27.6932 86.9336 27.7386C86.0622 27.7113 86.0169 28.4284 85.436 29.0093C85.4178 28.1198 83.9021 27.3664 82.7766 27.2303C79.6725 26.84 77.7483 28.3558 76.5502 29.8534C75.6698 30.9607 74.5625 32.549 73.8817 34.1828C71.3857 36.2885 69.0531 38.0947 68.0275 38.8299C67.1289 38.5757 65.5043 38.6847 65.9399 38.4759C67.2923 37.4775 67.9004 36.8059 68.4904 36.0344C69.7338 34.3643 70.2058 33.4476 71.0681 31.1694C71.4493 30.162 71.531 28.7642 70.6596 27.9655C69.7066 27.1032 66.902 26.6675 63.9431 30.0712C61.6468 32.7033 56.2191 39.1385 54.3948 39.1294C53.1332 39.1294 56.319 33.8107 56.9815 32.4583C57.6623 31.1059 58.6062 29.1182 58.6062 29.1182C56.3099 25.9051 54.9212 28.6825 54.9212 28.6825C54.9212 28.6825 54.2405 27.5389 53.0787 26.8582C52.398 26.4679 50.5464 26.123 48.9127 26.7765C47.5784 27.312 46.6889 27.6478 45.2186 29.4631C43.7754 31.2602 43.0856 33.4567 43.4759 35.2901C43.8662 37.1235 46.1988 36.8785 46.9612 36.8785C42.3051 41.3622 39.4551 40.8902 39.4551 40.8902L37.068 43.5133C39.3099 43.8854 40.1177 43.3408 41.8059 42.887C45.8721 41.3531 49.9655 36.9238 50.4829 36.3339C50.6644 36.1161 50.6644 36.1161 50.973 36.0434C50.4466 37.1689 50.3649 37.5047 50.0835 38.4578C49.4845 40.4455 50.8732 41.7616 52.4978 41.7888C55.8833 41.8342 60.4033 36.1524 61.7194 34.6275C63.8614 32.1497 66.6025 28.7642 67.4375 29.1908C68.1818 29.572 65.1684 33.847 64.5512 34.5549C64.5512 34.5549 63.3532 36.2613 62.0915 37.5955C60.8299 38.9297 59.6228 40.0098 59.6228 40.0098C59.5955 40.8358 60.6484 40.9719 61.2384 41.1807C61.8828 41.4076 63.1353 40.4727 63.4984 40.3275C63.7616 40.2276 65.9762 39.9554 65.6858 40.1641C61.7829 43.0141 58.4156 44.8657 55.0664 49.3312C49.5026 56.7466 53.4236 59.4242 54.8123 59.7691C60.476 61.1487 65.0777 56.0205 66.9383 53.0435C68.3996 50.7018 70.3238 46.3723 70.4781 44.1214C70.6233 41.8795 69.2891 39.6195 69.1439 39.4108C70.4146 38.5667 72.72 36.5154 73.3553 36.0253C72.5021 37.9132 72.2299 40.4818 73.0013 41.2533C74.2811 42.533 75.3975 42.1881 76.8134 41.099C78.4381 39.8555 81.6693 36.588 82.2592 35.871C81.5694 37.5138 81.4605 38.485 81.5059 39.3382C81.5967 41.335 82.704 41.8705 84.1925 41.9885C86.5161 42.17 90.7638 36.0253 91.744 34.9089C90.7366 37.0055 88.5764 41.9885 90.1375 42.0429C92.1253 42.1155 93.0964 42.0248 93.2235 41.816L95.42 37.1145C98.2972 36.1524 99.4499 35.4172 100.485 34.5368C99.7313 36.1524 99.2684 37.8224 99.2502 38.8934C99.2139 40.9538 100.358 42.052 101.919 42.0248C104.333 41.9794 108.553 36.1614 109.143 34.9089C109.225 34.7455 108.435 37.3141 108.463 38.6211C108.49 40.7995 109.516 41.816 110.65 41.9431C113.954 42.3152 117.185 36.1614 118.22 34.564C117.539 36.4973 116.886 37.9586 116.795 39.0296C116.641 40.8811 117.73 42.1881 119.636 42.0338C122.331 41.816 126.107 35.9345 126.933 34.7637L125.308 38.5122C124.591 39.9372 124.038 41.9068 124.8 41.8886C125.699 41.8795 128.059 42.2154 128.367 41.6617C128.803 40.7995 129.52 39.0023 130.555 36.8785C132.143 36.8785 134.022 35.7711 135.692 34.5821C134.521 37.3686 134.321 38.1582 134.448 39.2656C134.621 40.7632 135.701 41.9431 137.262 41.816C140.938 41.5346 143.906 35.3083 143.969 35.5442C145.422 40.8811 148.362 42.3152 152.501 42.4695C157.729 42.6783 160.144 38.966 160.806 36.9874C162.031 33.2661 161.296 30.4705 161.287 30.3253C161.968 30.1529 161.913 29.2725 163.702 28.0562C164.546 27.4753 166.733 26.132 167.831 26.9126C169.783 28.3013 168.539 29.7989 167.468 30.053C166.651 30.2436 165.726 29.9441 164.5 29.0637C164.183 30.7701 165.853 31.7866 166.561 32.2041C167.269 32.6126 168.585 32.6852 170.1 31.7503C171.335 30.761 171.525 29.8443 171.598 28.5191C171.716 26.1956 168.267 24.4075 165.862 25.2153C164.518 25.6601 162.594 26.7311 161.75 27.6932C161.46 28.029 160.906 29.0819 160.588 28.746C158.011 26.0957 157.384 26.0413 155.823 25.651C153.409 25.0338 151.367 25.3333 148.871 26.6312Z" stroke="black" stroke-width="0.0572"/>
<path fill-rule="evenodd" clip-rule="evenodd" d="M33.6461 36.0888C31.6765 38.485 32.7566 41.3894 32.92 41.3713C33.3556 41.3077 33.5372 41.3077 34.3813 40.8358C35.4341 40.2549 36.1239 39.3109 36.8591 38.367C37.5217 37.5138 38.6199 36.4246 40.1811 35.989C41.0252 35.8256 41.6877 35.4807 42.3775 35.6985C41.8965 34.2554 40.408 33.6563 39.3642 33.5565C37.4763 33.3841 35.0075 34.4188 33.6461 36.0888Z" fill="black"/>
<path fill-rule="evenodd" clip-rule="evenodd" d="M33.6461 36.0888C31.6765 38.485 32.7566 41.3894 32.92 41.3713C33.3556 41.3077 33.5372 41.3077 34.3813 40.8358C35.4341 40.2549 36.1239 39.3109 36.8591 38.367C37.5217 37.5138 38.6199 36.4246 40.1811 35.989C41.0252 35.8256 41.6877 35.4807 42.3775 35.6985C41.8965 34.2554 40.408 33.6563 39.3642 33.5565C37.4763 33.3841 35.0075 34.4188 33.6461 36.0888Z" stroke="black" stroke-width="0.0572"/>
<path fill-rule="evenodd" clip-rule="evenodd" d="M37.4491 4.07645C37.4037 4.61196 38.5292 4.92055 39.0193 4.99316C38.6835 4.69364 38.4203 4.51212 38.4747 3.85862C38.0663 4.19444 37.7395 4.15814 37.4491 4.07645Z" fill="white"/>
<path fill-rule="evenodd" clip-rule="evenodd" d="M168.966 33.8923C168.966 34.1011 169.102 33.9196 169.02 33.8923C169.02 33.8923 168.966 33.6563 168.966 33.8923Z" fill="black"/>
<path fill-rule="evenodd" clip-rule="evenodd" d="M113.881 26.3952L113.899 26.3771C113.899 26.3771 113.872 26.3862 113.881 26.3952Z" fill="black"/>
<path fill-rule="evenodd" clip-rule="evenodd" d="M113.881 26.5677L113.899 26.5405C113.899 26.5405 113.872 26.5586 113.881 26.5677Z" fill="black"/>
</svg>
