<svg width="146" height="51" viewBox="0 0 146 51" fill="none" xmlns="http://www.w3.org/2000/svg">
<path fill-rule="evenodd" clip-rule="evenodd" d="M23.4913 14.6669C20.4236 16.1645 16.6196 18.8118 13.2144 21.3985C9.80915 23.9853 5.19985 29.2647 5.19985 29.2647C4.41757 30.1875 0.912657 34.4685 0.398808 35.4064C0.153388 35.8602 0.0920327 35.898 0 36.314L0.690245 36.73C0.87431 36.662 1.24244 36.4653 1.43418 36.3745C4.05711 35.1265 9.64042 34.4761 12.7925 34.9828C13.4828 35.0887 14.0196 35.1795 14.7022 35.3081C16.052 33.4777 16.6809 32.8575 16.5735 32.57C16.1594 32.5473 15.8603 32.4263 15.4615 32.3507C14.2114 32.0935 13.4598 31.8742 12.0409 31.7456C11.182 31.67 10.346 31.67 9.395 31.67C8.37497 31.67 7.76909 31.7759 6.96381 31.9498C6.96381 31.9498 10.9979 27.4343 13.9736 24.9081C16.957 22.3818 22.5633 19.016 23.5757 18.2823C26.2293 16.3838 32.6026 13.9786 33.4769 15.567C34.3742 17.1932 31.2221 19.1143 29.136 20.801C28.5071 21.3078 25.5544 23.2592 25.4624 23.3726C26.5131 23.3651 29.0823 24.2349 29.8646 24.7265C32.3035 23.0474 33.2545 22.3289 34.6963 21.0733C38.1322 18.0705 37.7104 15.1963 36.9281 13.9181C35.724 11.9515 33.73 11.6944 32.5412 11.7171C29.6729 11.4372 23.4913 14.6669 23.4913 14.6669Z" fill="#EF0E03"/>
<path fill-rule="evenodd" clip-rule="evenodd" d="M19.2654 28.5084C19.5109 28.3722 19.4112 28.5462 19.5645 28.2815C19.6182 28.1907 19.6642 28.0697 19.7256 27.9487C19.8406 27.7444 20.3391 27.0713 20.0861 27.1469C19.4725 27.3284 19.1351 27.3814 19.1427 27.2982C19.1811 27.0032 20.1934 26.8368 20.4695 26.799C22.5019 26.5872 23.2995 26.7839 23.9361 26.8217C25.7307 26.9276 27.9242 27.5856 29.3584 28.8487C30.6928 30.0135 31.1607 31.0119 30.2557 32.6381C30.0486 33.0239 29.7802 33.3869 29.412 33.6516C29.0669 33.9012 28.5914 34.2265 28.1849 34.3626C26.1986 35.0207 21.8654 34.234 19.7946 33.5306C19.3421 33.3793 18.7976 33.1827 18.2377 33.0919C18.161 33.16 18.1917 33.1222 18.1227 33.2129C18.0843 33.2583 18.0307 33.3491 18.0077 33.3945C17.9616 33.5004 17.908 33.629 17.8543 33.7348C17.7469 33.9693 17.6012 34.1508 17.4631 34.4004C17.3251 34.6576 16.8649 35.5652 16.8342 35.8224L19.043 36.3821C21.7196 37.1914 25.6387 38.4092 28.3843 37.6604C30.3094 37.1385 32.1347 35.7997 33.193 34.287C34.3511 32.6305 34.1134 29.8244 33.7222 28.8487C33.0397 27.1393 31.4981 25.9897 30.2327 25.2636C28.0085 23.9777 25.0788 23.5617 24.2812 23.5164L22.2488 23.418C22.2488 23.418 18.8743 23.6752 17.3021 25.3997C16.5351 26.0199 16.3127 26.9654 16.8342 27.6688C17.4555 28.4932 18.5368 28.41 19.2654 28.5084Z" fill="#EF0E03"/>
<path fill-rule="evenodd" clip-rule="evenodd" d="M20.2782 26.8216C16.4895 32.7818 16.6659 32.4414 16.5739 32.57C15.8376 33.6289 15.6919 33.8407 14.7026 35.308L11.5428 39.9672C10.9215 40.9203 10.331 41.6086 9.66376 42.7053C9.08856 43.6659 9.05021 43.7188 8.97352 43.855C8.75877 44.2634 8.26026 45.0878 8.48268 45.1937C8.71276 45.3072 9.19593 44.6567 9.57173 44.2256C13.9893 38.3789 14.8023 36.9947 14.994 36.8586L12.3097 42.5616C12.1103 43.0456 11.6041 44.3542 11.8035 44.4374C12.0029 44.513 12.5398 43.6583 13.0306 42.7507L16.8346 35.8224C18.1921 33.1222 18.1614 33.16 18.2381 33.0919L19.8334 29.9227C20.585 28.6218 21.0528 28.2209 21.7584 27.041C21.7584 27.041 21.8428 26.9502 21.9731 26.7006C21.7354 26.6855 20.8687 26.7082 20.2782 26.8216Z" fill="#101010"/>
<path fill-rule="evenodd" clip-rule="evenodd" d="M31.8049 2.95079C30.8539 2.57261 32.1424 0.500175 32.917 0.885921C33.0704 1.17334 32.7866 1.30948 32.4031 1.87676C31.6899 2.92054 32.035 2.80709 31.8049 2.95079ZM27.395 12.9121C27.395 12.9121 28.1466 12.5869 28.8522 12.3827C28.9749 12.1028 29.0746 11.9288 29.182 11.7171L31.7512 6.73262C31.943 6.37712 32.0887 6.1124 32.2651 5.75691C32.3801 5.50731 32.6946 4.97029 32.7636 4.70556C34.1134 4.70556 34.727 4.47865 35.2331 3.69203C36.0921 2.33814 35.6166 1.18847 34.8497 0.598502C33.822 -0.19568 32.3264 -0.218371 31.4751 0.643884C30.6162 1.52127 30.5778 2.5953 30.7619 3.12476C30.9153 3.58614 31.4291 4.12316 31.8049 4.35763L28.8906 9.92447C28.6835 10.3329 28.5301 10.6506 28.3153 11.0439C28.1006 11.4523 27.9472 11.7624 27.7478 12.1709C27.5868 12.5037 27.395 12.9121 27.395 12.9121Z" fill="#060606"/>
<path fill-rule="evenodd" clip-rule="evenodd" d="M35.2949 7.89742C34.7964 8.13946 34.505 7.69321 34.6737 7.5268C34.8654 7.33771 34.9575 7.51924 35.0495 7.61C35.1646 7.7159 35.2873 7.79153 35.2949 7.89742ZM34.1982 6.93684C33.7227 5.62833 35.6937 4.60723 36.3993 5.18207C36.3763 5.58295 35.6707 5.80986 35.3026 6.05189C34.9575 6.2788 34.4666 6.74775 34.1982 6.93684ZM31.1611 11.7851L32.5416 11.7171C33.9988 9.60681 34.4666 9.02441 34.7504 8.51008C35.0112 8.57059 36.3456 9.09248 37.289 7.98062C38.1863 6.92171 38.171 5.71909 37.3503 5.0308C35.8165 3.72229 34.6967 4.56942 34.1292 5.08374C33.2012 5.93087 33.4389 7.31502 33.7994 7.81422L31.1611 11.7851Z" fill="#060606"/>
<path fill-rule="evenodd" clip-rule="evenodd" d="M28.2543 15.9376C28.0089 16.2779 24.1435 21.9053 23.9134 22.0641L26.5901 16.6183C25.9228 16.9057 25.5163 17.1326 25.0255 17.3898C23.2539 20.9371 22.0191 23.244 21.9961 23.5617L24.2816 23.5163C26.314 20.5968 28.6071 17.1931 29.7268 15.4535C29.0136 15.6728 28.8525 15.7182 28.2543 15.9376Z" fill="#0F0F0F"/>
<path fill-rule="evenodd" clip-rule="evenodd" d="M31.8047 2.9508C32.0348 2.80709 31.8431 3.01131 31.9965 2.73902L32.403 1.87677C32.5717 1.59691 33.0702 1.17335 32.9168 0.885931C32.2266 0.659022 30.8537 2.57262 31.8047 2.9508Z" fill="#FEFEFE"/>
<path fill-rule="evenodd" clip-rule="evenodd" d="M20.9297 28.289C21.2518 28.2663 22.0187 27.8427 22.2948 27.7293C22.6936 27.5629 23.2535 27.3662 23.3225 27.1091C22.801 27.1091 22.3792 27.041 21.758 27.041C21.4512 27.5629 21.2211 27.8957 20.9297 28.289Z" fill="#EF0E03"/>
<path fill-rule="evenodd" clip-rule="evenodd" d="M34.6731 7.52679C34.5044 7.69319 34.7958 8.13944 35.2943 7.89741C35.2866 7.79152 35.1639 7.71588 35.0489 7.60999C34.9569 7.51923 34.8648 7.3377 34.6731 7.52679Z" fill="#FCFCFC"/>
<path fill-rule="evenodd" clip-rule="evenodd" d="M46.569 48.1133C45.0275 47.6443 46.2929 43.7642 47.543 41.7296C49.468 38.6058 56.0561 34.3853 56.0561 34.3853C57.4059 34.7483 54.3611 40.2698 53.5098 41.6842C50.3117 47.0468 47.9725 48.5444 46.569 48.1133ZM129.176 31.3523C129.176 31.9574 129.698 33.6289 129.797 34.0147C129.023 34.0147 128.601 34.5668 128.547 33.8785C128.493 33.1827 128.938 31.5111 129.176 31.3523ZM130.702 30.2253C130.986 30.3614 132.474 32.7515 132.758 32.8196C132.558 33.0692 132.374 33.0692 132.167 32.8877C131.6 32.4112 130.764 30.4522 130.702 30.2253ZM129.575 30.0438C129.583 29.7639 129.498 30.0967 129.805 30.0211C129.805 30.8001 130.932 32.57 131.546 33.3642C131.684 33.5382 131.193 33.8029 130.986 33.7726C130.557 33.7121 130.066 32.1691 129.882 31.6699C129.736 31.2766 129.567 30.7472 129.575 30.0438ZM124.344 30.49C124.429 30.543 123.731 31.4733 123.731 31.4733C123.731 31.4733 121.951 28.8638 124.344 30.49ZM130.388 28.8714L131.438 29.4387C131.745 29.6429 132.052 29.7715 132.374 29.953C132.765 30.1723 133.847 30.6262 134.338 30.664C134.23 30.8682 134.292 30.9211 134.161 31.1027C133.755 31.0724 132.367 30.4219 132.006 30.195C131.262 29.7412 130.388 29.4689 130.388 28.8714ZM122.879 27.5478L124.076 28.463C124.337 28.6142 124.92 28.9848 125.019 29.2344C124.728 29.363 124.214 29.1739 123.93 29.1361C122.235 28.879 122.948 27.7822 122.879 27.5478ZM131.308 27.9335C131.561 27.6158 132.106 28.2134 132.581 28.4781C132.842 28.6294 133.594 29.1437 133.854 29.242C135.273 29.7639 134.706 29.9076 134.56 30.1648L131.73 28.9092C131.385 28.7277 131.277 28.6747 130.833 28.4554C130.595 28.3344 131.109 28.1982 131.308 27.9335ZM123.355 26.3376C123.846 26.4662 124.39 27.5402 125.579 28.1302L125.395 28.4478C125.119 28.2663 123.485 26.8368 123.217 26.7687C123.286 26.6326 123.309 26.504 123.355 26.3376ZM126.568 33.5155C126.185 33.4398 127.466 30.9211 128.156 29.8547C128.386 29.484 129 28.5537 129.26 28.2209C130.242 27.1998 130.963 27.162 130.963 27.162C130.963 27.162 129.023 29.3176 128.409 30.4371L127.19 33.7575C127.19 33.7651 126.584 33.523 126.568 33.5155ZM132.228 27.2074C132.574 27.6536 134.867 28.2814 135.342 28.5235C135.273 28.6445 135.212 29.0302 135.15 29.1512L132.505 27.9032C132.297 27.7974 132.06 27.578 131.86 27.4872C131.975 27.336 132.075 27.3057 132.228 27.2074ZM125.479 33.0465C124.375 33.3415 127.197 28.8714 127.542 28.3949C128.279 27.3814 128.808 26.4435 129.368 26.9275C128.47 28.1604 126.193 31.6926 125.479 33.0465ZM125.525 27.2755C125.28 27.215 123.807 25.8006 123.807 25.793L124.498 24.7946C124.344 25.5131 124.774 26.0728 124.958 26.3678L125.525 27.2755ZM125.709 23.5844L126.116 23.8491C126.116 24.0458 126.277 25.1576 126.323 25.324C126.423 25.6795 126.438 25.9064 126.63 26.3073C126.722 26.504 126.492 26.7838 126.346 26.625C126.085 26.3451 125.64 24.7719 125.709 23.5844ZM124.666 32.3128C123.692 32.0406 128.279 24.8324 128.77 26.088C128.21 26.7384 126.2 28.9546 124.666 32.3128ZM65.359 31.6019C64.4847 31.8061 65.6428 29.0227 67.1537 26.6477C67.9283 25.4299 70.6662 22.5482 71.4102 24.8173C71.4715 25.0064 70.7123 26.4132 70.1447 27.2755C68.8409 29.2571 66.5324 31.322 65.359 31.6019ZM131.162 25.914C132.735 24.6282 132.443 25.1274 133.586 24.4088C133.693 24.5979 133.831 24.9307 133.854 25.203C132.673 25.8308 132.29 25.8838 131.162 25.914ZM40.4258 29.1588C38.7999 28.705 40.7786 25.8535 42.0057 24.5299C43.3862 23.0398 44.7667 23.2062 45.3036 24.4164C45.549 24.9761 44.5213 26.4283 43.8234 27.2301C43.1025 28.0621 41.6223 29.4916 40.4258 29.1588ZM129.536 23.4104C129.138 23.2289 129.536 22.3061 129.536 21.996C129.797 22.1549 131.17 22.1246 131.308 22.3818C131.162 22.6541 130.211 22.8961 129.536 23.4104ZM130.142 25.4904C129.652 25.203 131.224 24.4845 131.883 24.076C132.144 23.9096 133.11 23.2138 133.225 23.6752C133.256 23.8038 131.538 24.8173 130.986 25.2106C130.303 25.6871 130.326 25.5963 130.142 25.4904ZM128.256 22.4423C128.217 23.055 128.118 24.0458 128.233 24.4542C127.964 24.8248 127.711 25.2484 127.466 25.3089C127.335 25.0518 127.075 24.0609 127.098 23.8264C127.205 22.7751 127.45 22.6995 127.734 22.5558C127.987 22.4272 128.271 22.2078 128.256 22.4423ZM129.49 24.9383C129.575 24.719 129.506 24.2954 129.506 24.2954C130.173 23.7357 130.817 23.5542 131.6 23.1533C131.845 23.0247 131.906 23.0171 132.159 23.1306C132.014 23.3121 131.178 23.8038 130.664 24.129C130.142 24.4542 129.552 25.0215 129.49 24.9383ZM125.794 22.1927C123.332 23.4558 122.02 26.9502 122.02 26.9502C120.839 29.537 118.339 32.812 117.235 32.6835C116.383 32.6003 118.6 28.1453 118.991 27.215C120.717 23.7584 121.023 22.7751 120.709 22.8432L117.526 22.7751C117.281 22.9188 116.161 25.3619 115.739 26.209C114.865 27.9713 110.992 29.3782 111.153 29.0302C112.764 25.5207 114.198 22.8432 113.899 22.8734C112.533 22.8583 111.214 22.828 110.233 22.8432C109.972 23.0474 108.883 25.2711 108.446 25.967C106.597 28.9395 103.867 32.5927 102.609 32.4868C101.773 32.4112 105.278 25.3997 105.278 25.3997C105.455 25.0064 106.712 22.8507 105.976 22.8507C104.688 22.8583 103.361 22.8659 102.602 22.881L100.968 25.9291C100.216 27.215 96.8802 32.6381 95.8525 32.3582C94.9322 32.1086 96.5888 28.1831 97.0796 26.9805C97.6932 25.5207 99.112 22.9566 98.4218 22.9339C97.9463 22.9264 96.0903 22.7146 95.5074 22.9112C94.8785 23.1155 93.9198 25.0291 93.5594 25.74C92.9995 26.867 89.2032 32.6532 87.5849 32.5776C86.6646 32.5398 91.3813 23.3272 91.2432 23.002C91.1435 22.7675 87.8227 22.8432 87.6923 23.0171L86.1431 26.1409C85.4758 27.0183 81.0583 29.9 81.4801 28.9622C82.9296 25.7627 83.3284 25.1425 83.9573 23.6676C84.1414 23.2289 84.0953 22.8432 83.8039 22.8205L80.7822 22.9112C80.2146 22.8886 79.8312 24.4996 78.8725 26.0577C78.1056 26.9502 73.3659 33.0541 72.5069 32.7137C71.5406 32.3355 76.7941 23.055 76.541 23.0247C76.1038 22.9642 74.0868 23.0776 73.4579 23.1155C72.7216 23.0928 72.6833 23.6903 72.1925 24.1744C72.1771 23.4331 70.8963 22.8054 69.9453 22.6919C67.3224 22.3667 65.6965 23.6298 64.6841 24.8778C63.9402 25.8006 63.0045 27.1242 62.4293 28.4856C60.3202 30.2404 58.3492 31.7456 57.4826 32.3582C56.7233 32.1464 55.3505 32.2372 55.7186 32.0632C56.8613 31.2312 57.3752 30.6715 57.8737 30.0286C58.9244 28.6369 59.3232 27.873 60.0518 25.9745C60.3739 25.135 60.4429 23.9702 59.7067 23.3046C58.9014 22.586 56.5316 22.2229 54.0313 25.0593C52.091 27.2528 47.5047 32.6154 45.9631 32.6078C44.8971 32.6078 47.589 28.1755 48.1489 27.0486C48.7241 25.9216 49.5217 24.2651 49.5217 24.2651C47.5814 21.5876 46.408 23.9021 46.408 23.9021C46.408 23.9021 45.8328 22.9491 44.8511 22.3818C44.2759 22.0565 42.7113 21.7691 41.3308 22.3137C40.2034 22.76 39.4518 23.0398 38.2094 24.5526C36.9899 26.0502 36.4071 27.8806 36.7369 29.4084C37.0666 30.9363 39.0377 30.732 39.6819 30.732C35.7475 34.4685 33.3393 34.0752 33.3393 34.0752L31.3223 36.2611C33.2166 36.5712 33.8992 36.1174 35.3257 35.7392C38.7616 34.4609 42.2205 30.7699 42.6576 30.2782C42.811 30.0967 42.811 30.0967 43.0718 30.0362C42.6269 30.9741 42.5579 31.2539 42.3202 32.0481C41.814 33.7046 42.9874 34.8013 44.3602 34.824C47.2209 34.8618 51.0403 30.127 52.1523 28.8563C53.9623 26.7914 56.2785 23.9702 56.9841 24.3256C57.6129 24.6433 55.0667 28.2058 54.5452 28.7958C54.5452 28.7958 53.5328 30.2177 52.4668 31.3296C51.4007 32.4414 50.3807 33.3415 50.3807 33.3415C50.3577 34.0298 51.2473 34.1432 51.7459 34.3172C52.2904 34.5063 53.3488 33.7272 53.6555 33.6062C53.8779 33.523 55.7493 33.2961 55.5039 33.4701C52.206 35.8451 49.3607 37.3881 46.5307 41.1094C41.8293 47.2889 45.1425 49.5201 46.3159 49.8075C51.1016 50.9572 54.99 46.6838 56.5622 44.2029C57.797 42.2515 59.4229 38.6436 59.5533 36.7678C59.676 34.8996 58.5486 33.0163 58.4259 32.8423C59.4996 32.1389 61.4476 30.4295 61.9845 30.0211C61.2636 31.5943 61.0335 33.7348 61.6854 34.3777C62.7668 35.4442 63.7101 35.1568 64.9065 34.2491C66.2794 33.2129 69.0097 30.49 69.5082 29.8925C68.9253 31.2615 68.8333 32.0708 68.8716 32.7818C68.9483 34.4458 69.884 34.892 71.1417 34.9904C73.1051 35.1416 76.6944 30.0211 77.5227 29.0907C76.6714 30.8379 74.8461 34.9904 76.1652 35.0358C77.8448 35.0963 78.6654 35.0206 78.7728 34.8467L80.6288 30.9287C83.06 30.127 84.034 29.5143 84.9083 28.7806C84.2717 30.127 83.8806 31.5187 83.8653 32.4112C83.8346 34.1281 84.8009 35.0433 86.1201 35.0206C88.1601 34.9828 91.7264 30.1345 92.2249 29.0907C92.2939 28.9546 91.6267 31.0951 91.6497 32.1843C91.6727 33.9995 92.5393 34.8467 93.498 34.9526C96.2897 35.2627 99.02 30.1345 99.8943 28.8033C99.3191 30.4144 98.7669 31.6321 98.6902 32.5246C98.5598 34.0676 99.4801 35.1568 101.091 35.0282C103.369 34.8467 106.559 29.9454 107.257 28.9697L105.884 32.0935C105.278 33.281 104.81 34.9223 105.455 34.9072C106.214 34.8996 108.208 35.1795 108.469 34.7181C108.837 33.9995 109.443 32.5019 110.317 30.732C111.659 30.732 113.247 29.8093 114.658 28.8184C113.669 31.1405 113.5 31.7985 113.607 32.7213C113.753 33.9693 114.666 34.9526 115.985 34.8467C119.091 34.6122 121.599 29.4235 121.652 29.6202C122.879 34.0676 125.364 35.2627 128.862 35.3912C133.279 35.5652 135.319 32.4717 135.879 30.8228C136.914 27.7217 136.293 25.3921 136.286 25.2711C136.861 25.1274 136.815 24.3937 138.326 23.3802C139.039 22.8961 140.887 21.7767 141.815 22.4272C143.464 23.5844 142.413 24.8324 141.508 25.0442C140.818 25.203 140.036 24.9534 139.001 24.2198C138.732 25.6417 140.143 26.4888 140.741 26.8368C141.34 27.1771 142.452 27.2376 143.733 26.4586C144.776 25.6342 144.937 24.8702 144.998 23.7659C145.098 21.8296 142.183 20.3396 140.151 21.0128C139.016 21.3834 137.39 22.2759 136.677 23.0776C136.431 23.3575 135.963 24.2349 135.695 23.955C133.517 21.7464 132.988 21.7011 131.669 21.3758C129.629 20.8615 127.903 21.1111 125.794 22.1927Z" fill="black"/>
<path fill-rule="evenodd" clip-rule="evenodd" d="M46.569 48.1133C45.0275 47.6443 46.2929 43.7642 47.543 41.7296C49.468 38.6058 56.0561 34.3853 56.0561 34.3853C57.4059 34.7483 54.3611 40.2698 53.5098 41.6842C50.3117 47.0468 47.9725 48.5444 46.569 48.1133ZM129.176 31.3523C129.176 31.9574 129.698 33.6289 129.797 34.0147C129.023 34.0147 128.601 34.5668 128.547 33.8785C128.493 33.1827 128.938 31.5111 129.176 31.3523ZM130.702 30.2253C130.986 30.3614 132.474 32.7515 132.758 32.8196C132.558 33.0692 132.374 33.0692 132.167 32.8877C131.6 32.4112 130.764 30.4522 130.702 30.2253ZM129.575 30.0438C129.583 29.7639 129.498 30.0967 129.805 30.0211C129.805 30.8001 130.932 32.57 131.546 33.3642C131.684 33.5382 131.193 33.8029 130.986 33.7726C130.557 33.7121 130.066 32.1691 129.882 31.6699C129.736 31.2766 129.567 30.7472 129.575 30.0438ZM124.344 30.49C124.429 30.543 123.731 31.4733 123.731 31.4733C123.731 31.4733 121.951 28.8638 124.344 30.49ZM130.388 28.8714L131.439 29.4387C131.745 29.6429 132.052 29.7715 132.374 29.953C132.765 30.1723 133.847 30.6262 134.338 30.664C134.23 30.8682 134.292 30.9211 134.161 31.1027C133.755 31.0724 132.366 30.4219 132.006 30.195C131.262 29.7412 130.388 29.4689 130.388 28.8714ZM122.879 27.5478L124.076 28.463C124.337 28.6142 124.92 28.9848 125.019 29.2344C124.728 29.363 124.214 29.1739 123.93 29.1361C122.235 28.879 122.948 27.7822 122.879 27.5478ZM131.308 27.9335C131.561 27.6158 132.106 28.2134 132.581 28.4781C132.842 28.6294 133.594 29.1437 133.854 29.242C135.273 29.7639 134.706 29.9076 134.56 30.1648L131.73 28.9092C131.385 28.7277 131.277 28.6747 130.833 28.4554C130.595 28.3344 131.109 28.1982 131.308 27.9335ZM123.355 26.3376C123.846 26.4662 124.39 27.5402 125.579 28.1302L125.395 28.4478C125.119 28.2663 123.485 26.8368 123.217 26.7687C123.286 26.6326 123.309 26.504 123.355 26.3376ZM126.568 33.5155C126.185 33.4398 127.466 30.9211 128.156 29.8547C128.386 29.484 129 28.5537 129.26 28.2209C130.242 27.1998 130.963 27.162 130.963 27.162C130.963 27.162 129.023 29.3176 128.409 30.4371L127.19 33.7575C127.19 33.7651 126.584 33.523 126.568 33.5155ZM132.228 27.2074C132.574 27.6536 134.867 28.2814 135.342 28.5235C135.273 28.6445 135.212 29.0302 135.15 29.1512L132.505 27.9032C132.297 27.7974 132.06 27.578 131.86 27.4872C131.975 27.336 132.075 27.3057 132.228 27.2074ZM125.479 33.0465C124.375 33.3415 127.197 28.8714 127.542 28.3949C128.279 27.3814 128.808 26.4435 129.368 26.9275C128.47 28.1604 126.193 31.6926 125.479 33.0465ZM125.525 27.2755C125.28 27.215 123.807 25.8006 123.807 25.793L124.498 24.7946C124.344 25.5131 124.774 26.0728 124.958 26.3678L125.525 27.2755ZM125.709 23.5844L126.116 23.8491C126.116 24.0458 126.277 25.1576 126.323 25.324C126.423 25.6795 126.438 25.9064 126.63 26.3073C126.722 26.504 126.492 26.7838 126.346 26.625C126.085 26.3451 125.64 24.7719 125.709 23.5844ZM124.666 32.3128C123.692 32.0406 128.279 24.8324 128.77 26.088C128.21 26.7384 126.2 28.9546 124.666 32.3128ZM65.359 31.6019C64.4847 31.8061 65.6428 29.0227 67.1537 26.6477C67.9283 25.4299 70.6662 22.5482 71.4102 24.8173C71.4715 25.0064 70.7123 26.4132 70.1447 27.2755C68.8409 29.2571 66.5324 31.322 65.359 31.6019ZM131.162 25.914C132.735 24.6282 132.443 25.1274 133.586 24.4088C133.693 24.5979 133.831 24.9307 133.854 25.203C132.673 25.8308 132.29 25.8838 131.162 25.914ZM40.4258 29.1588C38.7999 28.705 40.7786 25.8535 42.0057 24.5299C43.3862 23.0398 44.7667 23.2062 45.3036 24.4164C45.549 24.9761 44.5213 26.4283 43.8234 27.2301C43.1025 28.0621 41.6223 29.4916 40.4258 29.1588ZM129.536 23.4104C129.138 23.2289 129.536 22.3061 129.536 21.996C129.797 22.1549 131.17 22.1246 131.308 22.3818C131.162 22.6541 130.211 22.8961 129.536 23.4104ZM130.142 25.4904C129.652 25.203 131.224 24.4845 131.883 24.076C132.144 23.9096 133.11 23.2138 133.225 23.6752C133.256 23.8038 131.538 24.8173 130.986 25.2106C130.303 25.6871 130.326 25.5963 130.142 25.4904ZM128.256 22.4423C128.217 23.055 128.118 24.0458 128.233 24.4542C127.964 24.8248 127.711 25.2484 127.466 25.3089C127.335 25.0518 127.075 24.0609 127.098 23.8264C127.205 22.7751 127.45 22.6995 127.734 22.5557C127.987 22.4272 128.271 22.2078 128.256 22.4423ZM129.49 24.9383C129.575 24.719 129.506 24.2954 129.506 24.2954C130.173 23.7357 130.817 23.5542 131.6 23.1533C131.845 23.0247 131.906 23.0171 132.159 23.1306C132.014 23.3121 131.178 23.8038 130.664 24.129C130.142 24.4542 129.552 25.0215 129.49 24.9383ZM125.794 22.1927C123.332 23.4558 122.02 26.9502 122.02 26.9502C120.839 29.537 118.339 32.812 117.235 32.6835C116.383 32.6003 118.6 28.1453 118.991 27.215C120.717 23.7584 121.023 22.7751 120.709 22.8432L117.526 22.7751C117.281 22.9188 116.161 25.3619 115.739 26.209C114.865 27.9713 110.992 29.3782 111.153 29.0302C112.764 25.5207 114.198 22.8432 113.899 22.8734C112.533 22.8583 111.214 22.828 110.233 22.8432C109.972 23.0474 108.883 25.2711 108.446 25.967C106.597 28.9395 103.867 32.5927 102.609 32.4868C101.773 32.4112 105.278 25.3997 105.278 25.3997C105.455 25.0064 106.712 22.8507 105.976 22.8507C104.688 22.8583 103.361 22.8659 102.602 22.881L100.968 25.9291C100.216 27.215 96.8802 32.6381 95.8525 32.3582C94.9322 32.1086 96.5888 28.1831 97.0796 26.9805C97.6932 25.5207 99.112 22.9566 98.4218 22.9339C97.9463 22.9264 96.0903 22.7146 95.5074 22.9112C94.8785 23.1155 93.9198 25.0291 93.5594 25.74C92.9995 26.867 89.2032 32.6532 87.5849 32.5776C86.6646 32.5398 91.3813 23.3272 91.2432 23.002C91.1435 22.7675 87.8227 22.8432 87.6923 23.0171L86.1431 26.1409C85.4758 27.0183 81.0583 29.9 81.4801 28.9622C82.9296 25.7627 83.3284 25.1425 83.9573 23.6676C84.1414 23.2289 84.0953 22.8432 83.8039 22.8205L80.7822 22.9112C80.2146 22.8886 79.8312 24.4996 78.8725 26.0577C78.1056 26.9502 73.3659 33.0541 72.5069 32.7137C71.5406 32.3355 76.7941 23.055 76.541 23.0247C76.1038 22.9642 74.0868 23.0776 73.4579 23.1155C72.7216 23.0928 72.6833 23.6903 72.1925 24.1744C72.1771 23.4331 70.8963 22.8054 69.9453 22.6919C67.3224 22.3667 65.6965 23.6298 64.6841 24.8778C63.9402 25.8006 63.0045 27.1242 62.4293 28.4856C60.3202 30.2404 58.3492 31.7456 57.4826 32.3582C56.7233 32.1464 55.3505 32.2372 55.7186 32.0632C56.8613 31.2312 57.3752 30.6715 57.8737 30.0286C58.9244 28.6369 59.3232 27.873 60.0518 25.9745C60.3739 25.135 60.4429 23.9702 59.7067 23.3046C58.9014 22.586 56.5316 22.2229 54.0313 25.0593C52.091 27.2528 47.5047 32.6154 45.9631 32.6078C44.8971 32.6078 47.589 28.1755 48.1489 27.0486C48.7241 25.9216 49.5217 24.2651 49.5217 24.2651C47.5814 21.5876 46.408 23.9021 46.408 23.9021C46.408 23.9021 45.8328 22.9491 44.8511 22.3818C44.2759 22.0565 42.7113 21.7691 41.3308 22.3137C40.2034 22.76 39.4518 23.0398 38.2094 24.5526C36.9899 26.0502 36.4071 27.8806 36.7369 29.4084C37.0666 30.9363 39.0377 30.732 39.6819 30.732C35.7475 34.4685 33.3393 34.0752 33.3393 34.0752L31.3223 36.2611C33.2166 36.5712 33.8992 36.1174 35.3257 35.7392C38.7616 34.4609 42.2205 30.7699 42.6576 30.2782C42.811 30.0967 42.811 30.0967 43.0718 30.0362C42.6269 30.9741 42.5579 31.2539 42.3202 32.0481C41.814 33.7046 42.9874 34.8013 44.3602 34.824C47.2209 34.8618 51.0403 30.127 52.1523 28.8563C53.9623 26.7914 56.2785 23.9702 56.984 24.3256C57.6129 24.6433 55.0667 28.2058 54.5452 28.7958C54.5452 28.7958 53.5328 30.2177 52.4668 31.3296C51.4007 32.4414 50.3807 33.3415 50.3807 33.3415C50.3577 34.0298 51.2473 34.1432 51.7459 34.3172C52.2904 34.5063 53.3488 33.7272 53.6555 33.6062C53.8779 33.523 55.7493 33.2961 55.5039 33.4701C52.206 35.8451 49.3607 37.3881 46.5307 41.1094C41.8293 47.2889 45.1425 49.5201 46.3159 49.8075C51.1016 50.9572 54.99 46.6838 56.5622 44.2029C57.797 42.2515 59.4229 38.6436 59.5533 36.7678C59.676 34.8996 58.5486 33.0163 58.4259 32.8423C59.4996 32.1389 61.4476 30.4295 61.9845 30.0211C61.2636 31.5943 61.0335 33.7348 61.6854 34.3777C62.7668 35.4442 63.7101 35.1568 64.9065 34.2491C66.2794 33.2129 69.0097 30.49 69.5082 29.8925C68.9253 31.2615 68.8333 32.0708 68.8716 32.7818C68.9483 34.4458 69.884 34.892 71.1417 34.9904C73.1051 35.1416 76.6944 30.0211 77.5227 29.0907C76.6714 30.8379 74.8461 34.9904 76.1652 35.0358C77.8448 35.0963 78.6654 35.0206 78.7728 34.8467L80.6288 30.9287C83.06 30.127 84.034 29.5143 84.9083 28.7806C84.2717 30.127 83.8806 31.5187 83.8653 32.4112C83.8346 34.1281 84.8009 35.0433 86.1201 35.0206C88.1601 34.9828 91.7264 30.1345 92.2249 29.0907C92.2939 28.9546 91.6267 31.0951 91.6497 32.1843C91.6727 33.9995 92.5393 34.8467 93.498 34.9526C96.2897 35.2627 99.02 30.1345 99.8943 28.8033C99.3191 30.4144 98.7669 31.6321 98.6902 32.5246C98.5598 34.0676 99.4801 35.1568 101.091 35.0282C103.369 34.8467 106.559 29.9454 107.257 28.9697L105.884 32.0935C105.278 33.281 104.81 34.9223 105.455 34.9072C106.214 34.8996 108.208 35.1795 108.469 34.7181C108.837 33.9995 109.443 32.5019 110.317 30.732C111.659 30.732 113.247 29.8093 114.658 28.8184C113.669 31.1405 113.5 31.7985 113.607 32.7213C113.753 33.9693 114.666 34.9526 115.985 34.8467C119.091 34.6122 121.599 29.4235 121.652 29.6202C122.879 34.0676 125.364 35.2627 128.862 35.3912C133.279 35.5652 135.319 32.4717 135.879 30.8228C136.914 27.7217 136.293 25.3921 136.286 25.2711C136.861 25.1274 136.815 24.3937 138.326 23.3802C139.039 22.8961 140.887 21.7767 141.815 22.4272C143.464 23.5844 142.413 24.8324 141.508 25.0442C140.818 25.203 140.036 24.9534 139.001 24.2198C138.732 25.6417 140.143 26.4888 140.741 26.8368C141.34 27.1771 142.452 27.2376 143.733 26.4586C144.776 25.6342 144.937 24.8702 144.998 23.7659C145.098 21.8296 142.183 20.3396 140.151 21.0128C139.016 21.3834 137.39 22.2759 136.677 23.0776C136.431 23.3575 135.963 24.2349 135.695 23.955C133.517 21.7464 132.988 21.7011 131.669 21.3758C129.629 20.8615 127.903 21.1111 125.794 22.1927Z" stroke="black" stroke-width="0.0572"/>
<path fill-rule="evenodd" clip-rule="evenodd" d="M28.4304 30.074C26.7662 32.0708 27.6788 34.4912 27.8169 34.476C28.185 34.4231 28.3384 34.4231 29.0517 34.0298C29.9413 33.5457 30.5242 32.7591 31.1454 31.9725C31.7053 31.2615 32.6333 30.3538 33.9524 29.9908C34.6657 29.8546 35.2255 29.5672 35.8084 29.7488C35.4019 28.5461 34.1441 28.0469 33.2622 27.9637C31.6669 27.82 29.5808 28.6823 28.4304 30.074Z" fill="black"/>
<path fill-rule="evenodd" clip-rule="evenodd" d="M28.4304 30.074C26.7662 32.0708 27.6788 34.4912 27.8169 34.476C28.185 34.4231 28.3384 34.4231 29.0517 34.0298C29.9413 33.5457 30.5242 32.7591 31.1454 31.9725C31.7053 31.2615 32.6333 30.3538 33.9524 29.9908C34.6657 29.8546 35.2255 29.5672 35.8084 29.7488C35.4019 28.5461 34.1441 28.0469 33.2622 27.9637C31.6669 27.82 29.5808 28.6823 28.4304 30.074Z" stroke="black" stroke-width="0.0572"/>
<path fill-rule="evenodd" clip-rule="evenodd" d="M31.6437 3.39705C31.6054 3.8433 32.5564 4.10047 32.9705 4.16098C32.6867 3.91138 32.4643 3.7601 32.5103 3.21552C32.1652 3.49537 31.8891 3.46512 31.6437 3.39705Z" fill="white"/>
<path fill-rule="evenodd" clip-rule="evenodd" d="M142.773 28.244C142.773 28.4186 142.89 28.2667 142.82 28.244C142.82 28.244 142.773 28.0465 142.773 28.244Z" fill="black"/>
<path fill-rule="evenodd" clip-rule="evenodd" d="M96.2277 21.996L96.2434 21.9809C96.2434 21.9809 96.2198 21.9885 96.2277 21.996Z" fill="black"/>
<path fill-rule="evenodd" clip-rule="evenodd" d="M96.2277 22.14L96.2436 22.1171C96.2436 22.1171 96.2197 22.1324 96.2277 22.14Z" fill="black"/>
</svg>
