<svg width="5" height="24" viewBox="0 0 5 24" fill="none" xmlns="http://www.w3.org/2000/svg">
<path fill-rule="evenodd" clip-rule="evenodd" d="M4.75 21.3977C4.75 20.2038 3.77062 19.2359 2.5625 19.2359C1.35438 19.2359 0.375 20.2038 0.375 21.3977C0.375 22.5917 1.35438 23.5596 2.5625 23.5596C3.77062 23.5596 4.75 22.5917 4.75 21.3977ZM4.75 12.0296C4.75 10.8356 3.77062 9.86774 2.5625 9.86774C1.35438 9.86774 0.375 10.8356 0.375 12.0296C0.375 13.2236 1.35438 14.1915 2.5625 14.1915C3.77062 14.1915 4.75 13.2236 4.75 12.0296ZM2.5625 0.499819C3.77062 0.499819 4.75 1.46772 4.75 2.66168C4.75 3.85564 3.77062 4.82354 2.5625 4.82354C1.35438 4.82354 0.375 3.85564 0.375 2.66168C0.375 1.46772 1.35438 0.499819 2.5625 0.499819Z" fill="#1A051D"/>
</svg>
