<svg width="20" height="20" viewBox="0 0 20 20" fill="none" xmlns="http://www.w3.org/2000/svg">
<path fill-rule="evenodd" clip-rule="evenodd" d="M0.737549 8.42335C0.737549 12.5945 4.11892 15.9758 8.29005 15.9758C12.4612 15.9758 15.8425 12.5945 15.8425 8.42335C15.8425 4.25222 12.4612 0.87085 8.29005 0.87085C4.11892 0.87085 0.737549 4.25222 0.737549 8.42335ZM14.4175 8.42335C14.4175 11.8075 11.6742 14.5508 8.29005 14.5508C4.90592 14.5508 2.16255 11.8075 2.16255 8.42335C2.16255 5.03922 4.90592 2.29585 8.29005 2.29585C11.6742 2.29585 14.4175 5.03922 14.4175 8.42335ZM19.0539 18.1795C19.3321 18.4578 19.3321 18.9089 19.0539 19.1872C18.7756 19.4654 18.3245 19.4654 18.0462 19.1872L14.6262 15.7672C14.348 15.4889 14.348 15.0378 14.6262 14.7595C14.9045 14.4813 15.3556 14.4813 15.6339 14.7595L19.0539 18.1795ZM4.30005 8.32835C4.56238 8.32835 4.77505 8.11568 4.77505 7.85335C4.77505 6.22687 6.09357 4.90835 7.72005 4.90835C7.98238 4.90835 8.19505 4.69568 8.19505 4.43335C8.19505 4.17101 7.98238 3.95835 7.72005 3.95835C5.5689 3.95835 3.82505 5.7022 3.82505 7.85335C3.82505 8.11568 4.03771 8.32835 4.30005 8.32835Z" fill="#333333"/>
</svg>
