<svg width="24" height="24" viewBox="0 0 24 24" fill="none" xmlns="http://www.w3.org/2000/svg">
<path d="M23.646 17.1516C20.8232 14.328 20.3985 12.9112 20.3985 8.39998C20.3985 3.76077 16.6385 0 12.0001 0C7.36166 0 3.60168 3.76082 3.60168 8.39998C3.60168 10.8324 3.5369 11.7404 3.20207 12.8552C2.78568 14.244 1.93087 15.5736 0.353669 17.1516C-0.401907 17.9076 0.13331 19.2 1.20211 19.2H7.86087L7.80045 19.8C7.80045 22.1196 9.68046 24 11.9996 24C14.3188 24 16.1988 22.1196 16.1988 19.8L16.1384 19.2H22.7976C23.8668 19.2 24.402 17.9076 23.646 17.1516ZM12.0004 22.8C10.344 22.8 9.00087 21.4564 9.00087 19.8L9.06129 19.2H14.9389L15.0001 19.8C15.0001 21.4564 13.6569 22.8 12.0004 22.8ZM1.20248 18C4.80168 14.4 4.80168 12 4.80168 8.39998C4.80168 4.42401 8.02447 1.2 12.0001 1.2C15.9757 1.2 19.1985 4.42401 19.1988 8.39998C19.1988 12 19.1988 14.4 22.798 18H1.20248Z" fill="black"/>
</svg>
