<svg width="20" height="20" viewBox="0 0 20 20" fill="none" xmlns="http://www.w3.org/2000/svg">
<path fill-rule="evenodd" clip-rule="evenodd" d="M8.29005 15.8425C4.11892 15.8425 0.737549 12.4611 0.737549 8.29C0.737549 4.11887 4.11892 0.737499 8.29005 0.737499C12.4612 0.737499 15.8425 4.11887 15.8425 8.29C15.8425 12.4611 12.4612 15.8425 8.29005 15.8425ZM8.29005 14.4175C11.6742 14.4175 14.4175 11.6741 14.4175 8.29C14.4175 4.90587 11.6742 2.1625 8.29005 2.1625C4.90592 2.1625 2.16255 4.90587 2.16255 8.29C2.16255 11.6741 4.90592 14.4175 8.29005 14.4175ZM19.0539 19.0538C19.3321 18.7756 19.3321 18.3244 19.0539 18.0462L15.6339 14.6262C15.3556 14.3479 14.9045 14.3479 14.6262 14.6262C14.348 14.9044 14.348 15.3556 14.6262 15.6338L18.0462 19.0538C18.3245 19.3321 18.7756 19.3321 19.0539 19.0538Z" fill="black"/>
</svg>
