<svg width="20" height="20" viewBox="0 0 20 20" fill="none" xmlns="http://www.w3.org/2000/svg">
<path fill-rule="evenodd" clip-rule="evenodd" d="M0.737549 8.15667C0.737549 12.3278 4.11892 15.7092 8.29005 15.7092C12.4612 15.7092 15.8425 12.3278 15.8425 8.15667C15.8425 3.98554 12.4612 0.604172 8.29005 0.604172C4.11892 0.604172 0.737549 3.98554 0.737549 8.15667ZM14.4175 8.15667C14.4175 11.5408 11.6742 14.2842 8.29005 14.2842C4.90592 14.2842 2.16255 11.5408 2.16255 8.15667C2.16255 4.77255 4.90592 2.02917 8.29005 2.02917C11.6742 2.02917 14.4175 4.77255 14.4175 8.15667ZM19.0539 17.9129C19.3321 18.1911 19.3321 18.6422 19.0539 18.9205C18.7756 19.1987 18.3245 19.1987 18.0462 18.9205L14.6262 15.5005C14.348 15.2222 14.348 14.7711 14.6262 14.4929C14.9045 14.2146 15.3556 14.2146 15.6339 14.4929L19.0539 17.9129ZM4.30005 8.06167C4.56238 8.06167 4.77505 7.84901 4.77505 7.58667C4.77505 5.96019 6.09357 4.64167 7.72005 4.64167C7.98238 4.64167 8.19505 4.42901 8.19505 4.16667C8.19505 3.90434 7.98238 3.69167 7.72005 3.69167C5.5689 3.69167 3.82505 5.43552 3.82505 7.58667C3.82505 7.84901 4.03771 8.06167 4.30005 8.06167Z" fill="#333333"/>
</svg>
