<svg width="16" height="17" viewBox="0 0 16 17" fill="none" xmlns="http://www.w3.org/2000/svg">
<path d="M14.8017 3.27478H1.19828C0.536469 3.27478 0 3.81125 0 4.47306V12.5593C0 13.2211 0.536469 13.7576 1.19828 13.7576H14.8017C15.4635 13.7576 16 13.2211 16 12.5593V4.47306C16 3.81125 15.4635 3.27478 14.8017 3.27478Z" fill="#41479B"/>
<path d="M15.9834 4.27488C15.889 3.70741 15.396 3.27466 14.8017 3.27466H14.4899L9.37931 6.623V3.27469H6.62069V6.62303L1.51006 3.27469H1.19828C0.604 3.27469 0.111031 3.70741 0.0165938 4.27491L4.38466 7.13678H0V9.89541H4.38466L0.0165938 12.7572C0.111031 13.3247 0.604 13.7574 1.19828 13.7574H1.51006L6.62069 10.4091V13.7574H9.37931V10.4091L14.4899 13.7574H14.8017C15.396 13.7574 15.889 13.3247 15.9834 12.7572L11.6153 9.89535H16V7.13672H11.6153L15.9834 4.27488Z" fill="#F5F5F5"/>
<path d="M8.82759 3.27478H7.17241V7.68856H0V9.34375H7.17241V13.7575H8.82759V9.34375H16V7.68856H8.82759V3.27478Z" fill="#FF4B55"/>
<path d="M0.7748 13.6803L6.60552 9.89551H5.59214L0.288269 13.3384C0.41805 13.4899 0.584832 13.6085 0.7748 13.6803Z" fill="#FF4B55"/>
<path d="M10.8247 9.89551H9.81128L15.4587 13.5613C15.6167 13.4575 15.7486 13.3173 15.8426 13.1527L10.8247 9.89551Z" fill="#FF4B55"/>
<path d="M0.126526 3.93726L5.05559 7.13686H6.06896L0.483588 3.51123C0.33362 3.62286 0.210901 3.76879 0.126526 3.93726Z" fill="#FF4B55"/>
<path d="M10.3926 7.13686L15.7062 3.68764C15.575 3.53667 15.4069 3.41867 15.2156 3.34827L9.37927 7.13686H10.3926Z" fill="#FF4B55"/>
</svg>
