<svg width="20" height="20" viewBox="0 0 20 20" fill="none" xmlns="http://www.w3.org/2000/svg">
<path fill-rule="evenodd" clip-rule="evenodd" d="M10 1.875C7.84511 1.875 5.77849 2.73102 4.25476 4.25476C2.73102 5.77849 1.875 7.84511 1.875 10C1.875 12.1549 2.73102 14.2215 4.25476 15.7452C5.77849 17.269 7.84511 18.125 10 18.125C12.1549 18.125 14.2215 17.269 15.7452 15.7452C17.269 14.2215 18.125 12.1549 18.125 10C18.125 7.84511 17.269 5.77849 15.7452 4.25476C14.2215 2.73102 12.1549 1.875 10 1.875ZM0 10C0 7.34784 1.05357 4.8043 2.92894 2.92894C4.8043 1.05357 7.34784 0 10 0C12.6521 0 15.1958 1.05357 17.0711 2.92894C18.9464 4.8043 20 7.34784 20 10C20 12.6521 18.9464 15.1958 17.0711 17.0711C15.1958 18.9464 12.6521 20 10 20C7.34784 20 4.8043 18.9464 2.92894 17.0711C1.05357 15.1958 0 12.6521 0 10ZM11.25 13.75C11.25 14.0815 11.1183 14.3995 10.8839 14.6339C10.6495 14.8682 10.3315 15 10 15C9.66848 15 9.35054 14.8682 9.11611 14.6339C8.8817 14.3995 8.75 14.0815 8.75 13.75C8.75 13.4185 8.8817 13.1005 9.11611 12.8661C9.35054 12.6318 9.66848 12.5 10 12.5C10.3315 12.5 10.6495 12.6318 10.8839 12.8661C11.1183 13.1005 11.25 13.4185 11.25 13.75ZM10.9375 5.9375C10.9375 5.68886 10.8387 5.4504 10.6629 5.27459C10.4871 5.09877 10.2486 5 10 5C9.75136 5 9.5129 5.09877 9.33709 5.27459C9.16127 5.4504 9.0625 5.68886 9.0625 5.9375V10.3125C9.0625 10.5611 9.16127 10.7996 9.33709 10.9754C9.5129 11.1512 9.75136 11.25 10 11.25C10.2486 11.25 10.4871 11.1512 10.6629 10.9754C10.8387 10.7996 10.9375 10.5611 10.9375 10.3125V5.9375Z" fill="#C02100"/>
</svg>
